<?xml version="1.0" encoding="utf-8"?>
<!-- Generator: Adobe Illustrator 28.0.0, SVG Export Plug-In . SVG Version: 6.00 Build 0)  -->
<svg version="1.1" id="Layer_1" xmlns="http://www.w3.org/2000/svg" xmlns:xlink="http://www.w3.org/1999/xlink" x="0px" y="0px"
	 viewBox="0 0 1500 1500" style="enable-background:new 0 0 1500 1500;" xml:space="preserve">
<style type="text/css">
	.st0{fill:#F6CAD4;}
	.st1{fill:#F9AC30;}
	.st2{fill:#F0A0B3;}
	.st3{fill:#184B86;}
	.st4{fill:#FCAE32;}
	.st5{fill:#F0A1B4;}
	.st6{fill:#FBAD30;}
	.st7{fill:#A85A7E;}
	.st8{fill:#FEF4E3;}
	.st9{fill:#FFFFFF;}
	.st10{fill:#FEFBFC;}
	.st11{fill:#F3F6F8;}
	.st12{fill:#F6BF68;}
	.st13{fill:#FCAD2F;}
</style>
<g>
	<path class="st0" d="M1146.1,1095.2c8.6-1.8,16.9-4.9,25.3-7.1c15.9-4.1,31.7-8.3,47.9-11.2c10.8-1.9,21.6-3.4,32.4-4.6
		c5.6-0.6,11.2-1.5,16.9-1.3c4.8,0.1,9.6,0.5,14.4-0.8c1.4-0.4,3.1-0.3,4.5,0c3.4,1,6.9,0.8,10.4,0.7c8-0.1,15.9,1,23.8,1.8
		c14.7,1.5,29.1,4.5,43.4,8.1c18.4,4.6,36.2,10.9,53.7,18c12.5,5,24.7,10.6,36.9,16.3c15.1,7.1,29.5,15.3,44.3,22.8
		c0,120.6,0,241.3,0,362c-500,0-1000,0-1500,0c0-92.3,0-184.7,0-277c1.5,0.1,2.4-1,3.5-1.7c10.2-6.8,20.1-14.1,30.4-20.7
		c17.1-10.9,34.7-20.9,52.7-30.3c13.4-7,27.2-13.2,41.1-19.1c20-8.6,40.4-16,61.5-21.7c15.4-4.1,31-7,46.8-8.5
		c1.8,0.2,3.4,0.1,5-0.9c6.7-0.1,13.3-0.2,20-0.2c5.3-1.6,10.7,0.6,16,0c4.3,0.1,8.7,0.1,13,0.2c1.7,0.3,3.3,0.6,5,0.9
		c2.4,0.1,4.8,0.2,7.2,0.3c0,1.2-0.5,2.2-1.1,3.2c-15.5,26.2-29.1,53.4-41.7,81c-4.1,9.1-8.5,18-11.5,27.5c-1.4,1.7-2,3.8-2.8,5.8
		c-7.8,19.8-14.8,40-21.3,60.3c-4,12.5-7.7,25.2-9.3,38.3c-2.2,17.8,0.8,34.2,12.9,48.2c5.5,6.3,11.6,12,18.8,16.4
		c12.2,7.5,24.8,14.3,37.9,20.1c5.5,2.4,11.2,4.1,17.2,5.1c9.7,1.7,19.5,2.8,29.2,3.7c3.8,0.4,7.7,0.2,11.5,0.1
		c11.4-0.3,20.9-4.8,28.8-13.1c6.5-6.8,12.1-14.2,17.2-22.1c15.8-24.4,28.8-50.3,41.6-76.3c0.2-0.4,0.3-1,0.4-1.4
		c3-3.9,4.4-8.5,6.5-12.9c14.8-30.9,28.8-62.1,40-94.5c2.9-8.4,5.9-16.9,7.5-25.8c0.5-1.3,1-2.7,1.6-4c8.7,3.2,17.5,6.3,26.2,9.5
		c20.4,7.5,41.1,14,62,19.7c18.8,5.1,37.9,9.4,57.1,12.5c6.6,1.1,13.3,3.1,20.2,2.4c0.6,0,1.3,0,1.9,0c0.4,0.3,0.8,0.7,1.2,0.7
		c9.6,0.9,19.2,2.6,28.9,2.2c5,1.1,10,1.1,15,0.9c6.7,0,13.3,0,20,0c4.7,0,9.4,0.6,14-0.9c3.2,0,6.3,0.2,9.5-0.1
		c4.2-0.4,8.5-0.5,12.6-1.8c0.6,0,1.3,0,1.9-0.1c2-0.1,4-0.1,6-0.2c6.5-1.4,13.1-1.6,19.7-2.7c10.6-1.9,21.1-4,31.6-6.4
		c25.7-5.8,51-13.4,75.9-22c22.9-7.9,45.5-16.6,67.9-25.8c4.6-1.9,9-4.3,14-5.1c2,4.2,1.9,9.1,4,13.3c0.8,5.6,2.7,11,4.4,16.3
		c11.4,35.7,26.9,69.8,42.8,103.6c2.1,4.5,4,9.1,6.8,13.3c0.1,1.7,1.1,3.1,1.8,4.6c3.6,7.3,7.2,14.6,11,21.9
		c9.3,18.2,19.1,36.2,30.4,53.3c5.2,7.8,10.7,15.3,17.5,21.7c5.7,5.4,12.1,9.4,20,10.6c6.3,0.9,12.5,1.7,18.9,0.8
		c4.4-0.6,8.9-1.1,13.4-1.4c16.3-1.3,31.7-5.5,46-13.7c6.2-3.5,12.5-6.9,18.9-10.3c8.8-4.7,16.3-10.9,23-18.2
		c9.8-10.5,14.8-23.1,15.1-37.5c0.2-9.7-1.3-19.3-3.6-28.6c-5.8-22.9-13.8-45.2-21.9-67.3c-2.6-7-4.8-14.2-8.4-20.7
		c0-1.4-0.7-2.6-1.2-3.8c-5.3-12.5-10.8-25-16.6-37.3c-11.9-25.3-24.8-50-39.2-73.9c-2.7-4.5-6.1-8.7-8.2-13.6
		C1146,1096.4,1146.1,1095.8,1146.1,1095.2z"/>
	<path class="st1" d="M838.7,593c1.6-2.9,1.5-3.1-1-3.2c-1.7,0-3.3,0.1-5,0c-4.9-0.5-4.9-0.5-7,3.6c-7.4,14.4-17.5,26.5-30.1,36.5
		c-5.9,4.7-11.9,9.5-19.3,11.9c-1.4,0.5-2.1,1.5-2.7,2.7c-6.1,11.4-14.4,21.1-24.2,29.4c-8.4,7.1-18,11.1-29.3,11.5
		c-16.4,0.6-29.7-5.9-41.5-16.5c-7.3-6.6-13.5-14.1-18-22.8c-1.8-0.2-2.4,1.2-3.3,2.1c-8.3,8.7-17,16.9-26.9,23.7
		c-11,7.5-22.8,12.3-36.8,10.4c-7.7-1-13.8-4-19.1-9.3c-6.2-6.2-11.6-13.1-16.3-20.5c-4.4-6.9-4.4-6.9-10.2-1.4
		c-7.1,6.7-14.3,13.4-22.6,18.7c-14.9,9.5-30.3,10.5-46,2.1c-6.3-3.3-11.7-7.9-17.2-12.4c-0.8-0.6-1.5-1.2-2.4-1.8
		c-1.7-1.2-3-1.1-4.8,0.3c-4.8,3.7-9.5,7.6-14.6,10.8c-6.2,3.8-12.5,7.5-19.3,9.8c-7.2,2.4-14.9,2.4-22.5,2.4
		c-12.9-0.1-21.6-6.3-27.9-17.2c-3.3-5.7-5.7-11.7-7.9-17.9c0.1-0.7-0.1-1.4-0.9-1.4c-0.9,0-1.4,0.6-1.7,1.4
		c-4.2,3.6-8.4,7-12.5,10.7c-10.1,9.2-21.7,15.8-34.7,20.3c-14.6,5-29.3,5.2-44,1.7c-8.4-2-14.6-8-19.8-14.8
		c-6.1-7.9-10-17.1-11.7-26.7c-2.7-15.1-3-30.4-0.1-45.7c1.4-7.5,2.5-15.2,5.3-22.3c4.2-10.7,8.3-21.3,14.1-31.3
		c5.8-9.9,12.2-19.3,20.4-27.3c11.7-11.2,25-19.5,41-23c12.6-2.7,24.5-1.4,35.5,5.5c8.2,5.1,12.4,13,13.4,22.3
		c1.9,18.7-5.6,33.3-21,43.8c-6.8,4.6-14.8,5.8-22.9,4.5c-2.3-0.4-4.4-1.5-6-3.3c-0.9-1-1.6-2.3-2.6-3c-6.2-3.8-4.4-9.7-4.1-15.2
		c0.2-2.7,4.3-4.7,7.6-4c2.2,0.5,4.4,1.4,6.6,2.1c1.7,0.5,3.5,1.3,5.2,1.5c3.6,0.5,6.6-0.2,9.7-2.6c5.8-4.6,8.4-10.7,10.1-17.5
		c1.5-5.9-2.9-14.5-8.1-16.9c-3.5-1.6-6.9-0.8-10.2,0.3c-9.4,3.1-17.6,8.2-24.7,15c-11.9,11.3-20.5,24.7-26.6,39.8
		c-7.4,18.7-10.2,38.1-8.8,58.1c0.5,6.4,1.4,12.8,3.6,19c5.3,15,17.9,22,33.4,18.5c11.1-2.5,20.9-7.6,30-14.3
		c5.8-4.2,10.7-9.4,15.7-14.5c1.8-1.7,2.6-3.8,3.1-5.9c4.9-18.2,13.6-34.3,27.2-47.3c10.8-10.4,23.9-16.3,39.3-15.9
		c4.2,0.1,8.2,1.2,11.8,3.3c8,4.6,11.2,13,8.4,22.9c-4.3,15.1-13.3,26.7-27.1,34.5c-7,4-14.3,6.8-22.4,7.6c-1.9,0.2-2.8,0.9-2.4,2.8
		c1.9,9.8,5.1,18.9,13.9,24.8c5,3.4,10.6,3.6,15.8,1.6c11.4-4.2,21.4-11.1,30.6-19c2.7-2.3,5.8-4.2,8.2-7c1.7-1.9,2.4-3.6,2.4-6
		c0-15.2,2.8-30.1,5.2-45.1c2.9-17.8,10.1-33.8,18.2-49.6c6.4-12.4,13.8-24.1,24.2-33.6c6.6-6,13.9-10.9,23-12.5
		c9.8-1.8,18.4,2.4,22.3,11.6c3,6.9,3.7,14.2,2.7,21.5c-2.5,19.5-9.5,37.5-19.2,54.5c-6.8,12-14.8,23.2-23.3,34
		c-5.2,6.5-11,12.5-17.1,18.1c-2.1,1.9-3.1,4-3.4,6.8c-0.7,5.3-0.2,10.2,1.8,15.1c3.7,9.2,15.1,11.4,21.8,8.5
		c7.5-3.2,13.1-8.8,18.5-14.7c6.2-6.7,10.2-15,16-22c0.4-0.5,0.6-1.2,0.7-1.8c2.3-13.2,9.4-23.9,17.4-34.3
		c7.1-9.2,15.5-16.6,26.2-21.2c7.2-3.1,14.7-5.1,22.7-3.8c11.2,1.7,19.1,10.5,19.8,21.7c0.6,9.4-3.1,17.1-8.7,24.2
		c-8.5,10.7-19.7,17.9-32.2,23.1c-2.6,1.1-5.1,2.3-7.8,2.9c-1.9,0.4-2.7,1.6-2.7,3.6c-0.1,5.4,0.7,10.6,3.1,15.5
		c4,7.9,11,11.4,19.8,9.7c7.7-1.5,14.2-5.7,20.5-10.2c8.1-5.8,15.3-12.6,22.3-19.8c1.1-1.1,1.5-2,1.4-3.4
		c-0.6-14.6,1.6-28.8,3.9-43.2c2.3-14.3,6.7-27.8,12.5-40.9c5.4-12.2,11.3-24.3,20.2-34.4c8.5-9.6,17.2-19,30.3-22.9
		c14-4.2,27.3,1.5,33.3,12.1c4.9,8.7,4.8,18.1,2.5,27.6c-3.6,14.9-11.3,27.9-20,40.3c-13.5,19.1-28.9,36.5-45.2,53.1
		c-2,2-2.2,3.8-1.8,6.6c1,7.3,2.4,14.4,5.4,21.1c2.4,5.4,5.8,10.1,10.6,13.6c5.7,4.2,11.9,5,18.3,1.8c3-1.5,6.5-2.6,8-6.2
		c-1.4-2.5-4.3-1.2-6.2-2.7c-5.7-4.4-10.6-9.5-12.9-16.3c-1.3-4-1.5-8.5-1.4-12.8c0.3-11.5,3.8-21.9,11.2-30.9
		c6-7.3,13.2-11.9,22.3-14.3c12.2-3.3,29,3.7,33.1,19.1c1.5,5.5,2.3,11,2.3,16.7c0,2.8,0.2,5.7,0.3,8.5c-0.2,0.6-0.4,1.4,0.5,1.4
		c0.7,0,1.1-0.5,1-1.3c3.6-3.4,7.3-6.9,10.4-10.7c4.9-5.9,9.9-11.9,13.5-18.9c0.3-0.6,0.5-1.2,0.8-1.8c2-3.7,2-3.7-1.4-5.7
		c-2.2-1.3-3.6-3.4-5-5.4c-5.9-8.1-6.6-17.2-5-26.5c1.5-8.5,12.3-14,21.1-11.7c12.1,3.2,19.3,16.2,17.1,27.9c-1.1,6-0.3,5.4,4.6,5.7
		c6.5,0.5,11.4-2.7,15.9-6.7c3.8-3.4,7.8-6.6,12.5-8.6c4.5-1.9,9.1-3,14-2.1c7.9,1.5,10.6,6.6,7.3,13.9c-2,4.4-4.7,8.4-7.5,12.3
		c-5.8,8.3-11.5,16.6-15.9,25.7c-5.7,11.9-8.4,24.4-8.4,37.5c0,8,2.4,9.6,10.2,7.4c10-2.9,18.7-8.5,27.9-13.1
		c4.2-2.1,6.2-4.9,6.6-9.6c0.9-11.7,5-22.5,9.4-33.2c3.9-9.3,8.1-18.5,15-25.9c5.1-5.4,9.8-11.4,16.8-14.8c11-5.4,21.9-5.4,33-0.8
		c6.2,2.6,11.6,6.4,16.6,10.8c2.2,2,2.9,5,1.8,7.7c-1,2.4-2.7,3.4-6.1,3.3c-1.3,0-2.6-0.3-3.9-0.6c-2.3-0.5-4.5-1.1-6.8-1.7
		c-12.4-3.4-23.3-0.3-31.9,9c-14.1,15.3-19.7,33.4-15.8,54c2,10.7,8,12.7,16.6,6.1c5.1-3.9,9-8.9,12.7-14c5.5-7.7,10.2-16,14.7-24.4
		c2.5-4.7,5.1-9.4,8.4-13.6c3.7-4.8,8.5-7.8,14.9-8c6.6-0.2,11.1,2.9,13.8,8.7c2.1,4.6,2.8,9.6,2.8,14.6c0.1,14,0.3,28,0.5,42
		c0,1.7-1,4.1,1.1,4.9c1.8,0.8,3.4-1,4.8-2.1c13-9.4,22.4-21.7,28.8-36.4c5.3-12.3,8-25.4,9.8-38.6c1.7-11.9,3.2-23.8,4.7-35.6
		c0.1-1,0.5-2-0.1-3.3c-2.2-0.2-3.8,1.4-5.5,2.4c-9.1,5-18.7,8.9-28.9,10.9c-7.8,1.5-15.5,1.2-23-2.2c-4.5-2.1-8-5.4-11-9.2
		c-1.3-1.6-2.3-3.5-2.1-5.9c0.2-1.8-0.2-3.6-0.3-5.5c-0.5-15,6.7-25.6,18.8-33.6c13.1-8.7,27.7-12.1,43.1-12.5
		c7.7-0.2,15.3,1.1,22.3,4.3c10.8,4.8,17.1,13.4,19.9,24.6c0.7,2.6,1.8,4,4.3,4.7c7.4,2,14.9,3,22.6,3.3c8.9,0.3,16.5-2.7,23.3-8.1
		c0.5-0.4,0.9-1,1.5-1.3c2.3-1.3,4.7-3,7.3-1.1c2.5,1.9,3,4.7,2.2,7.6c-2.1,7.7-6.7,13.4-13.6,17.5c-6,3.6-12.5,5-19.3,5.2
		c-7.5,0.3-15,0.1-22.3-1.9c-2.4-0.6-4.9,0-7.2-1.5c-0.8-0.5-1.5,0.3-1.6,1.3c-0.1,0.7,0,1.3,0,2c0.6,22.6-2.8,44.7-8.7,66.5
		c-2.2,8.1-4.6,16.2-6,24.6c-1,6.1-1.4,12.3,0.2,18.3c1.2,4.7,3.9,5.8,8.1,3.1c5.5-3.5,10.5-7.6,15.4-12.1c4-3.6,6.4-8.5,10.7-11.6
		c1.3-1,1.1-2.3,1.2-3.6c0.4-4.6,0.2-9.4,1.4-13.9c1.6-5.8,4.1-11.4,7.3-16.6c3.3-5.5,7.1-10.8,11.5-15.3
		c12-12.3,26.1-20.3,43.9-18.6c13.3,1.3,24.1,10.4,25.5,25.5c0.4,3.9-0.8,7.6-2.3,11.1c-2.4,5.6-5.8,10.5-10.5,14.3
		c-6.6,5.4-13.9,9.5-22.1,11.9c-5.9,1.8-11.8,3-18,3.3c-2.1,0.1-3.2,0.7-2.7,3c2.4,9.3,6.6,17.3,15.6,22c5.1,2.7,10.3,3.2,15.8,1.3
		c6.9-2.3,12.7-6.3,17.2-11.9c3.2-4,5.9-8.3,8.2-12.9c1.7-3.5,4.8-5.2,8-4.5c3.3,0.7,5.6,3.5,6,7.1c0.3,3.3-0.9,6.2-2.2,9.1
		c-3.1,7-7.6,13.2-12.8,18.9c-5.8,6.4-11.7,12.6-19.6,16.6c-5.2,2.6-10.4,4.9-16.3,5.1c-6.6,0.3-13.3,0.8-19.7-1.1
		c-6.2-1.8-11.8-4.4-16.2-9.6c-3.3-3.9-7.4-7-10-11.5c-1.3-2.2-2.2-4.7-3.8-6.8c-2,0.5-2.7,2.1-3.7,3.3
		c-6.9,8.2-13.6,16.5-22.4,22.7c-8.3,5.8-17.3,8-27,3.2c-5-2.5-8.3-6.7-11-11.2c-2.4-3.9-4.1-8.2-5.9-12.5c-1.3-3-2.5-3.5-4.1-1
		c-3.3,5.1-7.9,9-12.3,13c-8.8,7.9-19,12-30.9,10.3c-4.9-0.7-8.8-4-12-8c-6.6-8.1-8.1-17.7-8.9-27.7c-0.2-3-0.4-6-0.5-9
		c0.2-0.7,0.8-1.8-0.3-1.9c-0.7-0.1-1.2,1-1.2,1.9c-3.4,5.7-6.6,11.4-10.2,17c-4.8,7.5-10,14.8-17.1,20.6
		c-6.9,5.7-14.6,6.5-22.7,4.2c-3.8-1.1-7-3.8-9.9-6.3c-3.7-3.3-7.7-6.5-10-11c-1-1.8-2.2-1.5-3.7-0.7c-4.1,2.1-8.3,4.1-12.4,6.2
		c-6.8,3.5-14.1,5.6-21.3,8c-7.8,2.6-15.8,3.6-23.8,4.8c-9.3,1.3-14.5-2.1-17.5-12.2c-2.3-7.6-2.7-15.7-2-23.6
		c1-11.8,2.7-23.5,5.8-35c0.9-3.2,2.4-6.3,2.9-9.7C838.3,593.8,838.5,593.4,838.7,593z M590,609c0.9,0.3,1.6,0,2.4-0.4
		c7.9-4.4,15-9.7,21.1-16.4c1.6-1.7,2.9-3.7,3.8-5.8c0.6-1.4,1.1-2.8,1.4-4.2c0.7-3.8-1.2-5.3-4.8-4.2c-2.4,0.8-4.4,2.3-6.3,4
		c-6.8,6-11.8,13.4-15.6,21.6C591.1,605.3,589.7,606.9,590,609c0,0.1-0.2,0.1-0.3,0.2c-0.1,0,0,0.2,0,0.3
		C589.8,609.3,589.9,609.1,590,609z M495.6,599.8c2.6,0.2,4.1-1.2,5.6-2.4c3.1-2.5,5.9-5.5,8.3-8.6c12.8-16.4,23.2-34.1,29.9-53.9
		c2.8-8.2,4.9-16.6,4.6-25.4c-0.1-2.5-0.5-5-1.4-7.3c-1.8-4.7-5.5-5.8-9.5-2.8c-2.8,2.1-5.1,4.8-7.1,7.7c-2.7,4-4.9,8.3-7.1,12.6
		c-9.4,19.1-15.3,39.3-20.1,60C497.4,586.3,496.1,592.9,495.6,599.8z M693.1,587.5c1.1,0.4,1.6-0.1,2.1-0.5
		c18.1-16.3,32.2-35.4,40.3-58.6c1.9-5.4,2.8-11,2.5-16.7c-0.2-3-0.7-6-2.1-8.7c-2.3-4.6-5.6-5.4-9.7-2.3c-2,1.5-3.6,3.4-5.1,5.4
		c-4.4,5.9-7.9,12.3-10.9,19c-7.1,16.2-12.1,33.1-15.8,50.4C693.6,579.5,692.5,583.5,693.1,587.5z M1022.2,533.3
		c2.9-0.2,5.8-0.4,8.8-1c11.7-2.7,22.7-7.6,34-11.4c2-0.7,2.7-2,3.1-4c1.1-5.2,1.7-10.5,2.3-15.8c0.5-4.4,0.4-4.6-3.9-4.8
		c-8.1-0.4-16.3-0.4-24.4,0.9c-9.2,1.4-17.7,4.5-25.3,9.9c-3.8,2.7-7.2,6-9.1,10.4c-2.9,6.6,0.1,12.9,6.9,15.1
		C1017.1,533.3,1019.6,533.2,1022.2,533.3z M749.9,611.4c0.2-2.7-0.3-5.3-1-7.9c-2.3-8.4-9-10.4-15.4-4.5c-4.3,4-6.6,9.1-7.4,14.8
		c-1.4,9,5.8,17.5,14,19.9c3.1,0.9,4.1,0.4,5.5-2.6C748.4,624.9,749.6,618.3,749.9,611.4z M1178.1,575.2c-2.5,0.3-5,1.5-7.2,3.4
		c-8.4,7.2-13.9,16.4-18.2,26.5c-1.3,3.2-0.2,4.3,3.3,3.7c0.7-0.1,1.3-0.3,1.9-0.6c9.8-3.5,17.9-9.4,23.9-18c1.6-2.3,2.7-5,3-7.8
		C1185.2,578.2,1182.5,575.1,1178.1,575.2z M419.9,584.5c0-3.2-0.2-5.6-2.5-6.9c-2.2-1.2-4.2,0-6.1,1c-2.5,1.4-4.5,3.3-6.2,5.7
		c-4.7,6.4-8,13.4-10.2,21c-0.6,2.1-1.6,4.4,0.5,6c1.9,1.4,3.9-0.1,5.5-1c8.8-5.1,15.2-12.3,18.3-22.1
		C419.6,586.8,419.8,585.3,419.9,584.5z M817.1,564.1c0.1-3.2-0.4-5.7-1.7-8.1c-0.6-1.2-1.5-2.3-3-2c-1.5,0.3-2,1.7-2.2,3
		c-0.5,3.1,0.4,5.9,2.4,8.2c0.9,1.1,2,2.8,3.5,2.3C817.8,566.9,816.9,564.9,817.1,564.1z M873.4,567.7c-4.1,1-7.3,3.5-10.5,6.1
		c-0.7,0.5-1.3,1.2-0.8,2.1c0.5,0.9,1.4,0.6,2.2,0.4C868.6,574.8,871.7,572.1,873.4,567.7z"/>
	<path class="st2" d="M536.1,204.4c0.4,16.2-4,31.9-10,47.1c-8.9,22.7-21.7,43.2-37,62.2c-10.2,12.6-21.8,23.8-33.5,34.9
		c-6.7,6.4-14.4,11.7-21.7,17.4c-1.7,1.3-2.9,2.6-3.3,4.7c-2,9.7-2.8,19.5-0.4,29.2c1.9,7.5,5.6,14.2,12.6,18.5
		c5.5,3.4,11.4,4.5,17.6,2.5c10.4-3.3,19.6-8.7,28.3-15.1c6.3-4.6,12.1-9.9,17.6-15.4c2.9-2.9,5.7-5.9,9.4-8.1
		c1.9-1.1,3.7-3.1,4.8-5.5c1.1-2.3,3.3-4.1,5.2-6c4.2-4.3,6.1-9.8,8-15.2c4.9-13.9,12.3-26.3,21.2-38c7.6-10,16.3-18.7,26.7-25.8
		c8.9-6.1,18.4-10.7,29-12.2c13.5-1.9,26.6-0.7,38.2,7.5c10.9,7.7,14.7,18.7,11.2,32c-3.5,12.9-12,22.5-21.9,30.8
		c-15.9,13.4-34.3,22.7-53,31.2c-1.9,0.9-2.9,2.1-2.9,4.2c-0.3,12,2.6,23.1,10.2,32.5c3.9,4.8,9.2,7.2,15.7,7.5
		c10.7,0.5,19.7-4,28.4-9.2c7.9-4.7,14.6-10.8,21.2-17.1c6.1-5.9,11.6-12.4,18.4-17.5c2.4-1.8,5-3.3,8.1-3.5
		c4.3-0.2,7.2,1.7,8.8,5.7c2.3,5.8,0.1,11.1-2.1,16.3c-3.4,8.4-8.9,15.6-14.9,22.3c-8.3,9.3-17.6,17.7-28,24.6
		c-12.8,8.5-26.3,15.6-41.4,18.7c-8.6,1.8-17.4,1.8-26.3,0.8c-9.5-1.1-17.3-4.9-24.9-10.2c-6.5-4.5-10.4-11-14.5-17.5
		c-5.6-8.7-9.5-18.1-12-28.2c-1-4.1-2.7-4.6-5.6-1.4c-6.4,6.8-13.5,12.8-20.3,19.2c-13.2,12.4-27.7,22.7-44.4,29.8
		c-10.1,4.3-20.5,5.4-31.6,4.4c-16.6-1.4-27.1-11.2-36.1-23.6c-5.2-7.2-8.7-15.2-11.9-23.4c-1.6-4-2-4.1-5.8-2.1
		c-2.2,1.1-4.4,2.3-6.6,3.4c-5,2.6-10.3,2.5-15.6,2.2c-4.4-0.3-6.9-3.4-7.3-7.9c-0.4-5.1,2.1-8.9,5.2-12.5c4.2-4.8,9.3-8.6,14.6-12
		c5.9-3.8,7.9-8.1,7.6-15.1c-1.1-21.2,2.9-42,6.2-62.8c2.6-15.9,7.1-31.1,12.5-46.2c4.7-12.9,10.2-25.4,17-37.5
		c6.1-10.8,12.5-21.5,19.9-31.5c11.9-16.1,25.7-29.8,44.1-38.5c7.3-3.4,15-5.7,23-5.8c15.4-0.2,27.2,6.6,34.7,20.2
		C534.5,180.2,536.3,191.9,536.1,204.4z M429,334.4c0.9-0.2,1.5-0.2,1.9-0.5c2.2-1.5,4.4-3,6.4-4.7c11.5-9.9,22.1-20.7,32.2-32
		c13.5-15.2,24.5-32,33-50.3c6-13.1,10.5-26.6,9.7-41.3c-0.3-4.9-1.3-9.6-3.6-13.9c-4.7-9-14.6-13.8-25.3-7.7
		c-2.3,1.3-4.5,2.9-6.4,4.7c-5,4.8-8.7,10.5-11.9,16.6c-8.5,16.1-14,33.4-18.9,50.9c-6,20.9-10.8,42.1-14.7,63.5
		C430.5,324.4,429.8,329.3,429,334.4z M581,356c19-4.8,35.4-12.5,47.6-27.4c3.7-4.5,6.7-9.5,6.4-15.8c-0.2-5.1-2.8-8.4-7.8-9.5
		c-2.5-0.5-4.9-0.4-7.4,0.3c-5.7,1.6-10.5,4.9-14.8,8.9c-9,8.5-15.4,18.7-20,30C583.4,346.6,581.3,350.6,581,356z"/>
	<path class="st2" d="M1186.2,327c-7.2-3.2-13.3-8-19.1-13.3c-10.7-9.8-19.7-21-27.8-33c-6.7-9.9-12.6-20.3-17.8-31
		c-4.6-9.5-8.3-19.4-11.9-29.4c-6.4-17.7-11.5-35.7-15.9-54c-1.8-7.6-2.7-15.2-3.6-22.9c-0.7-5.6-1.2-11.2-1.1-16.9
		c0-7.3,1-14.6,1.8-21.8c0.7-6.8,2.2-13.3,4.3-19.8c3-9.7,8.3-18,14.6-25.8c5.2-6.5,11.2-12.1,18.6-16.2c7.6-4.3,15.7-7.2,24.2-8.7
		c24.6-4.4,46.8,1.6,66.6,16.6c8.2,6.2,14.1,14.6,18.7,23.7c7.4,14.4,12.6,29.5,15.4,45.5c1.6,9.3,2.6,18.7,3.2,28.2
		c1.2,17.4-1.2,34.4-4.7,51.4c-4.3,21.3-10.3,42.1-17.5,62.6c-5.1,14.6-10.9,28.9-17.2,42.9c-2.5,5.6-6.1,10.7-9.4,15.8
		c-2.3,3.5-6.3,4.6-9.4,7.1C1194.1,326.6,1190.1,327.3,1186.2,327z M1106,136.2c-0.3,11.6,1.8,23.9,4.7,36
		c4.3,18.1,11.5,35,19.3,51.7c0.4,0.9,0.8,1.9,1.5,2.6c1.4,1.6,3,2.6,5.3,1.8c2.4-0.8,3.4-2.4,3.3-4.9c0-2.1-0.9-3.9-1.7-5.7
		c-5.6-12.4-11.1-24.9-15-38c-4.3-14.2-7-28.7-7.3-43.6c-0.2-8.2,0.8-16.3,2-24.3c2.5-16.2,8.9-30.6,20.6-42.3
		c1.3-1.3,2.6-2.6,3.1-4.5c1.1-3.5-1.1-6.3-4.8-6.3c-1.8,0-3.1,0.8-4.4,2.1c-10,10.1-17.5,21.8-21.4,35.5
		C1107.6,109.1,1105.9,122.1,1106,136.2z M1165.1,50.1c-2.9-0.1-5.7,0-8.4,1.2c-1.9,0.8-3.5,2.2-3.4,4.5c0.1,2.3,1.5,4,3.9,4.7
		c1.1,0.3,2.3,0.4,3.4,0.4c2.2,0,4.3-0.1,6.5,0c12.3,0.5,22.9,4.9,31.9,13.4c10.1,9.6,16.2,21.4,20,34.5c0.9,3.2,1.7,6.4,2.7,9.6
		c1,3.2,3.3,4.8,5.7,4.3c3.1-0.7,4.6-3.4,3.9-6.9c-3-13.9-7.9-27-16.3-38.8C1202.7,59.8,1185.9,51.3,1165.1,50.1z M1151.9,250.6
		c-1.4-3.5-2.6-7.3-4.9-10.6c-1.2-1.6-3.3-2.5-5.4-1.6c-2,0.9-3.9,2.5-3.4,5c0.8,4.1,2.4,8,5.1,11.3c1.3,1.6,3.1,2.5,5.3,1.4
		C1150.9,255,1151.7,253.2,1151.9,250.6z M1236,142.9c-0.2-1.4-0.5-3.5-1-5.6c-0.6-3.1-2.2-4.4-5-4.4c-2.8,0-4.4,1.5-4.8,4.6
		c-0.4,2.5,0.3,4.9,0.9,7.3c0.8,3.1,3.1,5.1,5.4,4.9C1233.9,149.6,1235.9,146.8,1236,142.9z"/>
	<path class="st2" d="M260.9,341.4c-7.8-3.3-12.4-9.7-16.2-16.9c-10.2-19.7-17.8-40.5-24.6-61.6c-4.1-12.7-8.6-25.4-11.4-38.5
		c-2.1-9.4-3.1-18.9-4.7-28.3c-1.7-9.9-2-19.8-2-29.8c-0.1-11,1.9-21.8,3.3-32.7c1.2-9.2,3.4-18.1,6.7-26.8
		c4.5-11.6,9.3-23,17.1-32.9c7-8.9,15.9-15.2,26.2-19.9c9-4.1,18.5-6.4,28.2-7.7c8.4-1.1,16.6,0,24.7,1.9c12.3,2.8,23.6,8,32.9,16.7
		c9.2,8.6,16.5,18.7,20.8,30.6c4,11.1,6.3,22.6,7.3,34.4c1.3,15.1-0.8,29.7-3.9,44.4c-3.7,17.4-8.4,34.4-14.2,51.2
		c-4.7,13.6-9.4,27.3-16.1,40.1c-8.3,15.9-17.4,31.3-29.1,45c-7.9,9.2-16,18.2-26.2,25c-2.8,1.8-5.6,3.6-8.9,4.3
		C267.6,341.5,264.1,340.6,260.9,341.4z M352.9,148c-1.2-5.9-1-12.9-1.7-19.8c-2-18.1-8.7-34.1-20-48.2c-2.2-2.7-4.5-5.4-7.6-7.2
		c-2.2-1.2-4.1-0.9-5.9,0.9c-1.7,1.8-2.1,3.6-0.7,5.8c1.2,1.8,2.6,3.5,4.1,5c5.8,5.7,9.8,12.6,13.1,19.9c4.1,9,5.8,18.6,6.9,28.4
		c1.4,12,1.4,23.9-0.4,35.8c-2.6,17.5-8.3,34.2-15.3,50.4c-2.3,5.2-4.5,10.4-6.8,15.6c-1,2.3-0.7,4.3,1,6c1.4,1.4,3.3,1.7,5.1,1.1
		c1.9-0.6,2.8-2.2,3.6-3.9c6.6-15.1,13.4-30.1,17.8-46C350.1,177.8,352.1,163.5,352.9,148z M293.3,64c-3.7-0.4-7.4,0.3-11.2,1
		c-11.9,2.4-22.2,7.7-30.9,16.3c-9.5,9.5-15.8,20.9-20.2,33.5c-1.6,4.7-2.9,9.6-3.9,14.4c-0.8,3.7,0.8,6.1,3.5,6.7
		c2.8,0.6,5.1-1,6.3-4.3c0.5-1.4,0.8-2.9,1.1-4.3c2.9-11.7,7.4-22.8,14.9-32.4c6.4-8.1,14-14.7,24.1-17.9c7.2-2.3,14.5-3.5,22.1-3
		c3.8,0.2,5.8-1.6,5.8-4.6c0-2.8-2.2-5-5.5-5.3C297.5,63.9,295.5,64,293.3,64z M319.9,258c0.2-3.3-0.8-5.1-2.9-5.7
		c-1.9-0.6-4.2-0.8-5.5,1.2c-2.2,3.3-4,6.9-4.6,11c-0.4,2.4,0.5,4.4,2.8,5.3c2,0.8,4,0.3,5.4-1.4C318,264.9,319,260.9,319.9,258z
		 M233.6,152.4c0-3.2-2-5.9-4.7-6.2c-2.4-0.2-4.9,1.8-5.6,4.7c-0.5,2.2-0.7,4.5-0.9,6.8c-0.1,2.3,1.8,4.7,3.9,5.1
		c2.4,0.6,4.3-0.5,5.7-2.9C233.4,157.6,232.7,154.8,233.6,152.4z"/>
	<path class="st2" d="M708.3,150.9c20.5-0.5,38.3,5,55.1,14c14,7.4,21.6,19.8,25.4,34.7c1.1,4.2,3.2,5.7,7,6.4
		c11.3,1.9,22.5,4.1,33.9,5.6c5.3,0.7,10.8,2,16.3,0.6c6.3-1.6,10-5.3,11-11.8c0.4-2.8,4.1-4.8,7.8-4.2
		c10.4,1.7,13.7,10.4,11.8,18.4c-3.3,14.7-17.1,22.7-28.7,23.6c-9.2,0.8-18.2-1.3-27.3-1.3c-4.7-2.8-10.4-1.4-15.4-3.4
		c-3.3-1.3-7.2-1.1-10.8-1.5c-1.2-0.1-2.3,0-3.5-0.2c-5.5-0.6-5.7-0.7-6.6,4.6c-2,11.9-4.1,23.9-5.4,35.9c-1,8.9-2.4,17.8-3.6,26.6
		c-1.1,8.4-2.1,16.8-3.3,25.2c-1.5,11.2-3.3,22.3-4.6,33.5c-0.9,7.7-1.9,15.5-2.5,23.3c-0.7,8.1-0.9,16.3-0.9,24.4
		c0,5.5,0.8,11,2.1,16.3c2.3,9.1,6,9.1,12.8,4.8c6.7-4.3,11.4-10.6,16.3-16.6c7.9-9.7,13.9-20.6,20.8-30.9c4.2-6.3,9.1-11.8,14.5-17
		c0.7-0.7,1.5-1.4,2.3-1.8c3-1.6,6.2-2.2,8.9,0c2.6,2.1,3.5,5,2.7,8.5c-2.1,9.2-6.5,17.4-11.3,25.4c-6.6,11-13.8,21.6-21.8,31.5
		c-9.4,11.6-19.1,23-31.8,31.3c-7.8,5.1-16,9.5-25.5,10.5c-11.8,1.2-20.9-1.3-28.1-11.7c-5.5-7.9-8.3-16.7-9.3-26.3
		c-0.9-9.6-2.2-19.2-1.7-28.8c0.5-9.8,1.4-19.5,2.5-29.3c1.8-16,5-31.8,7.4-47.7c1.1-7.4,2.9-14.6,3.2-22.2c0.1-2.3,1.6-4.6,1.9-7.2
		c0.5-5.1,0.8-10.3,2.1-15.2c1.3-5.1,2.3-10.3,3.1-15.6c1.5-9.7,2.9-19.4,4.3-29c0.3-2.3-0.9-2.6-2.7-2.2
		c-6.1,1.4-12.2,2.9-18.3,4.4c-9.6,2.4-19.1,5.5-28.8,7.2c-11.8,2.1-23.7,3.3-35.8,2.2c-7.1-0.6-14.2-1.4-20.4-5.6
		c-10.9-7.4-14.8-17.9-13.7-30.6c1.2-14.7,8.2-26.6,19-36.1c10.3-9.1,22.6-15.1,35.9-18.5C686.3,152.2,697.8,150.7,708.3,150.9z
		 M711.8,169.9c-5.5,0-10.1,0.2-14.8,1.1c-15.2,3.1-29.1,9.2-41.6,18.5c-5.7,4.3-9.7,10-11.7,17c-2.6,9,2.9,17,12.1,18.7
		c6.6,1.2,12.9,0.3,19.3-0.5c12-1.6,23.8-4.4,35.5-7.7c10.9-3.1,21.5-6.9,32-11c1.6-0.6,3.1-1.1,3.3-3.2
		c0.8-11.1-1.7-20.8-11.7-27.3C727.1,170.7,719.2,169.5,711.8,169.9z"/>
	<path class="st2" d="M958.1,371.8c-6.1-5.7-10.9-12.6-14.8-19.8c-5.2-9.4-10.5-18.8-12.5-29.6c-1.5-8.2-2.5-16.4-1.2-24.7
		c0.8-4.7,1.2-9.4,3-14c4.5-10.9,11.8-19.1,21.9-24.8c11.8-6.6,24.5-10.2,38.1-9.7c10,0.4,19.8,2.3,27.8,9.1
		c4.4,3.7,9.8,13.9,6.4,21.6c-2.3,5.3-7.8,11.7-16,10c-2.1-0.4-4-1-4.9-3.6c-2.5-7.6-9.6-9.2-15.9-11.1c-5.8-1.7-13.3,3.6-13.5,11.1
		c-0.2,10,3,18.6,8,26.8c4.9,8.1,10.6,15.7,17.2,22.5c1.6,1.6,3,3.5,4.5,5.3c1.5,1.8,2.6,2.2,4.8,0.4c8.2-6.4,16.8-12.3,26.4-16.6
		c5.9-2.7,11.9-5.1,18.6-4.8c6.2,0.2,11.9,4.6,9.8,12.6c-2,7.6-6.7,13.2-12.6,18.1c-8.1,6.8-17.2,11.8-26.6,16.3
		c-3.9,1.9-3.9,1.9-3,6.3c2.1,10.1,3.6,20.2,3.3,30.6c-0.3,12.1-3.2,23.3-9.2,33.7c-5.9,10.3-13.4,19.3-23.7,25.7
		c-7.4,4.6-15.2,7.8-24,8.8c-11.1,1.3-21.9,0.3-32.3-3.2c-9.6-3.2-17.1-9.2-20.2-19.6c-0.9-2.8-0.5-5.6-0.8-8.4
		c-1-11.7,2.9-22,9-31.9c6.5-10.4,14.4-19.5,23.3-27.8c2.8-2.6,5.8-4.9,8.8-7.3c0.6,0,1.3-0.1,1.5-0.8
		C959.7,372.3,958.8,372.1,958.1,371.8z M967.6,400.2c-10.4,8.3-19.4,17.7-24.9,29.9c-1.1,2.5-2,5.3-1.4,8.2c1,4.6,3.4,8.1,8.1,9.2
		c4.6,1.1,9.2,1,13.2-2.4c3.7-3.2,5.4-7.5,6.4-12.1c2.4-10.4,0.5-20.8-0.3-31.2C968.6,401.3,968.1,401,967.6,400.2z"/>
	<path class="st3" d="M485.5,1180.9c-0.5,1.3-1,2.7-1.6,4c-9-0.7-17.9-1.1-26.8-2.8c-4.2-0.8-4-0.9-3.5-5.2
		c1.7-14.9,0.9-29.5-4.5-43.8c-9.8-25.5-33.1-39.2-60.3-35.6c-16.3,2.1-30.2,9-42.7,19.1c-2.9,2.3-4.9,2.3-7.9,0.8
		c-8.3-4.1-15.8-9.3-23.2-14.6c0.2-0.5,0.3-1,0.6-1.4c11.1-16.7,23.6-32.2,38.6-45.7c16.4-14.7,34.7-26.9,51.9-40.6
		c11.7,13.8,26.7,23.4,42.6,31.5c15.1,7.7,31.2,11.1,48.2,10.2c0,4.3,0,8.6,0.1,13c-0.7,3.6-0.4,7.2-0.4,10.8
		c-0.1,10.7-0.2,21.4-0.3,32.2c-0.4,1.6-0.6,3.3-0.3,5c-0.8,2.6-0.9,5.3-0.7,8c-0.4,1.6-0.7,3.3-0.5,5c-0.6,1.6-0.7,3.3-0.5,5
		c-1,3.5-1.2,7.2-1.6,10.8c-0.4,0.7-0.5,1.4-0.3,2.2C490,1159.7,487.7,1170.3,485.5,1180.9z M411.2,1038.9c-0.1-1.7-2-3.2-4.2-2.6
		c-1.3,0.3-2.4,1.1-3.6,1.7c-20.5,11.9-37.6,27.8-53.8,44.9c-0.2,0.2-0.5,0.5-0.6,0.8c-1.5,2.1-1.5,4.1,0,5.4c1.7,1.5,3.4,1,4.9-0.3
		c1.3-1.1,2.4-2.3,3.5-3.5c12.6-13.1,25.9-25.4,41-35.5c3.3-2.2,6.7-4.3,10.1-6.4C410.1,1042.4,411.2,1041.3,411.2,1038.9z
		 M482.8,1113.5c-0.3,0-0.6,0-0.8,0c0-6,0.1-11.9,0-17.9c-0.1-3-0.5-6-1.1-8.9c-0.3-1.8-1.7-2.9-3.6-2.7c-1.9,0.2-3,1.4-3.1,3.3
		c-0.1,1.1,0,2.3,0.1,3.5c1.4,13.7,1.3,27.5,0.5,41.3c-0.1,1-0.2,2-0.2,3c0.1,2,0.9,3.6,3.1,3.9c2.2,0.3,3.3-1.1,3.9-3
		c0.2-0.6,0.3-1.3,0.3-2C482.1,1127.1,482.5,1120.3,482.8,1113.5z"/>
	<path class="st3" d="M975,1177.3c-2.1-4.2-2-9.1-4-13.3c-1.1-6.2-2.2-12.4-3.3-18.6c-2.9-15.9-4.5-31.9-4.8-48
		c-0.3-15.9-0.5-31.9-0.7-47.8c8.5,0.8,17-0.2,25.2-2.2c25.9-6.4,47.5-20,65.6-39.4c14.4,11,29,21.8,43.2,33.1
		c14.9,11.8,27.7,25.6,38.7,41.1c3,4.3,6.2,8.5,9.3,12.8c-0.2,0.2-0.2,0.5-0.1,0.7c-7.5,4.9-14.8,10.2-22.9,14.3
		c-3.4,1.7-5.6,1.5-8.7-1c-16.1-13-34.2-20.5-55.3-19.1c-12.8,0.8-23.9,5.6-33.2,14.4c-11.9,11.4-17.2,25.9-18.9,41.9
		c-0.9,8.3-0.9,16.6,0.6,24.9c0.4,2.1-0.3,3.1-2.4,3.4c-1.2,0.2-2.3,0.5-3.4,0.7C991.6,1176.2,983.4,1177,975,1177.3z
		 M1111.2,1078.9c0-1.8-1.2-3-2.4-4.2c-4.1-4.1-8.2-8.3-12.3-12.4c-12.2-12.1-25.6-22.7-40.4-31.5c-1.4-0.9-2.8-1.9-4.5-2.1
		c-1.4-0.1-2.7,0.3-3.4,1.6c-0.7,1.3-0.6,2.6,0.2,3.8c0.8,1.1,2,1.7,3.1,2.4c4.1,2.6,8.2,5.1,12.1,7.9c14.2,9.8,26.6,21.6,38.5,33.9
		c1.1,1.2,2.3,2.5,3.7,3.4C1108.4,1083.3,1111.2,1081.7,1111.2,1078.9z M976.2,1106.7c0.3,6,0.6,13.3,1.1,20.6c0.2,2.9,2,4.4,4.1,4
		c2.5-0.4,3.1-2.3,3.1-4.4c0-0.5-0.1-1-0.1-1.5c-1-14.3-1-28.6,0.4-42.9c0.4-3.8-0.6-5.7-2.8-6c-2.4-0.4-3.7,1.3-4.4,5.4
		C976.4,1089.7,977.2,1097.6,976.2,1106.7z"/>
	<path class="st4" d="M712.3,773.3c-0.1,10.9-5.1,19.8-12.1,27.6c-6.6,7.4-14.7,13.2-23.2,18.4c-19.1,11.7-40.2,18.4-61.5,24.6
		c-14,4.1-27.8,8.8-40.7,15.6c-10.5,5.5-20.6,11.7-29.9,19.1c-1.9,1.5-3.8,1.9-6,1.4c-2.7-0.6-3.9-3-2.8-5.5
		c0.4-0.9,0.7-1.9,1.2-2.7c8.2-12.5,16.3-25.1,24.8-37.5c8.2-11.9,17-23.2,26.3-34.2c7.5-8.9,15.1-17.6,23.7-25.4
		c10.4-9.4,21.1-18.7,34.2-24.3c12.2-5.3,24.9-8.6,38.3-6.3c10,1.7,18.7,5.6,24,15C711,763.5,712.4,768.2,712.3,773.3z M651.4,761.9
		c-0.6,0.2-1.7,0.5-2.8,0.9c-15.3,5.6-28.4,14.5-40,25.8c-0.2,0.2-0.5,0.5-0.7,0.7c-1.3,1.6-1.6,3.4-0.2,5c1.3,1.5,3,1.3,4.6,0.4
		c1.3-0.8,2.4-1.8,3.5-2.8c10.2-9.6,21.7-17.1,34.8-22.1c1.2-0.5,2.5-1,3.6-1.7c1.3-0.9,2-2.2,1.4-3.9
		C654.9,762.5,653.7,761.8,651.4,761.9z M689.5,764.7c0-0.9-0.2-1.7-0.8-2.3c-2.3-2.2-5.3-3.4-8.4-4c-1.3-0.3-2.6,0.6-3.2,1.9
		c-0.6,1.5-0.4,3,0.9,4.1c2.2,1.8,4.9,2.9,7.6,3.4C687.6,768.2,689.4,766.5,689.5,764.7z"/>
	<path class="st4" d="M746.7,767.4c-0.9-11.1,2.9-19.9,12.4-25.8c6-3.8,12.8-5.3,19.8-5.6c15.7-0.7,29.8,4.2,42.8,12.4
		c14.6,9.2,27.1,20.7,38.7,33.4c18.1,19.8,33.6,41.5,48.4,63.8c4.3,6.5,8.4,13.1,12.5,19.7c1.2,1.9,2.2,3.7,0,5.8
		c-2.3,2.2-3.4,2.6-6.5,0.7c-5.3-3.3-10.4-6.9-15.7-10.2c-8.3-5.2-16.6-10.2-25.7-14c-11.5-4.8-23.3-8.4-35.1-12
		c-11.5-3.5-23.2-6.7-34.2-11.7c-16.8-7.6-33.2-16-45.8-30c-4.6-5.2-8.3-11-10.7-17.6C746.7,773.2,747.5,770.2,746.7,767.4z
		 M852.2,784.2c0-1.4-1-2.5-2.1-3.5c-8.8-8.2-18.1-15.7-29.1-20.8c-4.1-1.9-8.2-3.7-12.4-5.3c-2.4-0.9-4.3-0.1-5,1.8
		c-0.9,2.2,0.4,3.5,2,4.6c0.7,0.5,1.5,0.8,2.3,1.1c13.4,5.1,25.3,12.5,35.6,22.5c1.2,1.1,2.5,2.3,3.9,3
		C849.8,788.7,852.2,787.1,852.2,784.2z M774,760.2c2-0.7,4.7-1.4,6.9-3.3c1.3-1.1,1.5-2.6,0.8-4c-0.7-1.5-2.1-2.1-3.7-1.8
		c-2.6,0.5-5,1.7-7.1,3.2c-1.3,0.9-1.8,2.3-1.2,3.9C770.5,759.8,771.8,760.3,774,760.2z"/>
	<path class="st1" d="M342,919c0,4.7,0.2,9.3,0,14c-0.4,7.6-2.7,14.6-7.1,20.9c-5.6,8.1-15.8,8.7-23.5,2.6
		c-11-8.8-16.5-20.7-19.9-33.5c-3.7-13.5-6.8-27.3-7.5-41.4c-0.2-3.5,0.1-7-0.9-10.4c0.6-1,0.6-2.1-0.1-3
		c1.9-16.6,3.7-33.2,7.3-49.6c2-9.1,4.2-18.1,7.9-26.7c1.8-4.1,4-8,7.1-11.2c3.8-4.1,8.5-3.2,10.3,2.2c0.8,2.3,1,4.9,1.4,7.3
		c-0.5,0.7-0.5,1.4,0.1,2c0.1,5.3-0.3,10.7,0.8,15.9c-0.5,0.7-0.4,1.4,0.2,2.1c0.2,10.2,2.4,20.1,4.7,29.9
		c4.3,18.7,10.1,37,14.9,55.6c1.8,7.1,2.9,14.3,4.3,21.4C341.4,917.7,341.5,918.4,342,919z M292,877.8c-0.1,0-0.1,0-0.2,0
		c0,0.8,0,1.7,0,2.5c0,8.7,0.6,17.3,2.1,25.8c0.4,1.9,0.4,4.7,3,4.3c2.8-0.3,1.9-2.9,1.6-4.9c-2-12.8-3.1-25.7-1.9-38.7
		c0.1-1.7,0.2-3.3,0.1-5c0-1.5-0.6-2.8-2.2-2.8c-1.6,0-2.2,1.3-2.3,2.7c-0.1,1-0.1,2-0.1,3C292,869.2,292,873.5,292,877.8z
		 M297.9,921.3c1.4,5.1,3.2,10.6,5.6,15.8c0.4,1,1.6,1.3,2.6,0.9c1.3-0.5,1.7-1.6,1.2-2.8c-1.8-5.2-3.6-10.3-5.4-15.4
		c-0.4-1.1-1.4-1.9-2.8-1.4C298,918.7,297.9,919.7,297.9,921.3z"/>
	<path class="st1" d="M1167.9,875.1c-1.1,8.6-1.9,17.2-3.8,25.6c-2.3,10.5-5.3,20.9-9.7,30.7c-3.4,7.8-8.2,14.8-14.9,20.3
		c-5.3,4.3-11.7,5.6-17.2,2.6c-5.3-2.8-9.7-7.8-11.2-14.4c-3.3-14.8-1.2-29.3,1.3-44c1.2-7,3.6-13.6,5.1-20.4
		c1.6-7,2.4-14.4,6.2-20.8c0-7,3.7-13.1,4.8-20c1-6.1,3-12.2,3.9-18.4c0.9-5.8,1.8-11.5,1.5-17.4c0.8-1.3,0.8-2.6,0.2-4
		c0.4-5.1,0.8-10.3,1.2-15.4c0.2-2.6,2.2-5.7,4.4-6.3c2.7-0.8,4.6,0.7,6.1,2.5c2.9,3.4,5.3,7.2,7,11.4c5.2,13.1,9,26.7,11.3,40.6
		c1,6.4,1.9,12.8,2.9,19.2c-0.6,0.7-0.5,1.4,0.1,2c-0.1,2.6-0.1,5.2,0.9,7.8c1,2.5,0.2,5.2,0.2,7.8c0,2.1,0,4.3,0,6.4
		C1167.2,872.3,1167.3,873.7,1167.9,875.1z M1159.6,871.9c0-3.8,0.1-7.6,0-11.5c0-1.6-0.3-3.3-0.7-4.9c-0.2-1.1-1.2-1.6-2.3-1.4
		c-0.9,0.2-1.5,0.8-1.6,1.7c-0.1,1.3-0.1,2.7-0.1,4c0.4,13.8,0.4,27.6-2,41.2c-0.1,0.8-0.3,1.6-0.2,2.5c0.1,1.1,0.8,1.9,1.8,2.1
		c1.2,0.2,1.9-0.5,2.3-1.5c0.5-1.4,0.8-2.9,1-4.4C1159.1,890.5,1160,881.3,1159.6,871.9z M1146,933.1c1.1-0.1,1.9-0.5,2.2-1.3
		c2.2-5.2,4.1-10.5,5.5-15.9c0.3-1.3-0.3-2.3-1.6-2.7c-1.1-0.3-2.1,0.3-2.4,1.2c-1.9,5.3-3.8,10.6-5.5,16
		C1143.7,931.9,1144.5,933,1146,933.1z"/>
	<path class="st5" d="M167.1,876.4c0.3-7.1,1.2-14.2,2.4-21.2c3.2-19.1,11.3-36.3,20.2-53.1c5.4-10.3,12-19.9,19.3-28.9
		c3.6-4.5,7.2-8.9,10.5-13.6c0.3-0.4,0.6-0.8,1-1.1c7.4-6.6,13-15,20.5-21.6c1-0.9,1.8-2.1,3.1-2.5c2.7-0.9,4.8-2.9,6-5.1
		c3.2-5.7,8.6-5.6,13.8-6.1c2.8-0.3,5.4,0.9,6.8,3.4c1.4,2.5,0.1,4.9-1.5,6.9c-4.9,6.1-10,12-15,18c-12.7,15.4-20.7,33.1-26,52.2
		c-5.3,19.2-8.7,38.9-12.2,58.5c-2,11.3-4.7,22.5-10.2,32.7c-2.9,5.3-6.5,10.1-12.1,12.9c-7.2,3.7-15.1,1.5-19.7-5.2
		c-3.3-4.9-5.9-9.9-5.8-16.1C168,883,166.5,879.8,167.1,876.4z M179.3,851.9c1.4,0,2-0.7,2.9-3.5c3.8-12,8.3-23.8,14-35.1
		c0.6-1.2,1-2.5,1.4-3.7c0.3-0.9-0.1-1.6-0.9-2.1c-1-0.6-2-0.5-2.7,0.3c-0.7,0.9-1.3,1.9-1.8,3c-1.1,2.4-2.1,4.9-3.2,7.3
		c-4.5,9.4-8.1,19.2-11.1,29.2c-0.2,0.8-0.6,1.6-0.6,2.4C177.2,851,178,851.7,179.3,851.9z M173,874.1c0,1.2,0,1.9,0,2.6
		c0,1.3-0.2,2.9,1.6,3.2c2.1,0.4,2.5-1.3,2.7-2.8c0.6-4.6,1.2-9.2,1.7-13.8c0.1-1.3,0.3-2.9-1.7-3c-1.7-0.1-2.1,1.3-2.5,2.6
		C173.9,866.8,173.4,870.7,173,874.1z"/>
	<path class="st5" d="M1284.1,871.6c0.6,8.2-1.3,16.5-6,24c-4.2,6.8-10.2,9.7-18.2,8.3c-3.5-0.6-6.1-2.7-8.4-5.1
		c-7.3-7.7-11.2-17.3-13.3-27.4c-3.3-16.2-5.7-32.5-9.1-48.7c-2.4-11.3-5.6-22.4-9.2-33.3c-5.3-16.1-13.3-30.9-24-44.2
		c-4-5-7.9-10-12.5-14.5c-0.7-0.7-1.2-1.6-1.7-2.4c-3.9-6.8-1.3-10.5,6.1-10.4c5,0,8.9,1.5,12.4,5.1c10.6,10.8,21.9,20.9,31.6,32.6
		c11.4,13.9,22,28.3,30.4,44.2c5.4,10.1,10.4,20.4,14,31.3C1280.6,844,1284.5,857,1284.1,871.6z M1274,843.8
		c-0.2-0.7-0.4-1.8-0.7-2.9c-3.8-12.2-8.9-23.9-14.3-35.5c-0.3-0.6-0.6-1.2-0.9-1.8c-0.6-1.1-1.5-1.9-2.8-1.4
		c-1.7,0.6-1.5,2-1.2,3.3c0.3,1.1,0.8,2.2,1.3,3.2c5.3,10.7,9.6,21.8,13.4,33.2c0.4,1.3,0.9,2.5,1.5,3.7c0.5,0.9,1.3,1.5,2.5,1.2
		C1274,846.4,1274,845.3,1274,843.8z M1278.8,871c-1.1-2.8-0.5-6.2-1.5-9.4c-0.5-1.6-0.2-3.3-1-4.8c-0.5-0.9-1.1-1.7-2.3-1.4
		c-1.1,0.2-1.7,1-1.8,2.1c-0.1,0.6,0,1.3,0.1,2c0.8,4,1.7,8.1,1.7,12.2c0,1.6,0.4,3.2,2.3,3.3C1278.6,874.9,1278.8,873.1,1278.8,871
		z"/>
	<path class="st1" d="M184.2,672.2c-13.9-0.4-28.5-2.7-43.1-5.6c-4.6-0.9-9.3-1.4-13.9-2.7c-16.6-4.5-32.4-10.7-46.6-20.7
		c-5.9-4.1-10.4-9.8-15.7-14.5c-6-5.3-9.8-11.8-12-19.4c-1.6-5.6-1.4-11.5,0.9-16.5c1.6-3.5,5.2-6.8,9.9-7.5
		c4.5-0.7,8.9-0.8,13.4,0.5c12.8,3.6,24,10.3,35.1,17.2c14.6,9,28.6,18.8,42.7,28.4c10.4,7.1,21.3,13.3,32.2,19.8
		c3.4,2,7.2,3.4,10.8,5c2.3,1,4.3,2.5,5.8,4.6c2.8,4.1,1.6,8.2-3.1,9.9C195.5,672.4,190.3,672.2,184.2,672.2z M83.2,632.9
		c-1.5,0-2.2,0.4-2.6,1.2c-0.4,0.9-0.1,1.7,0.5,2.3c1.4,1.2,2.8,2.3,4.3,3.4c9.2,6.8,19.6,11.2,30.3,15c1.4,0.5,3.2,1,3.9-0.8
		c0.9-2.1-1-2.8-2.5-3.5c-0.4-0.2-0.9-0.3-1.4-0.5c-10.7-3.9-20.9-8.6-30-15.6C84.8,633.6,83.9,632.9,83.2,632.9z M73.6,625
		c-0.1-0.3-0.1-0.8-0.4-1.2c-2.1-3.3-4.6-6.4-7.6-9c-0.8-0.7-1.8-0.7-2.7,0.1c-0.8,0.8-1.1,1.8-0.4,2.7c2.5,3.1,4.9,6.2,7.7,9
		C71.4,627.7,73.4,626.8,73.6,625z"/>
	<path class="st1" d="M1300.2,623.1c1.4-1.3,4-1,4.7-3.3c0.4-0.2,0.8-0.5,1.1-0.7c2.8-2.3,6.8-2.9,8.9-6.2c0.4-0.3,0.8-0.5,1.3-0.8
		c1.4-1.3,4-1,4.7-3.2c0.4-0.3,0.8-0.5,1.2-0.8c6.3-2.9,11.5-7.6,17.4-11.1c11.2-6.6,22.2-13.8,35.3-16.6c4.4-1,9-1.4,13.3,0
		c10,3.2,12.6,13.1,10.3,21.9c-2.2,8.7-6.9,16.1-13.1,22.5c-12.2,12.7-27,21.6-43.4,27.8c-16.8,6.4-34.3,9.9-52.1,12.4
		c-1.3,0.2-2.6,0.5-3.9,0.8c-0.7-0.5-1.4-0.4-2,0.2c-2.7,0-5.4-0.1-8,0.8c-0.7-0.5-1.4-0.4-2,0.2c-4.3,0-8.6,0-12.9,0.1
		c-3.5,0.1-6.9-0.8-10.3-1.4c-3-0.6-4.5-2.8-5.3-5.3c-0.7-2.1,1-3.5,2.4-4.9c3.2-3.3,6.8-5.9,11.3-7.5c6.9-2.5,12.8-7,19.1-10.7
		c6.6-3.9,12.6-8.6,19.5-11.9c0.5-0.3,0.8-1,1.2-1.5C1299.4,623.7,1299.8,623.4,1300.2,623.1z M1371,629.4c-0.2-1.2-1.1-2-2.4-1.7
		c-0.9,0.2-1.8,0.8-2.6,1.4c-8.9,6.9-18.8,11.7-29.4,15.4c-1.4,0.5-2.8,1.2-4.1,1.9c-0.8,0.4-1.1,1.3-0.9,2.1
		c0.3,0.8,0.9,1.3,1.8,1.5c1.2,0.2,2.3-0.2,3.4-0.6c4.9-2,9.9-3.8,14.7-6c6.1-2.9,12-6.4,17.3-10.7
		C1369.9,631.8,1371.1,631.1,1371,629.4z M1380.2,622c0.2,0,0.4,0,0.5-0.1c3.3-3,6.4-6.2,8.4-10.2c0.4-0.8-0.1-1.6-0.9-2.1
		c-0.6-0.4-1.4-0.4-1.9,0c-3.3,2.8-6.4,5.8-8.2,9.8C1377.5,620.8,1378.7,622.2,1380.2,622z"/>
	<path class="st5" d="M115.2,746c-9.5,0-18.8-1.5-28.2-2.7c-6.7-0.8-12.8-2.8-18.8-5.7c-4.2-2-7.4-5.1-10.3-8.6
		c-1.8-2.2-3-4.8-2.9-7.8c0.1-1.7,0-3.3-0.1-5c-0.4-6.5,2.6-11,7.9-14.5c5.4-3.6,11.5-5.2,17.8-5.7c5.8-0.4,11.6-0.1,17.4,0.5
		c16.5,1.8,32.7,5.4,49.2,7.5c11.9,1.6,23.7,2.8,35.7,3c2.5,0,4.9,0.5,7.4,0.7c6.8,0.5,13.6-0.8,20.4-1.1c3-0.1,5.7-2.1,9.1-1.8
		c4.1,0.3,6.3,3,7.9,6c1.5,2.7-0.1,5.5-2.1,7.7c-1.9,2.1-4.4,3.5-6.8,4.9c-13,7.2-27.1,11.7-41.5,14.9c-12.1,2.7-24.4,4.9-36.8,5.8
		C132.1,744.9,123.7,746,115.2,746z M113.5,737.1c-3.2,0-6.3,0-9.5,0c-1.2,0-2.4,0.4-2.5,1.9c-0.1,1.5,1,1.9,2.3,2.1
		c3.9,0.5,7.9,1.4,11.9,0.6c3.3-0.6,6.6-0.5,9.9-0.8c5-0.3,9.9-0.7,14.9-1.1c2-0.2,3.9-0.6,5.9-1.1c1-0.2,1.7-1,1.6-2.2
		c-0.1-1.3-1.1-1.6-2.2-1.5c-2.8,0.1-5.7,0.1-8.5,0.4C129.3,736.1,121.4,737.2,113.5,737.1z M92.8,737.6c-0.1-1.4-1-2.1-2.2-2.3
		c-5.4-1.1-10.5-2.9-15.7-4.7c-1.4-0.5-2.8-0.4-3.4,1.1c-0.5,1.3,0.5,2.2,1.5,2.8c1,0.6,2.1,1.1,3.2,1.4c4.3,1.3,8.5,2.7,12.9,3.8
		C91.2,740.3,92.8,739.1,92.8,737.6z"/>
	<path class="st5" d="M1332.3,740.9c-6.8-0.4-17.7-1.1-28.6-2.5c-6.4-0.8-12.7-2.7-19.2-2.5c-2.5,0.1-4.2-1.7-6.6-2
		c-9-1.1-17.8-3.3-26.3-6.7c-7.7-3-15.3-6-22.5-10.2c-2.3-1.4-4.4-3.2-5.6-5.6c-2.2-4.4,1.3-10.6,6.3-11.2c1.8-0.2,3.7-0.2,5.5,0.2
		c9.9,2.3,20,3.2,30.1,1.9c1.8-0.2,3.7-0.1,5.5-0.2c13.1-0.3,26.2-1.5,39.1-3.8c15.2-2.6,30.4-5.2,45.8-7c8.9-1.1,17.9-1,26.5,2.7
		c5,2.2,9.4,5,12.1,9.9c4.2,7.5,3,15.2-2.9,21.5c-6.6,7.2-15.1,10.7-24.4,12.4C1357,739.7,1346.8,741.1,1332.3,740.9z M1339.8,737
		c1.9-0.1,4-0.1,5.9-0.5c1.6-0.4,4.3,0.3,4.2-2.4c-0.2-3-3-1.9-4.7-2c-5.5-0.2-11,0.2-16.4-0.3c-7.4-0.8-14.8-1.5-22.2-2.2
		c-1.4-0.1-2.9,0.2-3.1,1.8c-0.4,2,1.2,2.4,2.8,2.7C1317.2,735.7,1328.5,735.8,1339.8,737z M1361.5,734.8c6-1.2,11.5-3.1,16.9-5.2
		c1.2-0.5,1.8-1.6,1.2-2.9c-0.5-1.2-1.6-1.8-2.9-1.3c-5.3,1.9-10.6,3.7-16.1,5.1c-1.2,0.3-2,1.4-1.6,2.7
		C1359.5,734.4,1360.6,734.9,1361.5,734.8z"/>
	<path class="st4" d="M876.2,749c1-7.7,0.8-16,4.7-23.4c6.7-13,17-21.1,31.6-23.2c10.6-1.6,20.8,4.3,20.3,17.7
		c-0.2,6.5-1.7,12.9-3,19.2c-3.5,17.7-5.2,35.5-5,53.5c0.2,19.9,2.6,39.4,7.3,58.7c0.2,0.8,0.4,1.6,0.5,2.4c0.2,2.3-1,3.9-3,4.7
		c-2,0.8-3.9,0.6-5.4-1.1c-1.4-1.6-2.3-3.6-3.5-5.4c-6.4-10.3-13.1-20.5-19.3-30.9c-8.3-14-16.2-28.1-20.9-43.8
		C877.7,768.4,876.9,758.8,876.2,749z M884.2,751.1c0.2,2,0.3,4,0.6,5.9c0.3,1.8,1.4,3,3.4,3c2-0.1,3.1-1.3,3.4-3.1
		c0.3-1.6,0.2-3.3,0.2-5c-0.5-10.2,2.5-19.3,7.9-27.8c0.6-1,1.2-2,1.7-3c0.8-1.8,0.2-3.2-1.4-4.3c-1.5-1-2.9-0.5-4.1,0.6
		c-1.1,1-2,2.3-2.8,3.5C887.5,730.2,884.3,740.2,884.2,751.1z M896.8,774.9c-0.5-1.7-1-3.6-2.2-5.2c-1-1.3-2.3-1.9-3.9-1.3
		c-1.7,0.7-2.7,2-2.4,3.9c0.2,1.8,1,3.5,1.9,5.1c0.9,1.4,2.2,2.1,3.9,1.6C895.9,778.4,896.7,777,896.8,774.9z"/>
	<path class="st4" d="M543.5,709.7c8.6,0.5,16.3,3.8,22.9,9.5c9.6,8.3,14.5,19,15.8,31.6c1.4,14.3-2.2,27.7-6.7,40.9
		c-3.6,10.4-8.9,20-14.3,29.5c-7.8,13.7-16.5,26.8-24.6,40.3c-0.9,1.4-1.7,2.8-2.8,4.1c-1.3,1.6-3.3,1.9-5,1.2
		c-1.5-0.6-2.5-1.9-2.6-3.9c-0.1-2.5,0.8-4.7,1.4-7.1c1.8-7.6,3.2-15.3,4.3-23c2.2-15.4,2.6-30.8,2.1-46.4
		c-0.5-14.5-2.7-28.8-5.4-43c-1.2-6.2-2.4-12.4-2.3-18.8c0.1-7.9,4.8-13.4,12.6-14.4C540.3,709.9,541.8,709.8,543.5,709.7z
		 M567.2,757.3c0,1.5,0,2.9,0,4.2c0,4.1,1.2,6.1,3.5,6.2c2.3,0.1,3.8-2,3.9-6c0.6-12.5-2.6-24-9.6-34.4c-0.6-1-1.4-1.9-2.3-2.6
		c-1.3-1-2.8-1.1-4.1,0c-1.3,1-1.8,2.4-1.1,4c0.7,1.3,1.5,2.6,2.3,3.9C564.2,740.2,567.5,748.3,567.2,757.3z M570.7,779.5
		c-0.1-1.4-0.6-2.7-1.9-3.3c-1.5-0.7-3-0.5-4.1,0.7c-1.6,1.8-2.3,4-2.3,6.4c0,1.4,0.9,2.4,2.3,2.9c1.4,0.6,2.6,0.1,3.6-0.9
		C569.8,783.7,570.1,781.5,570.7,779.5z"/>
	<path class="st3" d="M979.9,913.6c3.6,4.3,5.8,9.6,8.8,14.3c4.1,6.4,8.6,12.5,13,18.6c6.8,9.5,13.6,19,20.4,28.5
		c-15.6,12.6-32.6,22.4-52.4,26.5c-4.7,1-9.5,1.6-14.2,2.5c-2.5-0.8-1.8-3.5-2.1-5c-1.5-7.7-4.5-14.9-6.9-22.3
		c-1.4-4.3-4.2-8.1-5.2-12.4c-2.3-9.8-7.8-18.4-10.1-28.1c0.8-0.6,1.5-1.3,2.4-1.7C949,927.5,964.4,920.6,979.9,913.6z"/>
	<path class="st3" d="M504.7,1008.9c-0.3,0.7-0.7,1.4-1,2.2c-13.6-0.8-26.4-4.6-38.6-10.3c-10.3-4.8-19.4-11.4-28.4-18.2
		c2.9-4,5.8-8.1,8.7-12.1c7.9-11.1,16-22,23.7-33.2c3.6-5.2,5.5-11.2,9.1-16.3c0.8,0.2,1.6,0.3,2.4,0.7
		c15.7,7.1,31.4,14.3,47.1,21.4c-0.6,1.5-1.2,3.1-1.8,4.6c-5.1,12.2-8.8,24.8-14.1,36.9C508.4,992.4,506,1000.5,504.7,1008.9z"/>
	<path class="st5" d="M91.3,853.9c-9.5-0.6-14.5-4.2-15.3-14.9c-0.7-9.6,2.4-18,8-25.4c2.6-3.4,5-7.2,8.6-10c3.3-2.6,6.2-5.9,9-9.3
		c3.1-3.9,7.6-6.3,11.6-9.2c15.9-11.6,33.4-20.1,51.2-28.2c4.2-1.9,7.8-0.4,11.4,1.2c2.2,1,2.4,3,1.4,5.5c-1.6,3.9-4.3,7.1-6.9,10.3
		c-8.5,10.9-15.7,22.6-23.7,33.8c-7.6,10.7-15.3,21.3-25.1,30.2c-5.5,5.1-11.2,9.8-18.2,12.9C99.3,852.6,95.1,853.4,91.3,853.9z
		 M85,827c1.7,0,2.2-1.5,2.9-2.5c4.2-6.2,8.8-12.1,14.2-17.3c1.5-1.5,2.8-3.3,4.1-5c0.6-0.8,0.9-1.8,0-2.7c-0.7-0.6-1.6-0.6-2.3-0.3
		c-0.7,0.3-1.4,0.9-2,1.5c-6.4,6.3-12.3,13.1-17.3,20.6c-0.7,1.1-1.5,2.2-1.6,3.6C82.9,826.3,83.6,827.1,85,827z"/>
	<path class="st5" d="M1359,849.1c-0.6-0.3-1.1-0.8-1.7-0.8c-10.7-1.2-19.2-6.4-26.2-14.4c-3.2-3.6-6.4-7.3-10.4-10
		c-2.5-1.7-3.7-4.6-5.5-6.8c-7-8.3-13.1-17.3-19.3-26.3c-4.6-6.6-8.2-13.9-14-19.8c-2.5-2.5-3.6-6.1-6.4-8.7c-2.2-2-1.8-5.2-1.3-8.1
		c0.1-0.6,0.6-1.5,1-1.6c3.2-0.5,6.3-2.2,9.6-1.2c1.1,0.3,2.2,0.7,3.2,1.2c16.4,7.7,32.6,15.7,47.5,26.1
		c8.8,6.1,17.1,12.6,24.2,20.7c6.7,7.6,12.6,15.9,14.9,26c0.9,3.9,1.1,8,0.1,11.9c-1.7,6.9-5.4,10.9-14.7,11.8
		C1359.7,849,1359.3,849,1359,849.1z M1368.9,820.1c-0.2-0.5-0.5-1.3-0.9-2c-4.9-8.8-12.2-15.6-18.7-23.1c-0.2-0.2-0.5-0.4-0.8-0.6
		c-0.9-0.5-1.9-0.7-2.8,0c-0.9,0.7-0.8,1.8-0.3,2.7c0.5,0.9,1.1,1.6,1.8,2.3c6.1,6.1,11.7,12.6,16.3,20c0.6,1,1.5,1.8,2.3,2.6
		c0.5,0.5,1.2,0.6,1.8,0.3C1368.4,822,1368.8,821.3,1368.9,820.1z"/>
	<path class="st6" d="M436.7,982.5c9,6.8,18.1,13.4,28.4,18.2c12.3,5.7,25,9.6,38.6,10.3c0.1,0.3,0.2,0.6,0.3,0.9
		c-1.8,5.9-2.9,11.9-3.7,18c-0.1,0.7-0.2,1.3-0.3,2c-0.1,0.7-0.2,1.3-0.2,2c-0.8,1.2-0.9,2.6-0.7,4c-0.3,1.7-1,3.3-0.7,5
		c-0.4,1-0.5,2-0.3,3c-0.3,2-0.9,4-0.6,6c0,0.7-0.1,1.3-0.1,2c-0.2,1-0.4,2-0.6,3c-17,0.9-33.1-2.5-48.2-10.2
		c-15.9-8.1-30.9-17.7-42.6-31.5c6.4-6,12.7-12,18.4-18.6C428.4,992,432.6,987.2,436.7,982.5z"/>
	<path class="st6" d="M955.5,1004c4.7-0.8,9.5-1.5,14.2-2.5c19.8-4.1,36.8-13.9,52.4-26.5c4.8,5.4,9.7,10.8,14.5,16.3
		c5.1,5.9,11,11.1,16.4,16.6c-18.1,19.5-39.7,33.1-65.6,39.4c-8.2,2-16.7,3-25.2,2.2C961.2,1034.2,958.2,1019.1,955.5,1004z"/>
	<path class="st7" d="M260.9,341.4c3.3-0.7,6.7,0.2,9.9-1.3c3.8,4.9,9.3,7.9,14,11.8c4,3.4,7.7,6.9,9.9,11.7
		c1.7,3.6,2.9,7.3,1.4,11.4c-2.3,6.6-8.5,7.5-13.7,4.9c-3.5-1.8-5.8-4.8-7.7-8.1c-0.5-1.2-0.7-2.7-2.3-3.2c-0.4,1.8,0.4,3.1,0.7,4.5
		c1.7,10.7,2.5,21.5,2,32.4c-0.4,8.9-2.7,17.4-6.7,25.3c-1.3,2.5-1.6,4.7-0.7,7.5c2.7,8.4,1.2,16.8-1.8,24.9
		c-3.4,9.4-8.9,17.7-13.9,26.3c-11.3,19.4-23.6,38.4-33.5,58.6c-8.2,16.7-13.6,34.2-14.1,52.9c-0.4,13.9,2.1,27.4,7.1,40.4
		c9.4,24.4,26,42.5,48.1,55.8c1.7,1,3.4,2.1,5,3.3c1,0.7,1.6,1.8,1,3c-0.6,1.1-1.7,1.6-2.9,1.4c-2-0.2-3.8-1.2-5.3-2.3
		c-5.6-3.8-11.1-7.7-16.6-11.5c-2.5-1.7-3.9-4.5-6.2-6.4c-8-6.8-14.7-14.8-19.9-23.9c-5.4-9.3-10.3-19.1-12.4-29.8
		c-3.3-16.9-4.2-33.8-0.6-51c2-9.5,5.1-18.4,8.7-27.3c3.7-9.4,8.7-18.1,13.6-26.8c4.8-8.4,9.5-16.9,14.8-25
		c3.9-5.9,7-12.2,10.6-18.3c2.5-4.3,5.1-8.4,7.6-12.7c3.4-5.7,4.8-12.1,6.5-18.4c0.8-2.7,0.7-5.7-0.3-8.4c-0.6-1.9-2.1-2.4-3.8-1.1
		c-5.2,4-10.9,4.9-17.3,4.1c-3-0.4-5.3-1.8-7.5-3.5c-7-5.4-9.6-12.8-8.5-21.4c0.6-4.7,5.3-8.5,10.5-9.1c5.2-0.6,9.9,0.8,14.3,3.3
		c3.8,2.2,6.9,5.2,9.7,8.6c0.9,1.1,1.5,2.6,3.4,3.4c2.9-4.9,4.2-10.4,5.1-15.9c2-12.5,0.5-24.9-1.4-37.3c-0.6-3.9-1.3-7.8-2-11.9
		c-2,1.1-1.9,3-2.4,4.4c-1.9,5.2-4.4,10.1-7.8,14.5c-2.9,3.8-6.4,6.8-11.1,8.2c-6.4,1.9-11.7-0.9-13.5-7.4
		c-1.5-5.3-0.1-10.3,2.4-14.9c1.9-3.7,4.6-6.9,7.5-10C246.8,350.9,253.6,345.8,260.9,341.4z M261.9,348c-1.9-0.1-3.1,1.1-4.4,2
		c-5.3,3.6-10,7.8-14.2,12.5c-2.4,2.6-4.4,5.4-5.8,8.7c-1.2,2.8-1.8,5.7-1.3,8.8c0.7,4,3.4,5.5,7.3,4.2c3.9-1.2,6.4-4.1,8.7-7.2
		c4.7-6.5,7.2-13.9,8.9-21.5C261.5,353,262.7,350.7,261.9,348z M246.6,441.1c4.1,0.2,7.4-1.7,10.4-4.1c3.7-2.9,3.8-3.5,1.3-7.3
		c-1.7-2.7-3.8-5-6.2-7.1c-3.4-2.8-7.2-4.8-11.5-5.5c-4.4-0.7-7.8,1.6-8.6,5.6C230.1,431.1,238,441,246.6,441.1z M270.6,347.3
		c-0.3,0.9-0.6,1.2-0.5,1.5c2.8,7.3,5.6,14.6,10.1,21.1c1.4,1.9,3,3.6,5,4.8c1.4,0.9,2.9,1.8,4.6,0.8c1.7-1,1.6-2.8,1.6-4.5
		c0-2.9-1.1-5.6-2.8-7.8C283.6,356.8,276.9,352.4,270.6,347.3z"/>
	<path class="st7" d="M1186.2,327c4,0.3,8-0.4,11.9,0.9c5.4,4,11.1,7.7,16.1,12.4c5.9,5.5,10.8,11.6,13.2,19.5
		c1.2,3.9,0.6,7.5-1,11.1c-1.5,3.4-4.2,5.2-7.8,5.3c-4.9,0.1-9-0.9-12.7-5.1c-4.7-5.4-8.9-10.9-10.9-17.9c-0.2-0.7-0.7-1.2-1.4-1.2
		c-0.7,0-1.2,0.4-1.4,1.1c-0.8,2.4-1,4.9-1.4,7.4c-1.8,11.7-3.3,23.4-1.8,35.3c0.7,5.8,2.1,11.4,4.3,16.7c0.2,0.6,0.8,1,1.4,1.6
		c3.6-4.4,7.1-8.7,11.6-11.9c4-2.9,8.8-3.9,13.6-3.9c8.6,0,14.5,9,11.7,18c-3,9.9-11.7,18.4-24.9,16.5c-2.3-0.3-4.3-1.6-6.2-2.9
		c-1.5-1-2.9-1.9-4.9-3.2c-1.1,6.8-0.8,12.9,1,19c2.3,7.9,6.6,14.8,10.7,21.8c10.3,17.6,21,34.8,30.8,52.7
		c6.4,11.6,11.8,23.6,15.8,36.3c7.4,23.6,7.2,47-1.4,70.3c-6.8,18.2-16.9,34-31.6,46.9c-7.1,6.2-14.6,11.6-22.7,16.4
		c-2.3,1.4-5.5,1.5-5.8,0.1c-0.5-2.2,0.5-3.5,2.5-4.8c6-3.9,12.1-7.7,17.7-12.2c5.4-4.4,10.4-9.3,15.1-14.4
		c5.8-6.3,10.5-13.6,14.4-21.2c4-7.9,6.5-16.3,9-24.8c3.6-12.2,3.9-24.6,1.9-37c-1.5-9.1-4-18-7.3-26.7c-1.9-4.9-3.8-9.8-6.2-14.4
		c-3.4-6.7-7.4-13.2-10.8-19.9c-3.2-6.3-7-12.2-10.6-18.3c-5-8.5-10.2-16.8-15.1-25.4c-4.5-7.9-9.4-15.7-12-24.7
		c-1-3.4-1-6.8-1.1-10.2c-0.2-4.6-0.5-9.3,1.2-13.7c0.5-1.2-0.2-2.2-0.7-3.3c-7-13.6-7.9-28.1-6.8-43c0.5-6.1,1.5-12.2,2.3-18.3
		c0.3-0.9,0.8-2.1-0.2-2.4c-0.8-0.2-1.2,1.1-1.6,1.9c-0.1,0.1-0.1,0.3-0.1,0.5c-3,3.5-5.9,7-10.2,9.3c-4.8,2.5-11.5-1.6-11.9-6.7
		c-0.5-7.2,1.6-13.1,6.6-17.9c4.1-4,8.7-7.5,13.2-11.1C1183.3,330.1,1185,328.8,1186.2,327z M1192.6,350c0,0.6,0,1.3,0.8,1.1
		c0.5-0.1,0.5-0.6,0.5-1.1c0.1-0.6,0-1.5-0.6-1.5C1192.8,348.4,1192.6,349.3,1192.6,350z M1196.5,334.2c-0.7,0.7-0.5,1.6-0.3,2.3
		c1.3,6,2.7,12,5.1,17.7c2,4.8,4.5,9.3,8.3,12.9c1.8,1.8,3.9,3.1,6.4,3.8c3.2,0.8,5.1-0.3,6.2-3.4c0.6-1.8,0.8-3.5,0.4-5.4
		c-0.7-3.7-2.4-6.9-4.6-9.9c-5-6.6-11.1-11.9-17.9-16.5C1199,335,1198,334,1196.5,334.2z M1226.9,411.9c-0.1-5.7-3.2-8.7-8.9-8
		c-9.3,1.2-14.9,7.4-19.4,14.9c-0.6,1.1-0.2,1.9,0.5,2.7c3.8,4.1,10.7,7.9,16.5,5.6C1221.9,424.6,1227,418,1226.9,411.9z
		 M1188.5,333.5c-3,2.3-5.9,4.6-8.9,6.9c-3.1,2.5-6.2,5.1-8.7,8.2c-2.2,2.6-3.7,5.5-3.8,9c-0.1,1.7,0,3.5,1.8,4.3
		c1.6,0.8,3.3,0.3,4.7-0.8c1.4-1.2,2.9-2.3,4-3.7C1183,350.4,1185.6,341.9,1188.5,333.5z"/>
	<path class="st5" d="M906.1,216.7c-5.9-3.1-10.6-7-14.2-12.4c-3.8-5.6-4.5-19.3,1.3-25.8c4.8-5.4,11.2-5.5,17.5-4
		c8,1.9,13.1,7.6,16.8,14.6c8.6,16.2,6.9,32-2.4,47.2c-6.1,10.1-14.7,17.4-25.4,22.3c-6,2.8-12.3,2.9-18.5,2.1
		c-4.7-0.6-7.6-6.4-6.1-11c1.2-3.7,3.4-6,6.9-7.8c7.1-3.7,12.8-9.4,17.9-15.6C902.2,223.4,904.7,220.5,906.1,216.7z"/>
	<path class="st3" d="M929.2,930.8c-2-0.2-3.3,1.1-4.9,1.9c-2.8,1.4-5.2,1.1-7.7-1.1c-1.5-1.4-2.6-3-3.6-4.6
		c-2.6-4-4.9-8.1-7.3-12.2c-2.8-4.8-2-7.7,2.9-10.5c9.7-5.5,20-10,30.1-14.6c8.4-3.8,16.9-7.4,25.3-11c1.8-0.8,3.5-1.5,5.4-2.2
		c4.3-1.6,6.9-0.7,9.6,3c3.8,5.4,7.1,11.1,9.9,17.1c1.9,4.2,1.3,6-3.1,8.3c-2.6,1.3-5.2,2.6-7.9,3.9
		C961.4,915.8,945.3,923.2,929.2,930.8z"/>
	<path class="st3" d="M468.3,908.9c0-0.9,0-1.8,0-2.8c3.8-6.2,6.6-12.9,10.8-18.9c3.1-4.3,5-5.2,9.8-3.2c17.4,7,34.4,14.7,51.3,22.9
		c4,1.9,7.9,4.1,11.7,6.3c3.4,1.9,3.8,3.2,2,6.4c-3.6,6.3-7.4,12.4-11.1,18.6c-1.3,2.2-3.3,2.9-5.9,2.8c-2.7-0.1-4.5-2.1-6.9-2.4
		c-0.4-0.3-0.7-0.7-1.1-0.9c-15.9-7.2-31.8-14.3-47.7-21.5c-3.5-1.7-7.5-2.5-10.9-4.6c0.1-0.5-0.1-0.8-0.7-0.7
		C469.3,910.1,469.3,909.2,468.3,908.9z"/>
	<path class="st1" d="M929.2,930.8c16.1-7.6,32.2-15,48.6-22c0.6,1.6,2,2.9,2.1,4.8c-15.4,6.9-30.9,13.9-46.3,20.9
		c-0.9,0.4-1.6,1.1-2.4,1.7C929.3,934.8,929.4,932.8,929.2,930.8z"/>
	<path class="st8" d="M1167.9,875.1c-0.5-1.4-0.6-2.7,0.2-4C1169.4,872.5,1169.5,873.8,1167.9,875.1z"/>
	<path class="st8" d="M1134.1,795c0.7,1.4,0.7,2.7-0.2,4C1132.6,797.6,1132.6,796.3,1134.1,795z"/>
	<path class="st0" d="M273.1,373c-0.4-1.4-1.1-2.7-0.7-4.5"/>
	<path class="st8" d="M283,868c0.7,1,0.8,2,0.1,3C281.7,870.1,281.7,869.1,283,868z"/>
	<path class="st0" d="M1183.9,357.9c0-0.2,0-0.3,0.1-0.5c0.3-0.8,0.7-2.1,1.6-1.9c1,0.3,0.5,1.5,0.2,2.4
		C1185.1,357.9,1184.5,357.9,1183.9,357.9z"/>
	<path class="st8" d="M980.1,632c0-0.9,0.4-2,1.2-1.9c1,0.2,0.4,1.2,0.3,1.9C981,632.1,980.6,632.1,980.1,632z"/>
	<path class="st8" d="M360.1,646.1c0.3-0.8,0.8-1.5,1.7-1.4c0.8,0,1,0.7,0.9,1.4C361.9,646.1,361,646.1,360.1,646.1z"/>
	<path class="st9" d="M468.3,908.9c1.1,0.3,1,1.2,1.2,2c-0.6-0.1-1.5-0.1-1.8-0.4C467.1,909.8,467.7,909.3,468.3,908.9z"/>
	<path class="st8" d="M1284,666.1c0.6-0.6,1.3-0.7,2-0.2C1285.5,667,1284.8,667.3,1284,666.1z"/>
	<path class="st8" d="M784.1,618c0.1,0.8-0.4,1.3-1,1.3c-0.9,0-0.7-0.8-0.5-1.4C783,618,783.5,618,784.1,618z"/>
	<path class="st8" d="M1167.1,849c-0.6-0.6-0.8-1.3-0.1-2C1167.9,847.6,1168.1,848.3,1167.1,849z"/>
	<path class="st8" d="M318,810c-0.6-0.6-0.7-1.3-0.2-2.1C319,808.6,319.2,809.2,318,810z"/>
	<path class="st10" d="M958.1,371.8c0.7,0.3,1.6,0.5,1.4,1.5c-0.1,0.6-0.8,0.8-1.5,0.8C958,373.3,958.1,372.5,958.1,371.8z"/>
	<path class="st8" d="M317,792c-0.6-0.7-0.6-1.3-0.1-2C318,790.6,318.2,791.3,317,792z"/>
	<path class="st8" d="M342,919c-0.6-0.6-0.6-1.3-0.2-2C343,917.6,343.2,918.2,342,919z"/>
	<path class="st8" d="M1274,667.1c0.6-0.5,1.3-0.7,2-0.2C1275.4,668,1274.8,668.2,1274,667.1z"/>
	<path class="st8" d="M1144.1,1095.7c-0.1-0.3-0.1-0.5,0.1-0.7c0.6,0.1,1.3,0.1,1.9,0.2c-0.1,0.6-0.1,1.3-0.2,1.9
		C1145.3,1096.6,1144.7,1096.1,1144.1,1095.7z"/>
	<path class="st8" d="M1322.2,608.1c-0.4,0.3-0.8,0.5-1.2,0.8C1321.2,608.3,1321.6,608.1,1322.2,608.1z"/>
	<path class="st8" d="M1316.2,612.1c-0.4,0.3-0.8,0.5-1.3,0.8C1315.2,612.3,1315.6,612.1,1316.2,612.1z"/>
	<path class="st8" d="M1359,849.1c0.3,0,0.7,0,1,0C1359.7,849.8,1359.3,849.8,1359,849.1z"/>
	<path class="st8" d="M1306.1,619.1c-0.4,0.2-0.8,0.5-1.1,0.7C1305.2,619.3,1305.6,619,1306.1,619.1z"/>
	<path class="st8" d="M838.7,593c-0.2,0.4-0.4,0.8-0.6,1.2C838,593.6,838.2,593.2,838.7,593z"/>
	<path class="st8" d="M1300.2,623.1c-0.4,0.3-0.9,0.5-1.3,0.8C1299.2,623.3,1299.6,623.1,1300.2,623.1z"/>
	<path class="st6" d="M1144.1,1095.7c0.6,0.5,1.2,0.9,1.9,1.4c2.1,4.9,5.5,9.1,8.2,13.6c14.5,23.9,27.3,48.6,39.2,73.9
		c5.8,12.3,11.3,24.8,16.6,37.3c0.5,1.2,1.2,2.4,1.2,3.8c-4.3,3.2-8.5,6.4-13.3,8.8c-1.9,1-2.4,2.2-2,4.4c1.5,8.6,1.5,17.2,1.6,25.9
		c0.1,10.2-0.3,20.3-2.4,30.3c-3,14.7-8.1,28.5-17.9,40.1c-13.8,16.3-31.5,22.3-52.3,18.3c-15-2.9-28.1-10.1-40.5-18.6
		c-10.6-7.3-19.9-16.1-28.2-25.9c-1.6-1.9-2.9-3.1-5.8-2.1c-6.8,2.2-14,2.8-21.1,3.8c-2.9-4.1-4.7-8.8-6.8-13.3
		c-15.9-33.9-31.4-67.9-42.8-103.6c-1.7-5.4-3.6-10.7-4.4-16.3c8.3-0.3,16.6-1.1,24.9-2.2c1.2-0.2,2.3-0.5,3.4-0.7
		c2.1-0.3,2.8-1.3,2.4-3.4c-1.5-8.3-1.5-16.6-0.6-24.9c1.8-15.9,7-30.5,18.9-41.9c9.3-8.9,20.4-13.6,33.2-14.4
		c21.1-1.4,39.2,6.1,55.3,19.1c3.1,2.5,5.3,2.7,8.7,1C1129.3,1105.9,1136.5,1100.5,1144.1,1095.7z M1170,1269.7
		c-0.1-3.2-0.3-8-0.8-12.8c-1.1-13.2-4.3-25.8-8.3-38.3c-4.6-14.4-10.7-28.2-18.3-41.4c-11.2-19.5-24.4-37.3-42.7-50.6
		c-10.3-7.5-21.4-13.1-34.9-12.7c-10.9,0.4-19,5.2-25.3,13.6c-7,9.4-9.8,20.4-10.5,31.7c-0.6,8.9-0.5,17.9,0.6,26.9
		c1.4,11.6,3.9,22.8,7.3,34c5.3,17.3,12.6,33.7,22,49c9.2,15,19.8,29,33.6,40.4c9.6,8,19.8,14.5,32.2,17c5.2,1,10.5,1.1,15.8-0.2
		c10.5-2.6,17.4-9.4,22-18.8C1168.4,1296.1,1170.3,1283.9,1170,1269.7z"/>
	<path class="st6" d="M302.2,1121.2c1.9-1,2.5-3,3.6-4.6c3-4.5,5.6-9.4,9.1-13.6c7.5,5.3,15,10.5,23.2,14.6c3,1.5,5,1.5,7.9-0.8
		c12.5-10.1,26.4-17,42.7-19.1c27.2-3.5,50.4,10.1,60.3,35.6c5.5,14.2,6.2,28.9,4.5,43.8c-0.5,4.3-0.7,4.4,3.5,5.2
		c8.9,1.6,17.8,2.1,26.8,2.8c-1.6,8.9-4.6,17.3-7.5,25.8c-11.2,32.4-25.2,63.7-40,94.5c-2.1,4.3-3.5,9-6.5,12.9
		c-7.2-1.3-14.5-1.8-21.5-4.1c-2-0.7-3.3-0.4-4.7,1.4c-5.1,6.6-11.2,12.3-17.5,17.8c-13.6,11.9-28.8,21-46.1,26.2
		c-24.4,7.4-47.6-0.8-61.8-21.6c-8.6-12.6-13.3-26.8-15.3-41.8c-2.2-16.4-1.8-32.9,0.2-49.3c0.3-2.6-0.2-3.9-2.5-5.1
		c-4.6-2.3-8.8-5.4-12.9-8.6c3.1-9.5,7.4-18.5,11.5-27.5c12.6-27.7,26.2-54.9,41.7-81C301.7,1123.4,302.2,1122.4,302.2,1121.2z
		 M430.1,1178.2c-0.2-5.8,0-11.6-1.1-17.4c-1.4-7.2-3.1-14.3-6.6-20.8c-7.1-13-17.9-20-32.9-18.9c-9.6,0.7-18.2,4.7-26.3,9.9
		c-10.9,7-19.7,16.3-28.1,26c-10.1,11.7-17.9,24.8-24.8,38.5c-8.2,16.5-14.6,33.9-18.2,52.1c-2,10.1-3.7,20.2-3.4,30.6
		c0.1,5,0.3,9.9,0.9,14.9c1.4,10.2,4,19.9,10.3,28.2c7.2,9.5,16.8,14.6,28.9,13.6c9.7-0.7,18.3-4.7,26.3-9.9
		c15.4-10,27.4-23.5,37.9-38.5c9.4-13.4,17-27.8,23-43C424.5,1222.5,429.9,1200.9,430.1,1178.2z"/>
	<path class="st3" d="M247.9,1233c4.1,3.2,8.2,6.3,12.9,8.6c2.3,1.2,2.8,2.5,2.5,5.1c-1.9,16.4-2.4,32.9-0.2,49.3
		c2,15,6.7,29.2,15.3,41.8c14.2,20.8,37.4,29,61.8,21.6c17.3-5.2,32.5-14.3,46.1-26.2c6.3-5.5,12.4-11.2,17.5-17.8
		c1.4-1.8,2.6-2.1,4.7-1.4c7,2.3,14.4,2.8,21.5,4.1c-0.1,0.5-0.2,1-0.4,1.4c-12.7,26-25.8,51.9-41.6,76.3
		c-5.1,7.8-10.7,15.3-17.2,22.1c-7.9,8.2-17.3,12.8-28.8,13.1c-3.8,0.1-7.7,0.3-11.5-0.1c-9.8-0.9-19.5-2-29.2-3.7
		c-5.9-1-11.7-2.7-17.2-5.1c-13.1-5.8-25.7-12.6-37.9-20.1c-7.1-4.4-13.3-10.1-18.8-16.4c-12.1-13.9-15.1-30.4-12.9-48.2
		c1.6-13.1,5.3-25.7,9.3-38.3c6.5-20.3,13.5-40.4,21.3-60.3C245.9,1236.8,246.4,1234.7,247.9,1233z M230.1,1339.9c0,0.7,0,1.3,0,2
		c0.4,4.8,1,9.6,2.5,14.2c0.6,1.9,1.9,3.2,4.1,2.8c2-0.3,3.1-2.1,2.8-4.6c-0.1-1-0.4-2-0.6-2.9c-1.9-7.6-1.7-15.1,0-22.7
		c2.1-9.3,5.5-18.1,9.4-26.7c0.7-1.5,1.6-2.9,1.7-4.6c0.1-1.4-0.4-2.6-1.7-3.3c-1.5-0.8-3-0.6-4.1,0.6c-0.8,0.8-1.4,1.9-1.8,2.9
		c-2.1,4.7-4.2,9.4-6,14.2C232.9,1320.9,230.4,1330.2,230.1,1339.9z M249.3,1366.3c-2.3,0.1-4.2,2.7-3,4.6
		c3.7,5.8,8.9,10.3,14.9,13.7c1.5,0.8,2.9,0,3.9-1.3c0.9-1.2,0.8-2.5,0-3.7c-0.4-0.6-0.8-1.1-1.3-1.5c-4-3-7.7-6.3-11-10
		C251.8,1367,250.7,1366.3,249.3,1366.3z"/>
	<path class="st3" d="M1029.1,1310.5c7.1-1,14.3-1.6,21.1-3.8c2.9-1,4.2,0.2,5.8,2.1c8.3,9.8,17.6,18.6,28.2,25.9
		c12.4,8.6,25.6,15.8,40.5,18.6c20.9,4,38.6-2,52.3-18.3c9.8-11.6,14.9-25.4,17.9-40.1c2.1-10,2.5-20.1,2.4-30.3
		c-0.1-8.7-0.1-17.3-1.6-25.9c-0.4-2.2,0.1-3.4,2-4.4c4.8-2.4,9.1-5.6,13.3-8.8c3.7,6.6,5.9,13.7,8.4,20.7
		c8.1,22.2,16.1,44.4,21.9,67.3c2.4,9.4,3.8,18.9,3.6,28.6c-0.3,14.5-5.3,27-15.1,37.5c-6.7,7.2-14.3,13.5-23,18.2
		c-6.3,3.4-12.6,6.7-18.9,10.3c-14.3,8.1-29.7,12.4-46,13.7c-4.5,0.4-9,0.8-13.4,1.4c-6.4,0.9-12.6,0.1-18.9-0.8
		c-7.9-1.2-14.3-5.2-20-10.6c-6.8-6.5-12.4-13.9-17.5-21.7c-11.3-17.1-21.1-35.1-30.4-53.3c-3.7-7.3-7.3-14.6-11-21.9
		C1030.2,1313.6,1029.2,1312.2,1029.1,1310.5z M1228.9,1331.8c-0.1-0.9-0.1-2.3-0.2-3.6c-1.6-13.9-6.6-26.7-12.5-39.2
		c-0.3-0.6-0.6-1.2-1.1-1.7c-1.1-1.2-2.5-1.7-4-1c-1.5,0.7-2.3,2-2,3.6c0.3,1.4,0.9,2.8,1.5,4.2c3.5,7.7,6.6,15.6,8.8,23.8
		c2.3,8.8,2.9,17.7,0.6,26.6c-0.3,1.1-0.6,2.3-0.6,3.4c0.1,1.6,0.8,2.9,2.5,3.3c1.6,0.4,3-0.2,3.9-1.6c0.4-0.7,0.8-1.5,1-2.3
		C1227.9,1342.5,1228.9,1337.4,1228.9,1331.8z M1213,1362.3c0.1-2.2-1.7-3.7-3.9-3.4c-1.1,0.1-1.9,0.6-2.6,1.4
		c-3.5,3.8-7.3,7.2-11.4,10.4c-1.7,1.3-2.5,3.1-1.1,5.2c1.2,1.7,3.3,1.9,5.7,0.2c4.4-3,8.3-6.6,11.8-10.7
		C1212.3,1364.5,1212.9,1363.6,1213,1362.3z"/>
	<path class="st10" d="M590,609c-0.1,0.2-0.2,0.3-0.3,0.5c0-0.1,0-0.2,0-0.3C589.8,609.1,589.9,609.1,590,609
		C590,609,590,609,590,609z"/>
	<path class="st10" d="M1106,136.2c-0.1-14.1,1.6-27.1,5.2-39.8c3.9-13.7,11.4-25.4,21.4-35.5c1.2-1.2,2.5-2.1,4.4-2.1
		c3.7,0,5.9,2.8,4.8,6.3c-0.5,1.8-1.8,3.1-3.1,4.5c-11.7,11.7-18.1,26.1-20.6,42.3c-1.2,8-2.2,16.1-2,24.3c0.3,14.9,3,29.4,7.3,43.6
		c4,13.1,9.5,25.6,15,38c0.8,1.8,1.7,3.6,1.7,5.7c0,2.5-1,4.1-3.3,4.9c-2.2,0.8-3.9-0.3-5.3-1.8c-0.6-0.7-1.1-1.7-1.5-2.6
		c-7.8-16.7-15.1-33.7-19.3-51.7C1107.8,160.1,1105.7,147.9,1106,136.2z"/>
	<path class="st10" d="M1165.1,50.1c20.8,1.3,37.6,9.7,49.9,26.9c8.4,11.7,13.3,24.8,16.3,38.8c0.8,3.5-0.8,6.2-3.9,6.9
		c-2.5,0.6-4.7-1-5.7-4.3c-1-3.2-1.8-6.4-2.7-9.6c-3.8-13.1-10-25-20-34.5c-9-8.5-19.6-12.9-31.9-13.4c-2.2-0.1-4.3,0.1-6.5,0
		c-1.1,0-2.3-0.1-3.4-0.4c-2.3-0.7-3.7-2.4-3.9-4.7c-0.1-2.2,1.6-3.7,3.4-4.5C1159.4,50.1,1162.2,49.9,1165.1,50.1z"/>
	<path class="st10" d="M1151.9,250.6c-0.2,2.6-1,4.4-3.3,5.5c-2.2,1.1-4.1,0.2-5.3-1.4c-2.6-3.3-4.3-7.2-5.1-11.3
		c-0.5-2.5,1.4-4.1,3.4-5c2.1-0.9,4.2-0.1,5.4,1.6C1149.3,243.3,1150.5,247.1,1151.9,250.6z"/>
	<path class="st10" d="M1236,142.9c0,3.9-2.1,6.7-4.6,6.9c-2.3,0.2-4.6-1.8-5.4-4.9c-0.6-2.4-1.3-4.8-0.9-7.3
		c0.5-3.1,2.1-4.6,4.8-4.6c2.9,0,4.4,1.2,5,4.4C1235.4,139.4,1235.7,141.6,1236,142.9z"/>
	<path class="st10" d="M352.9,148c-0.8,15.5-2.8,29.8-6.7,43.8c-4.4,16-11.2,30.9-17.8,46c-0.7,1.7-1.7,3.3-3.6,3.9
		c-1.9,0.6-3.7,0.3-5.1-1.1c-1.7-1.7-2-3.7-1-6c2.3-5.2,4.5-10.4,6.8-15.6c7.1-16.2,12.7-32.9,15.3-50.4c1.8-11.9,1.8-23.8,0.4-35.8
		c-1.1-9.8-2.8-19.4-6.9-28.4c-3.3-7.3-7.3-14.2-13.1-19.9c-1.6-1.5-3-3.1-4.1-5c-1.4-2.2-1-4,0.7-5.8c1.8-1.8,3.7-2.1,5.9-0.9
		c3.1,1.8,5.4,4.5,7.6,7.2c11.3,14.1,18,30.1,20,48.2C351.9,135.1,351.7,142.2,352.9,148z"/>
	<path class="st10" d="M293.3,64c2.2,0,4.2-0.1,6.2,0c3.3,0.3,5.5,2.5,5.5,5.3c0,3-2,4.8-5.8,4.6c-7.6-0.4-14.9,0.7-22.1,3
		c-10.1,3.2-17.7,9.8-24.1,17.9c-7.6,9.6-12,20.6-14.9,32.4c-0.4,1.5-0.7,2.9-1.1,4.3c-1.1,3.3-3.5,4.9-6.3,4.3
		c-2.7-0.6-4.3-3-3.5-6.7c1-4.9,2.3-9.7,3.9-14.4c4.4-12.5,10.6-24,20.2-33.5c8.6-8.6,19-13.9,30.9-16.3
		C285.8,64.3,289.6,63.6,293.3,64z"/>
	<path class="st10" d="M319.9,258c-0.9,3-2,7-4.7,10.3c-1.4,1.7-3.4,2.2-5.4,1.4c-2.3-0.9-3.2-2.9-2.8-5.3c0.6-4,2.4-7.6,4.6-11
		c1.3-2,3.5-1.8,5.5-1.2C319.1,252.9,320.1,254.6,319.9,258z"/>
	<path class="st10" d="M233.6,152.4c-0.9,2.4-0.2,5.2-1.6,7.6c-1.4,2.4-3.3,3.5-5.7,2.9c-2.1-0.5-4-2.9-3.9-5.1
		c0.1-2.3,0.4-4.6,0.9-6.8c0.6-2.9,3.2-4.9,5.6-4.7C231.5,146.5,233.6,149.2,233.6,152.4z"/>
	<path class="st11" d="M411.2,1038.9c0.1,2.4-1,3.5-2.5,4.4c-3.4,2.1-6.8,4.2-10.1,6.4c-15.1,10.1-28.5,22.4-41,35.5
		c-1.1,1.2-2.3,2.4-3.5,3.5c-1.5,1.3-3.2,1.8-4.9,0.3c-1.5-1.3-1.5-3.3,0-5.4c0.2-0.3,0.4-0.5,0.6-0.8
		c16.2-17.1,33.4-32.9,53.8-44.9c1.1-0.7,2.3-1.4,3.6-1.7C409.1,1035.7,411.1,1037.2,411.2,1038.9z"/>
	<path class="st11" d="M482.8,1113.5c-0.3,6.8-0.7,13.6-1,20.4c0,0.7-0.2,1.3-0.3,2c-0.6,2-1.7,3.3-3.9,3c-2.2-0.3-3-1.9-3.1-3.9
		c-0.1-1,0.1-2,0.2-3c0.9-13.8,0.9-27.5-0.5-41.3c-0.1-1.2-0.2-2.3-0.1-3.5c0.2-1.9,1.2-3.1,3.1-3.3c1.9-0.2,3.3,1,3.6,2.7
		c0.6,2.9,1,5.9,1.1,8.9c0.2,6,0,11.9,0,17.9C482.2,1113.5,482.5,1113.5,482.8,1113.5z"/>
	<path class="st11" d="M1111.2,1078.9c0,2.8-2.8,4.3-5.3,2.8c-1.4-0.9-2.5-2.2-3.7-3.4c-11.9-12.4-24.3-24.2-38.5-33.9
		c-4-2.7-8.1-5.3-12.1-7.9c-1.1-0.7-2.3-1.3-3.1-2.4c-0.8-1.2-0.9-2.5-0.2-3.8c0.7-1.3,1.9-1.8,3.4-1.6c1.7,0.2,3.1,1.2,4.5,2.1
		c14.8,8.9,28.2,19.4,40.4,31.5c4.1,4.1,8.2,8.3,12.3,12.4C1110,1075.9,1111.2,1077.1,1111.2,1078.9z"/>
	<path class="st11" d="M976.2,1106.7c1-9.1,0.2-17,1.5-24.8c0.7-4.2,2-5.8,4.4-5.4c2.2,0.4,3.2,2.2,2.8,6
		c-1.4,14.3-1.5,28.6-0.4,42.9c0,0.5,0.1,1,0.1,1.5c-0.1,2.2-0.7,4-3.1,4.4c-2.1,0.4-3.9-1.1-4.1-4
		C976.8,1120.1,976.5,1112.7,976.2,1106.7z"/>
	<path class="st10" d="M651.4,761.9c2.3-0.1,3.5,0.6,4.1,2.2c0.6,1.7-0.1,3-1.4,3.9c-1.1,0.7-2.3,1.3-3.6,1.7
		c-13.1,5-24.6,12.4-34.8,22.1c-1.1,1-2.2,2.1-3.5,2.8c-1.5,0.9-3.3,1-4.6-0.4c-1.4-1.6-1.1-3.4,0.2-5c0.2-0.3,0.5-0.5,0.7-0.7
		c11.6-11.2,24.8-20.2,40-25.8C649.7,762.3,650.8,762.1,651.4,761.9z"/>
	<path class="st10" d="M689.5,764.7c-0.1,1.8-1.9,3.4-3.8,3.1c-2.8-0.5-5.4-1.6-7.6-3.4c-1.3-1.1-1.5-2.6-0.9-4.1
		c0.6-1.4,1.9-2.2,3.2-1.9c3.1,0.6,6,1.8,8.4,4C689.3,763,689.5,763.9,689.5,764.7z"/>
	<path class="st10" d="M852.2,784.2c0,2.9-2.4,4.5-4.8,3.2c-1.5-0.7-2.8-1.9-3.9-3c-10.3-10-22.2-17.4-35.6-22.5
		c-0.8-0.3-1.6-0.6-2.3-1.1c-1.6-1.1-2.9-2.4-2-4.6c0.8-1.9,2.6-2.7,5-1.8c4.2,1.6,8.3,3.4,12.4,5.3c11,5.1,20.3,12.6,29.1,20.8
		C851.2,781.7,852.2,782.8,852.2,784.2z"/>
	<path class="st10" d="M774,760.2c-2.3,0.1-3.6-0.4-4.2-2c-0.6-1.6-0.1-3,1.2-3.9c2.1-1.6,4.5-2.7,7.1-3.2c1.6-0.3,3,0.2,3.7,1.8
		c0.6,1.5,0.5,2.9-0.8,4C778.8,758.7,776.1,759.5,774,760.2z"/>
	<path class="st8" d="M292,877.8c0-4.3,0-8.6,0-13c0-1,0-2,0.1-3c0.2-1.4,0.7-2.7,2.3-2.7c1.6,0,2.2,1.3,2.2,2.8c0,1.7,0,3.3-0.1,5
		c-1.1,13,0,25.9,1.9,38.7c0.3,1.9,1.2,4.5-1.6,4.9c-2.6,0.3-2.6-2.4-3-4.3c-1.6-8.5-2.2-17.1-2.1-25.8c0-0.8,0-1.7,0-2.5
		C291.9,877.8,292,877.8,292,877.8z"/>
	<path class="st8" d="M297.9,921.3c0-1.6,0.1-2.6,1.3-3c1.4-0.5,2.3,0.3,2.8,1.4c1.9,5.1,3.7,10.3,5.4,15.4c0.4,1.2,0.1,2.3-1.2,2.8
		c-1,0.4-2.2,0.1-2.6-0.9C301.1,931.8,299.3,926.4,297.9,921.3z"/>
	<path class="st8" d="M1159.6,871.9c0.4,9.3-0.5,18.6-1.9,27.8c-0.2,1.5-0.6,2.9-1,4.4c-0.3,1-1.1,1.7-2.3,1.5
		c-1.1-0.2-1.7-1-1.8-2.1c-0.1-0.8,0.1-1.6,0.2-2.5c2.4-13.6,2.5-27.4,2-41.2c0-1.3,0-2.7,0.1-4c0.1-0.9,0.6-1.5,1.6-1.7
		c1.1-0.2,2,0.3,2.3,1.4c0.4,1.6,0.7,3.3,0.7,4.9C1159.7,864.3,1159.6,868.1,1159.6,871.9z"/>
	<path class="st8" d="M1146,933.1c-1.6-0.1-2.3-1.2-1.8-2.7c1.7-5.4,3.6-10.7,5.5-16c0.4-1,1.3-1.6,2.4-1.2c1.3,0.4,1.9,1.4,1.6,2.7
		c-1.4,5.4-3.4,10.7-5.5,15.9C1147.9,932.6,1147.1,933.1,1146,933.1z"/>
	<path class="st10" d="M179.3,851.9c-1.3-0.2-2.1-0.9-2-2.3c0-0.8,0.4-1.6,0.6-2.4c3.1-10,6.6-19.8,11.1-29.2
		c1.1-2.4,2.1-4.9,3.2-7.3c0.5-1,1.1-2.1,1.8-3c0.7-0.9,1.7-1,2.7-0.3c0.7,0.5,1.1,1.2,0.9,2.1c-0.4,1.3-0.8,2.5-1.4,3.7
		c-5.6,11.3-10.1,23-14,35.1C181.3,851.2,180.7,851.9,179.3,851.9z"/>
	<path class="st10" d="M173,874.1c0.4-3.4,0.9-7.3,1.9-11.2c0.3-1.3,0.8-2.7,2.5-2.6c1.9,0.1,1.8,1.7,1.7,3c-0.5,4.6-1,9.2-1.7,13.8
		c-0.2,1.5-0.6,3.2-2.7,2.8c-1.8-0.3-1.6-1.9-1.6-3.2C173,876,173,875.4,173,874.1z"/>
	<path class="st10" d="M1274,843.8c-0.1,1.5,0,2.6-1.2,3c-1.1,0.3-2-0.2-2.5-1.2c-0.6-1.2-1-2.4-1.5-3.7
		c-3.8-11.3-8.1-22.5-13.4-33.2c-0.5-1-1-2.1-1.3-3.2c-0.3-1.3-0.5-2.8,1.2-3.3c1.3-0.4,2.2,0.3,2.8,1.4c0.3,0.6,0.6,1.2,0.9,1.8
		c5.3,11.6,10.4,23.3,14.3,35.5C1273.7,842,1273.9,843.2,1274,843.8z"/>
	<path class="st10" d="M1278.8,871c0,2.1-0.3,3.9-2.5,3.9c-1.9,0-2.3-1.7-2.3-3.3c-0.1-4.2-0.9-8.2-1.7-12.2c-0.1-0.6-0.2-1.3-0.1-2
		c0.1-1.1,0.7-1.9,1.8-2.1c1.2-0.3,1.8,0.5,2.3,1.4c0.9,1.5,0.5,3.3,1,4.8C1278.3,864.7,1277.8,868.2,1278.8,871z"/>
	<path class="st8" d="M83.2,632.9c0.6,0,1.5,0.7,2.4,1.5c9.1,7,19.3,11.7,30,15.6c0.5,0.2,1,0.3,1.4,0.5c1.5,0.7,3.4,1.4,2.5,3.5
		c-0.7,1.8-2.5,1.3-3.9,0.8c-10.7-3.7-21.1-8.2-30.3-15c-1.5-1.1-2.9-2.2-4.3-3.4c-0.6-0.5-0.9-1.4-0.5-2.3
		C81,633.3,81.7,632.9,83.2,632.9z"/>
	<path class="st8" d="M73.6,625c-0.2,1.8-2.2,2.7-3.4,1.5c-2.7-2.9-5.2-5.9-7.7-9c-0.7-0.8-0.5-1.9,0.4-2.7c0.9-0.8,1.9-0.8,2.7-0.1
		c3,2.6,5.5,5.7,7.6,9C73.5,624.2,73.5,624.7,73.6,625z"/>
	<path class="st8" d="M1371,629.4c0.1,1.7-1,2.4-2.1,3.3c-5.3,4.3-11.2,7.8-17.3,10.7c-4.8,2.3-9.8,4-14.7,6
		c-1.1,0.4-2.2,0.8-3.4,0.6c-0.9-0.1-1.6-0.6-1.8-1.5c-0.3-0.9,0.1-1.7,0.9-2.1c1.3-0.7,2.7-1.4,4.1-1.9
		c10.6-3.7,20.5-8.5,29.4-15.4c0.8-0.6,1.6-1.2,2.6-1.4C1369.9,627.4,1370.7,628.2,1371,629.4z"/>
	<path class="st8" d="M1380.2,622c-1.4,0.2-2.7-1.2-2.1-2.6c1.8-4,4.9-7,8.2-9.8c0.5-0.4,1.3-0.4,1.9,0c0.8,0.5,1.2,1.4,0.9,2.1
		c-2,4-5.1,7.2-8.4,10.2C1380.5,622,1380.3,622,1380.2,622z"/>
	<path class="st10" d="M113.5,737.1c8,0.1,15.9-0.9,23.8-1.7c2.8-0.3,5.6-0.3,8.5-0.4c1,0,2,0.3,2.2,1.5c0.1,1.2-0.6,1.9-1.6,2.2
		c-1.9,0.5-3.9,0.9-5.9,1.1c-5,0.5-9.9,0.8-14.9,1.1c-3.3,0.2-6.6,0.1-9.9,0.8c-4,0.7-7.9-0.1-11.9-0.6c-1.2-0.2-2.4-0.6-2.3-2.1
		c0.1-1.4,1.3-1.8,2.5-1.9C107.1,737,110.3,737.1,113.5,737.1z"/>
	<path class="st10" d="M92.8,737.6c0,1.6-1.6,2.7-3.7,2.1c-4.3-1.1-8.6-2.5-12.9-3.8c-1.1-0.3-2.2-0.8-3.2-1.4
		c-1-0.6-2.1-1.5-1.5-2.8c0.6-1.5,1.9-1.6,3.4-1.1c5.2,1.8,10.3,3.6,15.7,4.7C91.9,735.5,92.7,736.2,92.8,737.6z"/>
	<path class="st10" d="M1339.8,737c-11.3-1.1-22.6-1.2-33.7-3c-1.6-0.2-3.1-0.7-2.8-2.7c0.3-1.6,1.8-1.9,3.1-1.8
		c7.4,0.7,14.8,1.5,22.2,2.2c5.5,0.6,11,0.2,16.4,0.3c1.8,0.1,4.5-1.1,4.7,2c0.2,2.7-2.6,2-4.2,2.4
		C1343.8,736.9,1341.7,736.8,1339.8,737z"/>
	<path class="st10" d="M1361.5,734.8c-1,0.1-2-0.4-2.4-1.7c-0.4-1.3,0.3-2.4,1.6-2.7c5.5-1.4,10.8-3.1,16.1-5.1
		c1.2-0.4,2.4,0.1,2.9,1.3c0.5,1.3-0.1,2.4-1.2,2.9C1373,731.7,1367.6,733.6,1361.5,734.8z"/>
	<path class="st10" d="M884.2,751.1c0.1-11,3.3-21,9-30.2c0.8-1.3,1.7-2.5,2.8-3.5c1.1-1.1,2.6-1.6,4.1-0.6c1.6,1.1,2.2,2.5,1.4,4.3
		c-0.5,1.1-1.1,2.1-1.7,3c-5.4,8.5-8.4,17.6-7.9,27.8c0.1,1.7,0.1,3.3-0.2,5c-0.3,1.8-1.4,3-3.4,3.1c-2,0.1-3.1-1.1-3.4-3
		C884.6,755.1,884.4,753.1,884.2,751.1z"/>
	<path class="st8" d="M896.8,774.9c-0.1,2.1-0.9,3.5-2.7,4c-1.6,0.5-3-0.2-3.9-1.6c-1-1.6-1.7-3.3-1.9-5.1c-0.2-1.9,0.7-3.2,2.4-3.9
		c1.6-0.6,3,0,3.9,1.3C895.8,771.3,896.4,773.2,896.8,774.9z"/>
	<path class="st10" d="M567.2,757.3c0.4-9-2.9-17.1-7.4-24.8c-0.7-1.3-1.6-2.5-2.3-3.9c-0.8-1.6-0.2-3,1.1-4c1.3-1.1,2.9-1,4.1,0
		c0.9,0.7,1.6,1.7,2.3,2.6c7,10.4,10.1,21.9,9.6,34.4c-0.2,3.9-1.7,6-3.9,6c-2.3-0.1-3.4-2.1-3.5-6.2
		C567.2,760.2,567.2,758.8,567.2,757.3z"/>
	<path class="st10" d="M570.7,779.5c-0.6,2-0.9,4.2-2.4,5.8c-1,1-2.1,1.5-3.6,0.9c-1.4-0.5-2.3-1.5-2.3-2.9c0-2.3,0.7-4.6,2.3-6.4
		c1.1-1.3,2.6-1.4,4.1-0.7C570.1,776.8,570.5,778.1,570.7,779.5z"/>
	<path class="st1" d="M529.9,938.6c-1.2,1.2-1.7,2.9-2.2,4.5c-15.7-7.1-31.4-14.3-47.1-21.4c-0.7-0.3-1.6-0.4-2.4-0.7
		c-0.1-2.3,2.3-3,2.9-4.8c15.9,7.2,31.8,14.3,47.7,21.5C529.2,937.9,529.5,938.3,529.9,938.6z"/>
	<path class="st10" d="M85,827c-1.4,0-2.1-0.7-2-2.1c0.1-1.4,0.9-2.5,1.6-3.6c5-7.5,10.9-14.2,17.3-20.6c0.6-0.6,1.2-1.1,2-1.5
		c0.8-0.4,1.7-0.4,2.3,0.3c0.9,0.8,0.6,1.8,0,2.7c-1.3,1.7-2.6,3.5-4.1,5c-5.4,5.3-9.9,11.2-14.2,17.3C87.2,825.5,86.7,827,85,827z"
		/>
	<path class="st10" d="M1368.9,820.1c-0.1,1.2-0.5,1.9-1.3,2.3c-0.7,0.3-1.3,0.2-1.8-0.3c-0.8-0.8-1.7-1.6-2.3-2.6
		c-4.6-7.3-10.2-13.8-16.3-20c-0.7-0.7-1.4-1.5-1.8-2.3c-0.5-0.9-0.6-2,0.3-2.7c0.9-0.7,1.9-0.5,2.8,0c0.3,0.2,0.6,0.3,0.8,0.6
		c6.5,7.5,13.8,14.3,18.7,23.1C1368.4,818.9,1368.6,819.6,1368.9,820.1z"/>
	<path class="st11" d="M1192.6,350c-0.1-0.7,0.1-1.5,0.7-1.5c0.6,0,0.6,0.9,0.6,1.5C1193.5,350,1193.1,350,1192.6,350z"/>
	<path class="st9" d="M1192.6,350c0.4,0,0.9,0,1.3,0.1c0,0.4,0.1,1-0.5,1.1C1192.6,351.2,1192.6,350.5,1192.6,350z"/>
	<path class="st12" d="M1170,1269.7c0.3,14.2-1.5,26.5-7.2,37.9c-4.7,9.3-11.5,16.2-22,18.8c-5.3,1.3-10.6,1.2-15.8,0.2
		c-12.4-2.5-22.6-9-32.2-17c-13.8-11.4-24.4-25.4-33.6-40.4c-9.4-15.4-16.8-31.7-22-49c-3.4-11.1-5.9-22.4-7.3-34
		c-1.1-9-1.2-18-0.6-26.9c0.8-11.3,3.6-22.3,10.5-31.7c6.3-8.5,14.3-13.3,25.3-13.6c13.5-0.5,24.5,5.1,34.9,12.7
		c18.3,13.4,31.5,31.1,42.7,50.6c7.6,13.2,13.7,27,18.3,41.4c4,12.5,7.1,25.1,8.3,38.3C1169.6,1261.7,1169.9,1266.5,1170,1269.7z
		 M1165.2,1269.5c0.5-1.9-1.2-5.4-1.2-9.1c-0.1-6.5-1.2-12.9-2.6-19.2c-4.8-21.7-12.4-42.4-23.6-61.6c-10.1-17.4-21.9-33.3-37.7-46
		c-8.4-6.7-17.4-12.1-28.2-14.1c-12.8-2.4-22.5,2.7-29.3,13.3c-6.4,9.9-8.1,21.3-8.6,32.8c-0.4,8.5,0.6,16.9,1.8,25.3
		c2.6,17.7,7.9,34.6,15.1,50.9c10.3,23.1,23.8,44.2,42.7,61.4c9.5,8.6,20.1,15.2,32.8,18.1c12.1,2.8,23.8-2.9,30.1-13.5
		C1163.1,1296.6,1164.2,1283.9,1165.2,1269.5z"/>
	<path class="st12" d="M430.1,1178.2c-0.2,22.7-5.6,44.3-13.9,65.3c-6,15.2-13.6,29.6-23,43c-10.5,14.9-22.4,28.5-37.9,38.5
		c-8,5.2-16.7,9.2-26.3,9.9c-12.1,0.9-21.7-4.1-28.9-13.6c-6.3-8.3-8.9-18-10.3-28.2c-0.7-5-0.8-9.9-0.9-14.9
		c-0.3-10.4,1.4-20.5,3.4-30.6c3.6-18.2,9.9-35.5,18.2-52.1c6.8-13.7,14.7-26.8,24.8-38.5c8.4-9.7,17.2-18.9,28.1-26
		c8.1-5.2,16.7-9.2,26.3-9.9c15-1.1,25.8,5.8,32.9,18.9c3.5,6.5,5.2,13.6,6.6,20.8C430.2,1166.6,429.9,1172.4,430.1,1178.2z
		 M425,1177.3c0.3-10.2-2-21.8-5-29.8c-5.9-15.5-17.4-23.5-34.6-20.3c-8.6,1.6-16.2,5.8-23.2,11.1c-7.3,5.5-14,11.6-20,18.6
		c-8.3,9.8-15.7,20.2-21.9,31.4c-8.6,15.4-15.5,31.6-20,48.8c-4.3,16.6-7.4,33.2-5.6,50.5c0.7,6.9,1.8,13.5,4.2,19.8
		c2.3,6.1,5.3,11.9,10.4,16.1c7.1,5.9,15.6,6.5,24.1,4.9c8.6-1.5,16.3-5.7,23.3-11c7.6-5.7,14.5-12.1,20.7-19.3
		c10.2-12,18.7-25,25.8-38.9c6.5-12.7,11.7-26,15.5-39.9C422.4,1205.7,424.7,1191.7,425,1177.3z"/>
	<path class="st11" d="M230.1,1339.9c0.3-9.8,2.8-19,6.2-28.1c1.8-4.8,4-9.5,6-14.2c0.5-1,1-2.1,1.8-2.9c1.1-1.2,2.6-1.4,4.1-0.6
		c1.3,0.7,1.8,1.9,1.7,3.3c-0.1,1.7-1,3.1-1.7,4.6c-3.9,8.6-7.4,17.4-9.4,26.7c-1.7,7.6-1.9,15.1,0,22.7c0.2,1,0.5,1.9,0.6,2.9
		c0.3,2.5-0.8,4.3-2.8,4.6c-2.2,0.3-3.5-0.9-4.1-2.8c-1.5-4.6-2.2-9.4-2.5-14.2C230.1,1341.2,230.1,1340.6,230.1,1339.9z"/>
	<path class="st11" d="M249.3,1366.3c1.4,0,2.6,0.7,3.5,1.7c3.3,3.7,7.1,7,11,10c0.5,0.4,1,0.9,1.3,1.5c0.8,1.2,0.9,2.5,0,3.7
		c-1,1.3-2.4,2.2-3.9,1.3c-6-3.4-11.1-7.9-14.9-13.7C245.1,1369,247,1366.4,249.3,1366.3z"/>
	<path class="st11" d="M1228.9,1331.8c0,5.6-0.9,10.6-2.2,15.6c-0.2,0.8-0.5,1.6-1,2.3c-0.9,1.4-2.2,2-3.9,1.6
		c-1.7-0.4-2.5-1.7-2.5-3.3c0-1.1,0.3-2.3,0.6-3.4c2.3-8.9,1.7-17.7-0.6-26.6c-2.2-8.2-5.3-16.1-8.8-23.8c-0.6-1.4-1.2-2.8-1.5-4.2
		c-0.3-1.6,0.5-2.9,2-3.6c1.6-0.7,2.9-0.2,4,1c0.4,0.5,0.8,1.1,1.1,1.7c5.9,12.5,10.9,25.3,12.5,39.2
		C1228.8,1329.6,1228.8,1330.9,1228.9,1331.8z"/>
	<path class="st11" d="M1213,1362.3c0,1.2-0.7,2.2-1.5,3.1c-3.5,4.1-7.4,7.7-11.8,10.7c-2.4,1.7-4.5,1.5-5.7-0.2
		c-1.5-2.1-0.6-3.9,1.1-5.2c4.1-3.2,7.9-6.6,11.4-10.4c0.7-0.7,1.5-1.2,2.6-1.4C1211.3,1358.7,1213,1360.2,1213,1362.3z"/>
	<path class="st13" d="M1165.2,1269.5c-1.1,14.4-2.1,27-8.7,38.3c-6.2,10.7-17.9,16.3-30.1,13.5c-12.7-2.9-23.3-9.5-32.8-18.1
		c-18.9-17.2-32.4-38.3-42.7-61.4c-7.2-16.3-12.6-33.2-15.1-50.9c-1.2-8.4-2.2-16.8-1.8-25.3c0.5-11.6,2.3-22.9,8.6-32.8
		c6.8-10.6,16.4-15.7,29.3-13.3c10.8,2,19.8,7.4,28.2,14.1c15.8,12.7,27.6,28.6,37.7,46c11.2,19.3,18.8,39.9,23.6,61.6
		c1.4,6.3,2.5,12.7,2.6,19.2C1164.1,1264.1,1165.7,1267.6,1165.2,1269.5z"/>
	<path class="st13" d="M425,1177.3c-0.3,14.3-2.6,28.3-6.3,42.1c-3.7,13.8-9,27.1-15.5,39.9c-7.1,13.9-15.5,27-25.8,38.9
		c-6.2,7.3-13.1,13.7-20.7,19.3c-7,5.2-14.6,9.4-23.3,11c-8.5,1.5-17,1-24.1-4.9c-5.1-4.3-8.2-10-10.4-16.1
		c-2.4-6.4-3.5-13-4.2-19.8c-1.7-17.3,1.3-34,5.6-50.5c4.5-17.2,11.4-33.3,20-48.8c6.2-11.2,13.6-21.6,21.9-31.4
		c6-7,12.7-13.1,20-18.6c6.9-5.3,14.6-9.5,23.2-11.1c17.3-3.2,28.8,4.9,34.6,20.3C423,1155.5,425.3,1167.2,425,1177.3z"/>
</g>
</svg>
