<?xml version="1.0" encoding="utf-8"?>
<!-- Generator: Adobe Illustrator 26.3.1, SVG Export Plug-In . SVG Version: 6.00 Build 0)  -->
<svg version="1.1" id="Layer_1" xmlns="http://www.w3.org/2000/svg" xmlns:xlink="http://www.w3.org/1999/xlink" x="0px" y="0px"
	 width="2500px" height="2500px" viewBox="0 0 2500 2500" style="enable-background:new 0 0 2500 2500;" xml:space="preserve">
<style type="text/css">
	.st0{fill:#DA1C5C;}
	.st1{fill:#FBB040;}
	.st2{fill:#7F3F98;}
	.st3{fill:#00A651;}
	.st4{fill:#FFFFFF;stroke:#FFFFFF;stroke-width:0.5;stroke-miterlimit:10;}
	.st5{stroke:#000000;stroke-width:0.5;stroke-miterlimit:10;}
	.st6{fill:#C2B59B;}
	.st7{fill:#BE1E2D;}
	.st8{fill:#FFF200;}
	.st9{fill:#808285;}
	.st10{fill:#594A42;}
	.st11{fill:#EC008C;}
	.st12{fill:#00AEEF;}
</style>
<rect x="1.0905895" y="1.0905895" class="st1" width="2497.8188477" height="2497.8188477"/>
<rect x="958.7026978" y="1998.475708" class="st4" width="83.2168655" height="83.2168655"/>
<rect x="1041.9195557" y="1998.475708" class="st4" width="83.2168655" height="83.2168655"/>
<rect x="1125.1364746" y="1998.475708" class="st4" width="83.2168655" height="83.2168655"/>
<rect x="1208.3532715" y="1998.475708" class="st4" width="83.2168655" height="83.2168655"/>
<rect x="1291.5701904" y="1998.475708" class="st4" width="83.2168655" height="83.2168655"/>
<rect x="1374.7871094" y="1998.475708" class="st4" width="83.2168655" height="83.2168655"/>
<rect x="1458.0039062" y="1998.475708" class="st4" width="83.2168655" height="83.2168655"/>
<rect x="1541.2208252" y="1998.475708" class="st4" width="83.2168655" height="83.2168655"/>
<rect x="1624.4376221" y="1998.475708" class="st4" width="83.2168655" height="83.2168655"/>
<rect x="1707.654541" y="1998.475708" class="st4" width="83.2168655" height="83.2168655"/>
<rect x="1790.8713379" y="1998.475708" class="st4" width="83.2168655" height="83.2168655"/>
<rect x="1874.0882568" y="1998.475708" class="st4" width="83.2168655" height="83.2168655"/>
<rect x="958.7026978" y="1915.2589111" class="st4" width="83.2168655" height="83.2168655"/>
<rect x="1041.9195557" y="1915.2589111" class="st4" width="83.2168655" height="83.2168655"/>
<rect x="1125.1364746" y="1915.2589111" class="st4" width="83.2168655" height="83.2168655"/>
<rect x="1208.3532715" y="1915.2589111" class="st4" width="83.2168655" height="83.2168655"/>
<rect x="1291.5701904" y="1915.2589111" class="st4" width="83.2168655" height="83.2168655"/>
<rect x="1374.7871094" y="1915.2589111" class="st4" width="83.2168655" height="83.2168655"/>
<rect x="1458.0039062" y="1915.2589111" class="st4" width="83.2168655" height="83.2168655"/>
<rect x="1541.2208252" y="1915.2589111" class="st4" width="83.2168655" height="83.2168655"/>
<rect x="1624.4376221" y="1915.2589111" class="st4" width="83.2168655" height="83.2168655"/>
<rect x="1707.654541" y="1915.2589111" class="st4" width="83.2168655" height="83.2168655"/>
<rect x="1790.8713379" y="1915.2589111" class="st4" width="83.2168655" height="83.2168655"/>
<rect x="1874.0882568" y="1915.2589111" class="st4" width="83.2168655" height="83.2168655"/>
<rect x="958.7026978" y="1832.0419922" class="st4" width="83.2168655" height="83.2168655"/>
<rect x="1041.9195557" y="1832.0419922" class="st4" width="83.2168655" height="83.2168655"/>
<rect x="1125.1364746" y="1832.0419922" class="st4" width="83.2168655" height="83.2168655"/>
<rect x="1208.3532715" y="1832.0419922" class="st4" width="83.2168655" height="83.2168655"/>
<rect x="1291.5701904" y="1832.0419922" class="st4" width="83.2168655" height="83.2168655"/>
<rect x="1374.7871094" y="1832.0419922" class="st4" width="83.2168655" height="83.2168655"/>
<rect x="1458.0039062" y="1832.0419922" class="st4" width="83.2168655" height="83.2168655"/>
<rect x="1541.2208252" y="1832.0419922" class="st4" width="83.2168655" height="83.2168655"/>
<rect x="1624.4376221" y="1832.0419922" class="st4" width="83.2168655" height="83.2168655"/>
<rect x="1707.654541" y="1832.0419922" class="st4" width="83.2168655" height="83.2168655"/>
<rect x="1790.8713379" y="1832.0419922" class="st4" width="83.2168655" height="83.2168655"/>
<rect x="1874.0882568" y="1832.0419922" class="st4" width="83.2168655" height="83.2168655"/>
<rect x="958.7026978" y="1748.8251953" class="st4" width="83.2168655" height="83.2168655"/>
<rect x="1041.9195557" y="1748.8251953" class="st4" width="83.2168655" height="83.2168655"/>
<rect x="1125.1364746" y="1748.8251953" class="st4" width="83.2168655" height="83.2168655"/>
<rect x="1208.3532715" y="1748.8251953" class="st4" width="83.2168655" height="83.2168655"/>
<rect x="1291.5701904" y="1748.8251953" class="st4" width="83.2168655" height="83.2168655"/>
<rect x="1374.7871094" y="1748.8251953" class="st4" width="83.2168655" height="83.2168655"/>
<rect x="1458.0039062" y="1748.8251953" class="st4" width="83.2168655" height="83.2168655"/>
<rect x="1541.2208252" y="1748.8251953" class="st4" width="83.2168655" height="83.2168655"/>
<rect x="1624.4376221" y="1748.8251953" class="st4" width="83.2168655" height="83.2168655"/>
<rect x="1707.654541" y="1748.8251953" class="st4" width="83.2168655" height="83.2168655"/>
<rect x="1790.8713379" y="1748.8251953" class="st4" width="83.2168655" height="83.2168655"/>
<rect x="1874.0882568" y="1748.8251953" class="st4" width="83.2168655" height="83.2168655"/>
<rect x="958.7026978" y="1665.6082764" class="st4" width="83.2168655" height="83.2168655"/>
<rect x="1041.9195557" y="1665.6082764" class="st4" width="83.2168655" height="83.2168655"/>
<rect x="1125.1364746" y="1665.6082764" class="st4" width="83.2168655" height="83.2168655"/>
<rect x="1208.3532715" y="1665.6082764" class="st4" width="83.2168655" height="83.2168655"/>
<rect x="1291.5701904" y="1665.6082764" class="st4" width="83.2168655" height="83.2168655"/>
<rect x="1374.7871094" y="1665.6082764" class="st4" width="83.2168655" height="83.2168655"/>
<rect x="1458.0039062" y="1665.6082764" class="st4" width="83.2168655" height="83.2168655"/>
<rect x="1541.2208252" y="1665.6082764" class="st4" width="83.2168655" height="83.2168655"/>
<rect x="1624.4376221" y="1665.6082764" class="st4" width="83.2168655" height="83.2168655"/>
<rect x="1707.654541" y="1665.6082764" class="st4" width="83.2168655" height="83.2168655"/>
<rect x="1790.8713379" y="1665.6082764" class="st4" width="83.2168655" height="83.2168655"/>
<rect x="1874.0882568" y="1665.6082764" class="st4" width="83.2168655" height="83.2168655"/>
<rect x="958.7026978" y="1582.3913574" class="st4" width="83.2168655" height="83.2168655"/>
<rect x="1041.9195557" y="1582.3913574" class="st4" width="83.2168655" height="83.2168655"/>
<rect x="1125.1364746" y="1582.3913574" class="st4" width="83.2168655" height="83.2168655"/>
<rect x="1208.3532715" y="1582.3913574" class="st4" width="83.2168655" height="83.2168655"/>
<rect x="1291.5701904" y="1582.3913574" class="st4" width="83.2168655" height="83.2168655"/>
<rect x="1374.7871094" y="1582.3913574" class="st4" width="83.2168655" height="83.2168655"/>
<rect x="1458.0039062" y="1582.3913574" class="st4" width="83.2168655" height="83.2168655"/>
<rect x="1541.2208252" y="1582.3913574" class="st4" width="83.2168655" height="83.2168655"/>
<rect x="1624.4376221" y="1582.3913574" class="st4" width="83.2168655" height="83.2168655"/>
<rect x="1707.654541" y="1582.3913574" class="st4" width="83.2168655" height="83.2168655"/>
<rect x="1790.8713379" y="1582.3913574" class="st4" width="83.2168655" height="83.2168655"/>
<rect x="1874.0882568" y="1582.3913574" class="st4" width="83.2168655" height="83.2168655"/>
<rect x="958.7026978" y="1499.1745605" class="st4" width="83.2168655" height="83.2168655"/>
<rect x="1041.9195557" y="1499.1745605" class="st4" width="83.2168655" height="83.2168655"/>
<rect x="1125.1364746" y="1499.1745605" class="st4" width="83.2168655" height="83.2168655"/>
<rect x="1208.3532715" y="1499.1745605" class="st4" width="83.2168655" height="83.2168655"/>
<rect x="1291.5701904" y="1499.1745605" class="st4" width="83.2168655" height="83.2168655"/>
<rect x="1374.7871094" y="1499.1745605" class="st4" width="83.2168655" height="83.2168655"/>
<rect x="1458.0039062" y="1499.1745605" class="st4" width="83.2168655" height="83.2168655"/>
<rect x="1541.2208252" y="1499.1745605" class="st4" width="83.2168655" height="83.2168655"/>
<rect x="1624.4376221" y="1499.1745605" class="st4" width="83.2168655" height="83.2168655"/>
<rect x="1707.654541" y="1499.1745605" class="st4" width="83.2168655" height="83.2168655"/>
<rect x="1790.8713379" y="1499.1745605" class="st4" width="83.2168655" height="83.2168655"/>
<rect x="1874.0882568" y="1499.1745605" class="st4" width="83.2168655" height="83.2168655"/>
<rect x="958.7026978" y="1415.9576416" class="st4" width="83.2168655" height="83.2168655"/>
<rect x="875.4858398" y="1915.2589111" class="st4" width="83.2168655" height="83.2168655"/>
<rect x="875.4858398" y="1998.475708" class="st4" width="83.2168655" height="83.2168655"/>
<rect x="875.4858398" y="1832.0419922" class="st4" width="83.2168655" height="83.2168655"/>
<rect x="875.4858398" y="1748.8251953" class="st4" width="83.2168655" height="83.2168655"/>
<rect x="875.4858398" y="1665.6082764" class="st4" width="83.2168655" height="83.2168655"/>
<rect x="875.4858398" y="1582.3913574" class="st4" width="83.2168655" height="83.2168655"/>
<rect x="875.4858398" y="1499.1745605" class="st4" width="83.2168655" height="83.2168655"/>
<rect x="875.4858398" y="1415.9576416" class="st4" width="83.2168655" height="83.2168655"/>
<rect x="792.2689819" y="1915.2589111" class="st4" width="83.2168655" height="83.2168655"/>
<rect x="792.2689819" y="1832.0419922" class="st4" width="83.2168655" height="83.2168655"/>
<rect x="792.2689819" y="1748.8251953" class="st4" width="83.2168655" height="83.2168655"/>
<rect x="792.2689819" y="1665.6082764" class="st4" width="83.2168655" height="83.2168655"/>
<rect x="792.2689819" y="1582.3913574" class="st4" width="83.2168655" height="83.2168655"/>
<rect x="792.2689819" y="1499.1745605" class="st4" width="83.2168655" height="83.2168655"/>
<rect x="792.2689819" y="1415.9576416" class="st4" width="83.2168655" height="83.2168655"/>
<rect x="709.052124" y="1915.2589111" class="st4" width="83.2168655" height="83.2168655"/>
<rect x="709.052124" y="1832.0419922" class="st4" width="83.2168655" height="83.2168655"/>
<rect x="709.052124" y="1748.8251953" class="st4" width="83.2168655" height="83.2168655"/>
<rect x="709.052124" y="1665.6082764" class="st4" width="83.2168655" height="83.2168655"/>
<rect x="709.052124" y="1582.3913574" class="st4" width="83.2168655" height="83.2168655"/>
<rect x="709.052124" y="1499.1745605" class="st4" width="83.2168655" height="83.2168655"/>
<rect x="709.052124" y="1415.9576416" class="st4" width="83.2168655" height="83.2168655"/>
<rect x="625.8352661" y="1915.2589111" class="st4" width="83.2168655" height="83.2168655"/>
<rect x="625.8352661" y="1832.0419922" class="st4" width="83.2168655" height="83.2168655"/>
<rect x="625.8352661" y="1748.8251953" class="st4" width="83.2168655" height="83.2168655"/>
<rect x="625.8352661" y="1665.6082764" class="st4" width="83.2168655" height="83.2168655"/>
<rect x="625.8352661" y="1582.3913574" class="st4" width="83.2168655" height="83.2168655"/>
<rect x="625.8352661" y="1499.1745605" class="st4" width="83.2168655" height="83.2168655"/>
<rect x="625.8352661" y="1415.9576416" class="st4" width="83.2168655" height="83.2168655"/>
<rect x="875.4858398" y="1332.7408447" class="st4" width="83.2168655" height="83.2168655"/>
<rect x="792.2689819" y="1332.7408447" class="st4" width="83.2168655" height="83.2168655"/>
<rect x="709.052124" y="1332.7408447" class="st4" width="83.2168655" height="83.2168655"/>
<rect x="625.8352661" y="1332.7408447" class="st4" width="83.2168655" height="83.2168655"/>
<rect x="875.4858398" y="1249.5239258" class="st4" width="83.2168655" height="83.2168655"/>
<rect x="792.2689819" y="1249.5239258" class="st4" width="83.2168655" height="83.2168655"/>
<rect x="709.052124" y="1249.5239258" class="st4" width="83.2168655" height="83.2168655"/>
<rect x="625.8352661" y="1249.5239258" class="st4" width="83.2168655" height="83.2168655"/>
<rect x="875.4858398" y="1166.3071289" class="st4" width="83.2168655" height="83.2168655"/>
<rect x="792.2689819" y="1166.3071289" class="st4" width="83.2168655" height="83.2168655"/>
<rect x="709.052124" y="1166.3071289" class="st4" width="83.2168655" height="83.2168655"/>
<rect x="625.8352661" y="1166.3071289" class="st4" width="83.2168655" height="83.2168655"/>
<rect x="542.6184082" y="1332.7408447" class="st4" width="83.2168655" height="83.2168655"/>
<rect x="459.4015198" y="1332.7408447" class="st4" width="83.2168655" height="83.2168655"/>
<rect x="542.6184082" y="1249.5239258" class="st4" width="83.2168655" height="83.2168655"/>
<rect x="459.4015198" y="1249.5239258" class="st4" width="83.2168655" height="83.2168655"/>
<rect x="542.6184082" y="1166.3071289" class="st4" width="83.2168655" height="83.2168655"/>
<rect x="459.4015198" y="1166.3071289" class="st4" width="83.2168655" height="83.2168655"/>
<rect x="376.1846619" y="1332.7408447" class="st4" width="83.2168655" height="83.2168655"/>
<rect x="292.967804" y="1332.7408447" class="st4" width="83.2168655" height="83.2168655"/>
<rect x="459.4015198" y="1415.9576416" class="st4" width="83.2168655" height="83.2168655"/>
<rect x="376.1846619" y="1415.9576416" class="st4" width="83.2168655" height="83.2168655"/>
<rect x="459.4015198" y="1499.1745605" class="st4" width="83.2168655" height="83.2168655"/>
<rect x="376.1846619" y="1499.1745605" class="st4" width="83.2168655" height="83.2168655"/>
<rect x="292.967804" y="1415.9576416" class="st4" width="83.2168655" height="83.2168655"/>
<rect x="376.1846619" y="1249.5239258" class="st4" width="83.2168655" height="83.2168655"/>
<rect x="292.967804" y="1249.5239258" class="st4" width="83.2168655" height="83.2168655"/>
<rect x="376.1846619" y="1166.3071289" class="st4" width="83.2168655" height="83.2168655"/>
<rect x="292.967804" y="1166.3071289" class="st4" width="83.2168655" height="83.2168655"/>
<rect x="292.967804" y="666.8834839" class="st4" width="83.2168655" height="83.2168655"/>
<rect x="292.967804" y="583.8979492" class="st4" width="83.2168655" height="83.2168655"/>
<rect x="376.2391357" y="500.6266174" class="st4" width="83.2168655" height="83.2168655"/>
<rect x="459.5104675" y="417.3552856" class="st4" width="83.2168655" height="83.2168655"/>
<rect x="542.7817993" y="334.0839539" class="st4" width="83.2168655" height="83.2168655"/>
<rect x="626.0531616" y="250.8126068" class="st4" width="83.2168655" height="83.2168655"/>
<rect x="875.4858398" y="1083.09021" class="st4" width="83.2168655" height="83.2168655"/>
<rect x="792.2689819" y="1083.09021" class="st4" width="83.2168655" height="83.2168655"/>
<rect x="709.052124" y="1083.09021" class="st4" width="83.2168655" height="83.2168655"/>
<rect x="625.8352661" y="1083.09021" class="st4" width="83.2168655" height="83.2168655"/>
<rect x="1041.9195557" y="1415.9576416" class="st4" width="83.2168655" height="83.2168655"/>
<rect x="1125.1364746" y="1415.9576416" class="st4" width="83.2168655" height="83.2168655"/>
<rect x="1208.3532715" y="1415.9576416" class="st4" width="83.2168655" height="83.2168655"/>
<rect x="1291.5701904" y="1415.9576416" class="st4" width="83.2168655" height="83.2168655"/>
<rect x="1374.7871094" y="1415.9576416" class="st4" width="83.2168655" height="83.2168655"/>
<rect x="1458.0039062" y="1415.9576416" class="st4" width="83.2168655" height="83.2168655"/>
<rect x="1541.2208252" y="1415.9576416" class="st4" width="83.2168655" height="83.2168655"/>
<rect x="1624.4376221" y="1415.9576416" class="st4" width="83.2168655" height="83.2168655"/>
<rect x="1707.654541" y="1415.9576416" class="st4" width="83.2168655" height="83.2168655"/>
<rect x="1790.8713379" y="1415.9576416" class="st4" width="83.2168655" height="83.2168655"/>
<rect x="1874.0882568" y="1415.9576416" class="st4" width="83.2168655" height="83.2168655"/>
<rect x="1957.3051758" y="1998.475708" class="st4" width="83.2168655" height="83.2168655"/>
<rect x="1957.3051758" y="1915.2589111" class="st4" width="83.2168655" height="83.2168655"/>
<rect x="1957.3051758" y="1832.0419922" class="st4" width="83.2168655" height="83.2168655"/>
<rect x="1957.3051758" y="1748.8251953" class="st4" width="83.2168655" height="83.2168655"/>
<rect x="1957.3051758" y="1665.6082764" class="st4" width="83.2168655" height="83.2168655"/>
<rect x="1957.3051758" y="1582.3913574" class="st4" width="83.2168655" height="83.2168655"/>
<rect x="1957.3051758" y="1499.1745605" class="st4" width="83.2168655" height="83.2168655"/>
<rect x="1957.3051758" y="1415.9576416" class="st4" width="83.2168655" height="83.2168655"/>
<rect x="2040.5219727" y="1998.475708" class="st4" width="83.2168655" height="83.2168655"/>
<rect x="2040.5219727" y="1915.2589111" class="st4" width="83.2168655" height="83.2168655"/>
<rect x="2040.5219727" y="1832.0419922" class="st4" width="83.2168655" height="83.2168655"/>
<rect x="2040.5219727" y="1748.8251953" class="st4" width="83.2168655" height="83.2168655"/>
<rect x="2040.5219727" y="1665.6082764" class="st4" width="83.2168655" height="83.2168655"/>
<rect x="2040.5219727" y="1582.3913574" class="st4" width="83.2168655" height="83.2168655"/>
<rect x="2040.5219727" y="1499.1745605" class="st4" width="83.2168655" height="83.2168655"/>
<rect x="2040.5219727" y="1415.9576416" class="st4" width="83.2168655" height="83.2168655"/>
<rect x="2040.5219727" y="1332.7408447" class="st4" width="83.2168655" height="83.2168655"/>
<rect x="958.7026978" y="1332.7408447" class="st4" width="83.2168655" height="83.2168655"/>
<rect x="1041.9195557" y="1332.7408447" class="st4" width="83.2168655" height="83.2168655"/>
<rect x="1125.1364746" y="1332.7408447" class="st4" width="83.2168655" height="83.2168655"/>
<rect x="1208.3532715" y="1332.7408447" class="st4" width="83.2168655" height="83.2168655"/>
<rect x="1291.5701904" y="1332.7408447" class="st4" width="83.2168655" height="83.2168655"/>
<rect x="1374.7871094" y="1332.7408447" class="st4" width="83.2168655" height="83.2168655"/>
<rect x="1458.0039062" y="1332.7408447" class="st4" width="83.2168655" height="83.2168655"/>
<rect x="1541.2208252" y="1332.7408447" class="st4" width="83.2168655" height="83.2168655"/>
<rect x="1624.4376221" y="1332.7408447" class="st4" width="83.2168655" height="83.2168655"/>
<rect x="1707.654541" y="1332.7408447" class="st4" width="83.2168655" height="83.2168655"/>
<rect x="1790.8713379" y="1332.7408447" class="st4" width="83.2168655" height="83.2168655"/>
<rect x="1874.0882568" y="1332.7408447" class="st4" width="83.2168655" height="83.2168655"/>
<rect x="958.7026978" y="1249.5239258" class="st4" width="83.2168655" height="83.2168655"/>
<rect x="1041.9195557" y="1249.5239258" class="st4" width="83.2168655" height="83.2168655"/>
<rect x="1125.1364746" y="1249.5239258" class="st4" width="83.2168655" height="83.2168655"/>
<rect x="1208.3532715" y="1249.5239258" class="st4" width="83.2168655" height="83.2168655"/>
<rect x="1291.5701904" y="1249.5239258" class="st4" width="83.2168655" height="83.2168655"/>
<rect x="1374.7871094" y="1249.5239258" class="st4" width="83.2168655" height="83.2168655"/>
<rect x="1458.0039062" y="1249.5239258" class="st4" width="83.2168655" height="83.2168655"/>
<rect x="1541.2208252" y="1249.5239258" class="st4" width="83.2168655" height="83.2168655"/>
<rect x="1624.4376221" y="1249.5239258" class="st4" width="83.2168655" height="83.2168655"/>
<rect x="1707.654541" y="1249.5239258" class="st4" width="83.2168655" height="83.2168655"/>
<rect x="1790.8713379" y="1249.5239258" class="st4" width="83.2168655" height="83.2168655"/>
<rect x="1874.0882568" y="1249.5239258" class="st4" width="83.2168655" height="83.2168655"/>
<rect x="958.7026978" y="1166.3071289" class="st4" width="83.2168655" height="83.2168655"/>
<rect x="1041.9195557" y="1166.3071289" class="st4" width="83.2168655" height="83.2168655"/>
<rect x="1125.1364746" y="1166.3071289" class="st4" width="83.2168655" height="83.2168655"/>
<rect x="1208.3532715" y="1166.3071289" class="st4" width="83.2168655" height="83.2168655"/>
<rect x="1291.5701904" y="1166.3071289" class="st4" width="83.2168655" height="83.2168655"/>
<rect x="1374.7871094" y="1166.3071289" class="st4" width="83.2168655" height="83.2168655"/>
<rect x="1458.0039062" y="1166.3071289" class="st4" width="83.2168655" height="83.2168655"/>
<rect x="1541.2208252" y="1166.3071289" class="st4" width="83.2168655" height="83.2168655"/>
<rect x="1624.4376221" y="1166.3071289" class="st4" width="83.2168655" height="83.2168655"/>
<rect x="1707.654541" y="1166.3071289" class="st4" width="83.2168655" height="83.2168655"/>
<rect x="1790.8713379" y="1166.3071289" class="st4" width="83.2168655" height="83.2168655"/>
<rect x="1874.0882568" y="1166.3071289" class="st4" width="83.2168655" height="83.2168655"/>
<rect x="958.7026978" y="1083.09021" class="st4" width="83.2168655" height="83.2168655"/>
<rect x="875.4858398" y="1166.3071289" class="st4" width="83.2168655" height="83.2168655"/>
<rect x="875.4858398" y="1083.09021" class="st4" width="83.2168655" height="83.2168655"/>
<rect x="1041.9195557" y="1083.09021" class="st4" width="83.2168655" height="83.2168655"/>
<rect x="1125.1364746" y="1083.09021" class="st4" width="83.2168655" height="83.2168655"/>
<rect x="1208.3532715" y="1083.09021" class="st4" width="83.2168655" height="83.2168655"/>
<rect x="1291.5701904" y="1083.09021" class="st4" width="83.2168655" height="83.2168655"/>
<rect x="1374.7871094" y="1083.09021" class="st4" width="83.2168655" height="83.2168655"/>
<rect x="1458.0039062" y="1083.09021" class="st4" width="83.2168655" height="83.2168655"/>
<rect x="1541.2208252" y="1083.09021" class="st4" width="83.2168655" height="83.2168655"/>
<rect x="1624.4376221" y="1083.09021" class="st4" width="83.2168655" height="83.2168655"/>
<rect x="1707.654541" y="1083.09021" class="st4" width="83.2168655" height="83.2168655"/>
<rect x="1790.8713379" y="1083.09021" class="st4" width="83.2168655" height="83.2168655"/>
<rect x="1874.0882568" y="1083.09021" class="st4" width="83.2168655" height="83.2168655"/>
<rect x="1957.3051758" y="1249.5239258" class="st4" width="83.2168655" height="83.2168655"/>
<rect x="1957.3051758" y="1166.3071289" class="st4" width="83.2168655" height="83.2168655"/>
<rect x="1957.3051758" y="1083.09021" class="st4" width="83.2168655" height="83.2168655"/>
<rect x="2040.5219727" y="1249.5239258" class="st4" width="83.2168655" height="83.2168655"/>
<rect x="2040.5219727" y="1166.3071289" class="st4" width="83.2168655" height="83.2168655"/>
<rect x="2040.5219727" y="1083.09021" class="st4" width="83.2168655" height="83.2168655"/>
<rect x="958.7026978" y="999.8733521" class="st4" width="83.2168655" height="83.2168655"/>
<rect x="1041.9195557" y="999.8733521" class="st4" width="83.2168655" height="83.2168655"/>
<rect x="1125.1364746" y="999.8733521" class="st4" width="83.2168655" height="83.2168655"/>
<rect x="1208.3532715" y="999.8733521" class="st4" width="83.2168655" height="83.2168655"/>
<rect x="1291.5701904" y="999.8733521" class="st4" width="83.2168655" height="83.2168655"/>
<rect x="1374.7871094" y="999.8733521" class="st4" width="83.2168655" height="83.2168655"/>
<rect x="1458.0039062" y="999.8733521" class="st4" width="83.2168655" height="83.2168655"/>
<rect x="1541.2208252" y="999.8733521" class="st4" width="83.2168655" height="83.2168655"/>
<rect x="1624.4376221" y="999.8733521" class="st4" width="83.2168655" height="83.2168655"/>
<rect x="1707.654541" y="999.8733521" class="st4" width="83.2168655" height="83.2168655"/>
<rect x="1790.8713379" y="999.8733521" class="st4" width="83.2168655" height="83.2168655"/>
<rect x="1874.0882568" y="999.8733521" class="st4" width="83.2168655" height="83.2168655"/>
<rect x="958.7026978" y="916.6564941" class="st4" width="83.2168655" height="83.2168655"/>
<rect x="875.4858398" y="916.6564941" class="st4" width="83.2168655" height="83.2168655"/>
<rect x="792.2689819" y="916.6564941" class="st4" width="83.2168655" height="83.2168655"/>
<rect x="709.052124" y="916.6564941" class="st4" width="83.2168655" height="83.2168655"/>
<rect x="625.8352661" y="916.6564941" class="st4" width="83.2168655" height="83.2168655"/>
<rect x="1041.9195557" y="916.6564941" class="st4" width="83.2168655" height="83.2168655"/>
<rect x="1125.1364746" y="916.6564941" class="st4" width="83.2168655" height="83.2168655"/>
<rect x="1208.3532715" y="916.6564941" class="st4" width="83.2168655" height="83.2168655"/>
<rect x="1291.5701904" y="916.6564941" class="st4" width="83.2168655" height="83.2168655"/>
<rect x="1374.7871094" y="916.6564941" class="st4" width="83.2168655" height="83.2168655"/>
<rect x="1458.0039062" y="916.6564941" class="st4" width="83.2168655" height="83.2168655"/>
<rect x="1541.2208252" y="916.6564941" class="st4" width="83.2168655" height="83.2168655"/>
<rect x="1624.4376221" y="916.6564941" class="st4" width="83.2168655" height="83.2168655"/>
<rect x="1707.654541" y="916.6564941" class="st4" width="83.2168655" height="83.2168655"/>
<rect x="1790.8713379" y="916.6564941" class="st4" width="83.2168655" height="83.2168655"/>
<rect x="1874.0882568" y="916.6564941" class="st4" width="83.2168655" height="83.2168655"/>
<rect x="1957.3051758" y="916.6564941" class="st4" width="83.2168655" height="83.2168655"/>
<rect x="2040.5219727" y="916.6564941" class="st4" width="83.2168655" height="83.2168655"/>
<rect x="958.7026978" y="833.4396362" class="st4" width="83.2168655" height="83.2168655"/>
<rect x="1041.9195557" y="833.4396362" class="st4" width="83.2168655" height="83.2168655"/>
<rect x="1125.1364746" y="833.4396362" class="st4" width="83.2168655" height="83.2168655"/>
<rect x="1208.3532715" y="833.4396362" class="st4" width="83.2168655" height="83.2168655"/>
<rect x="1291.5701904" y="833.4396362" class="st4" width="83.2168655" height="83.2168655"/>
<rect x="1374.7871094" y="833.4396362" class="st4" width="83.2168655" height="83.2168655"/>
<rect x="1458.0039062" y="833.4396362" class="st4" width="83.2168655" height="83.2168655"/>
<rect x="1541.2208252" y="833.4396362" class="st4" width="83.2168655" height="83.2168655"/>
<rect x="1624.4376221" y="833.4396362" class="st4" width="83.2168655" height="83.2168655"/>
<rect x="1707.654541" y="833.4396362" class="st4" width="83.2168655" height="83.2168655"/>
<rect x="1790.8713379" y="833.4396362" class="st4" width="83.2168655" height="83.2168655"/>
<rect x="1874.0882568" y="833.4396362" class="st4" width="83.2168655" height="83.2168655"/>
<rect x="958.7026978" y="750.2227173" class="st4" width="83.2168655" height="83.2168655"/>
<rect x="1041.9195557" y="750.2227173" class="st4" width="83.2168655" height="83.2168655"/>
<rect x="1125.1364746" y="750.2227173" class="st4" width="83.2168655" height="83.2168655"/>
<rect x="1208.3532715" y="750.2227173" class="st4" width="83.2168655" height="83.2168655"/>
<rect x="1291.5701904" y="750.2227173" class="st4" width="83.2168655" height="83.2168655"/>
<rect x="1374.7871094" y="750.2227173" class="st4" width="83.2168655" height="83.2168655"/>
<rect x="1458.0039062" y="750.2227173" class="st4" width="83.2168655" height="83.2168655"/>
<rect x="1541.2208252" y="750.2227173" class="st4" width="83.2168655" height="83.2168655"/>
<rect x="1624.4376221" y="750.2227173" class="st4" width="83.2168655" height="83.2168655"/>
<rect x="1707.654541" y="750.2227173" class="st4" width="83.2168655" height="83.2168655"/>
<rect x="1790.8713379" y="750.2227173" class="st4" width="83.2168655" height="83.2168655"/>
<rect x="1874.0882568" y="750.2227173" class="st4" width="83.2168655" height="83.2168655"/>
<rect x="2123.7387695" y="750.2227173" class="st5" width="83.2168655" height="83.2168655"/>
<rect x="2123.7387695" y="667.0058594" class="st5" width="83.2168655" height="83.2168655"/>
<rect x="2123.7387695" y="583.7890015" class="st5" width="83.2168655" height="83.2168655"/>
<rect x="2123.7387695" y="833.4396362" class="st5" width="83.2168655" height="83.2168655"/>
<rect x="2123.7387695" y="916.6564941" class="st5" width="83.2168655" height="83.2168655"/>
<rect x="2123.7387695" y="999.8733521" class="st5" width="83.2168655" height="83.2168655"/>
<rect x="2123.7387695" y="1083.09021" class="st5" width="83.2168655" height="83.2168655"/>
<rect x="2123.7387695" y="1166.3071289" class="st5" width="83.2168655" height="83.2168655"/>
<rect x="2123.7387695" y="1249.5239258" class="st5" width="83.2168655" height="83.2168655"/>
<rect x="2123.7387695" y="1332.7408447" class="st5" width="83.2168655" height="83.2168655"/>
<rect x="2040.5219727" y="1249.5239258" class="st5" width="83.2168655" height="83.2168655"/>
<rect x="1957.3051758" y="1332.7408447" class="st5" width="83.2168655" height="83.2168655"/>
<rect x="1874.0882568" y="1332.7408447" class="st5" width="83.2168655" height="83.2168655"/>
<rect x="1790.8713379" y="1332.7408447" class="st5" width="83.2168655" height="83.2168655"/>
<rect x="1707.654541" y="1332.7408447" class="st5" width="83.2168655" height="83.2168655"/>
<rect x="1541.2208252" y="1415.9576416" class="st5" width="83.2168655" height="83.2168655"/>
<rect x="1624.4376221" y="1499.1745605" class="st5" width="83.2168655" height="83.2168655"/>
<rect x="1541.2208252" y="1582.3913574" class="st5" width="83.2168655" height="83.2168655"/>
<rect x="1541.2208252" y="1832.0419922" class="st5" width="83.2168655" height="83.2168655"/>
<rect x="1624.4376221" y="1832.0419922" class="st5" width="83.2168655" height="83.2168655"/>
<rect x="1374.7871094" y="1832.0419922" class="st5" width="83.2168655" height="83.2168655"/>
<rect x="1208.3532715" y="1998.475708" class="st5" width="83.2168655" height="83.2168655"/>
<rect x="958.7026978" y="2081.692627" class="st4" width="83.2168655" height="83.2168655"/>
<rect x="1041.9195557" y="2081.692627" class="st4" width="83.2168655" height="83.2168655"/>
<rect x="1125.1364746" y="2081.692627" class="st4" width="83.2168655" height="83.2168655"/>
<rect x="1208.3532715" y="2081.692627" class="st4" width="83.2168655" height="83.2168655"/>
<rect x="1291.5701904" y="2081.692627" class="st4" width="83.2168655" height="83.2168655"/>
<rect x="1374.7871094" y="2081.692627" class="st4" width="83.2168655" height="83.2168655"/>
<rect x="1458.0039062" y="2081.692627" class="st4" width="83.2168655" height="83.2168655"/>
<rect x="1541.2208252" y="2081.692627" class="st4" width="83.2168655" height="83.2168655"/>
<rect x="1624.4376221" y="2081.692627" class="st4" width="83.2168655" height="83.2168655"/>
<rect x="1707.654541" y="2081.692627" class="st4" width="83.2168655" height="83.2168655"/>
<rect x="1790.8713379" y="2081.692627" class="st4" width="83.2168655" height="83.2168655"/>
<rect x="1874.0882568" y="2081.692627" class="st4" width="83.2168655" height="83.2168655"/>
<rect x="1458.0039062" y="1832.0419922" class="st5" width="83.2168655" height="83.2168655"/>
<rect x="1291.5701904" y="1332.7408447" class="st5" width="83.2168655" height="83.2168655"/>
<rect x="1208.3532715" y="1332.7408447" class="st5" width="83.2168655" height="83.2168655"/>
<rect x="1125.1364746" y="1332.7408447" class="st5" width="83.2168655" height="83.2168655"/>
<rect x="1041.9195557" y="1332.7408447" class="st5" width="83.2168655" height="83.2168655"/>
<rect x="958.7026978" y="1332.7408447" class="st5" width="83.2168655" height="83.2168655"/>
<rect x="875.4858398" y="1249.5239258" class="st5" width="83.2168655" height="83.2168655"/>
<rect x="2123.7387695" y="1415.9576416" class="st5" width="83.2168655" height="83.2168655"/>
<rect x="2123.7387695" y="1499.1745605" class="st5" width="83.2168655" height="83.2168655"/>
<rect x="2123.7387695" y="1582.3913574" class="st5" width="83.2168655" height="83.2168655"/>
<rect x="2123.7387695" y="1665.6082764" class="st5" width="83.2168655" height="83.2168655"/>
<rect x="2123.7387695" y="1748.8251953" class="st5" width="83.2168655" height="83.2168655"/>
<rect x="2123.7387695" y="1832.0419922" class="st5" width="83.2168655" height="83.2168655"/>
<rect x="2123.7387695" y="1915.2589111" class="st5" width="83.2168655" height="83.2168655"/>
<rect x="2123.8459473" y="2164.9094238" class="st5" width="83.2168655" height="83.2168655"/>
<rect x="2206.9558105" y="1915.2589111" class="st5" width="83.2168655" height="83.2168655"/>
<rect x="2207.0627441" y="2248.1262207" class="st5" width="83.2168655" height="83.2168655"/>
<rect x="2290.279541" y="2331.3432617" class="st5" width="83.2168655" height="83.2168655"/>
<rect x="2373.4658203" y="2331.3432617" class="st5" width="83.2168655" height="83.2168655"/>
<rect x="2373.4658203" y="2248.1262207" class="st5" width="83.2168655" height="83.2168655"/>
<rect x="2373.4658203" y="2164.9094238" class="st5" width="83.2168655" height="83.2168655"/>
<rect x="2290.203125" y="1499.1745605" class="st5" width="83.2168655" height="83.2168655"/>
<rect x="2290.203125" y="1415.9576416" class="st5" width="83.2168655" height="83.2168655"/>
<rect x="2290.203125" y="1332.7408447" class="st5" width="83.2168655" height="83.2168655"/>
<rect x="2290.203125" y="1249.5239258" class="st5" width="83.2168655" height="83.2168655"/>
<rect x="2373.4047852" y="1166.3223877" class="st5" width="83.2168655" height="83.2168655"/>
<rect x="2373.4047852" y="1249.5239258" class="st5" width="83.2168655" height="83.2168655"/>
<rect x="2373.4047852" y="1332.7408447" class="st5" width="83.2168655" height="83.2168655"/>
<rect x="2290.2644043" y="1166.3223877" class="st5" width="83.2168655" height="83.2168655"/>
<rect x="2206.9709473" y="1832.0419922" class="st5" width="83.2168655" height="83.2168655"/>
<rect x="2206.9709473" y="1748.8251953" class="st5" width="83.2168655" height="83.2168655"/>
<rect x="2207.0627441" y="2164.9094238" class="st5" width="83.2168655" height="83.2168655"/>
<rect x="2123.7387695" y="1998.475708" class="st5" width="83.2168655" height="83.2168655"/>
<rect x="2206.9558105" y="1998.475708" class="st5" width="83.2168655" height="83.2168655"/>
<rect x="2290.1726074" y="1998.475708" class="st5" width="83.2168655" height="83.2168655"/>
<rect x="2123.7387695" y="2081.692627" class="st5" width="83.2168655" height="83.2168655"/>
<rect x="2206.9558105" y="2081.692627" class="st5" width="83.2168655" height="83.2168655"/>
<rect x="2290.1726074" y="2081.692627" class="st5" width="83.2168655" height="83.2168655"/>
<rect x="2290.279541" y="2248.1262207" class="st5" width="83.2168655" height="83.2168655"/>
<rect x="2290.279541" y="2164.9094238" class="st5" width="83.2168655" height="83.2168655"/>
<rect x="2206.9709473" y="1665.6082764" class="st5" width="83.2168655" height="83.2168655"/>
<rect x="2206.9709473" y="1582.3913574" class="st5" width="83.2168655" height="83.2168655"/>
<rect x="2206.9709473" y="1499.1745605" class="st5" width="83.2168655" height="83.2168655"/>
<rect x="2206.9709473" y="1415.9576416" class="st5" width="83.2168655" height="83.2168655"/>
<rect x="2206.9709473" y="1332.7408447" class="st5" width="83.2168655" height="83.2168655"/>
<rect x="2206.9709473" y="1249.5239258" class="st5" width="83.2168655" height="83.2168655"/>
<rect x="2207.0322266" y="1166.3223877" class="st5" width="83.2168655" height="83.2168655"/>
<rect x="2373.4047852" y="1083.1208496" class="st5" width="83.2168655" height="83.2168655"/>
<rect x="2290.203125" y="1083.1208496" class="st5" width="83.2168655" height="83.2168655"/>
<rect x="2207.001709" y="1083.1208496" class="st5" width="83.2168655" height="83.2168655"/>
<rect x="2373.4047852" y="999.8733521" class="st5" width="83.2168655" height="83.2168655"/>
<rect x="2373.4047852" y="916.6258545" class="st5" width="83.2168655" height="83.2168655"/>
<rect x="2373.4047852" y="833.378418" class="st5" width="83.2168655" height="83.2168655"/>
<rect x="2290.203125" y="999.8733521" class="st5" width="83.2168655" height="83.2168655"/>
<rect x="2290.203125" y="916.6258545" class="st5" width="83.2168655" height="83.2168655"/>
<rect x="2290.203125" y="833.378418" class="st5" width="83.2168655" height="83.2168655"/>
<rect x="2290.203125" y="750.1309814" class="st5" width="83.2168655" height="83.2168655"/>
<rect x="2290.203125" y="666.8834839" class="st5" width="83.2168655" height="83.2168655"/>
<rect x="2207.001709" y="999.8733521" class="st5" width="83.2168655" height="83.2168655"/>
<rect x="2207.001709" y="916.6258545" class="st5" width="83.2168655" height="83.2168655"/>
<rect x="2207.001709" y="833.378418" class="st5" width="83.2168655" height="83.2168655"/>
<rect x="2207.001709" y="750.1309814" class="st5" width="83.2168655" height="83.2168655"/>
<rect x="2207.001709" y="666.8834839" class="st5" width="83.2168655" height="83.2168655"/>
<rect x="2290.203125" y="500.694519" class="st5" width="83.2168655" height="83.2168655"/>
<rect x="2290.203125" y="583.7890015" class="st5" width="83.2168655" height="83.2168655"/>
<rect x="2207.001709" y="417.6000366" class="st5" width="83.2168655" height="83.2168655"/>
<rect x="2123.8000488" y="334.5055237" class="st5" width="83.2168655" height="83.2168655"/>
<rect x="2040.5219727" y="1998.475708" class="st5" width="83.2168655" height="83.2168655"/>
<rect x="1957.3051758" y="2081.692627" class="st5" width="83.2168655" height="83.2168655"/>
<rect x="1874.0882568" y="2164.9094238" class="st5" width="83.2168655" height="83.2168655"/>
<rect x="1790.8713379" y="2164.9094238" class="st5" width="83.2168655" height="83.2168655"/>
<rect x="1707.654541" y="2164.9094238" class="st5" width="83.2168655" height="83.2168655"/>
<rect x="1624.4376221" y="2164.9094238" class="st5" width="83.2168655" height="83.2168655"/>
<rect x="1541.2208252" y="2164.9094238" class="st5" width="83.2168655" height="83.2168655"/>
<rect x="1458.0039062" y="2164.9094238" class="st5" width="83.2168655" height="83.2168655"/>
<rect x="1374.7871094" y="2164.9094238" class="st5" width="83.2168655" height="83.2168655"/>
<rect x="1291.5701904" y="2164.9094238" class="st5" width="83.2168655" height="83.2168655"/>
<rect x="1208.3532715" y="2164.9094238" class="st5" width="83.2168655" height="83.2168655"/>
<rect x="1125.1364746" y="2164.9094238" class="st5" width="83.2168655" height="83.2168655"/>
<rect x="1041.9195557" y="2164.9094238" class="st5" width="83.2168655" height="83.2168655"/>
<rect x="958.7026978" y="2164.9094238" class="st5" width="83.2168655" height="83.2168655"/>
<rect x="875.4858398" y="2081.692627" class="st5" width="83.2168655" height="83.2168655"/>
<rect x="792.2689819" y="1998.475708" class="st5" width="83.2168655" height="83.2168655"/>
<rect x="709.052124" y="1998.475708" class="st5" width="83.2168655" height="83.2168655"/>
<rect x="709.052124" y="2081.692627" class="st5" width="83.2168655" height="83.2168655"/>
<rect x="625.8352661" y="2164.9094238" class="st5" width="83.2168655" height="83.2168655"/>
<rect x="542.6184082" y="2248.1262207" class="st5" width="83.2168655" height="83.2168655"/>
<rect x="542.6184082" y="2164.9094238" class="st5" width="83.2168655" height="83.2168655"/>
<rect x="459.4015198" y="2331.3432617" class="st5" width="83.2168655" height="83.2168655"/>
<rect x="376.1846619" y="2414.5600586" class="st5" width="83.2168655" height="83.2168655"/>
<rect x="292.967804" y="2414.5600586" class="st5" width="83.2168655" height="83.2168655"/>
<rect x="292.967804" y="2331.3432617" class="st5" width="83.2168655" height="83.2168655"/>
<rect x="292.967804" y="2248.1262207" class="st5" width="83.2168655" height="83.2168655"/>
<rect x="292.967804" y="2164.9094238" class="st5" width="83.2168655" height="83.2168655"/>
<rect x="376.1846619" y="2331.3432617" class="st5" width="83.2168655" height="83.2168655"/>
<rect x="376.1846619" y="2248.1262207" class="st5" width="83.2168655" height="83.2168655"/>
<rect x="376.1846619" y="2164.9094238" class="st5" width="83.2168655" height="83.2168655"/>
<rect x="459.4015198" y="2248.1262207" class="st5" width="83.2168655" height="83.2168655"/>
<rect x="459.4015198" y="2164.9094238" class="st5" width="83.2168655" height="83.2168655"/>
<rect x="376.1846619" y="2081.692627" class="st5" width="83.2168655" height="83.2168655"/>
<rect x="376.1846619" y="1998.475708" class="st5" width="83.2168655" height="83.2168655"/>
<rect x="376.1846619" y="1915.2589111" class="st5" width="83.2168655" height="83.2168655"/>
<rect x="376.1846619" y="1832.0419922" class="st5" width="83.2168655" height="83.2168655"/>
<rect x="292.967804" y="1748.8251953" class="st5" width="83.2168655" height="83.2168655"/>
<rect x="209.7509308" y="1665.6082764" class="st5" width="83.2168655" height="83.2168655"/>
<rect x="126.5340652" y="1582.3913574" class="st5" width="83.2168655" height="83.2168655"/>
<rect x="43.3172035" y="1415.9576416" class="st5" width="83.2168655" height="83.2168655"/>
<rect x="43.3172035" y="1332.7408447" class="st5" width="83.2168655" height="83.2168655"/>
<rect x="43.3172035" y="1249.5239258" class="st5" width="83.2168655" height="83.2168655"/>
<rect x="43.3172035" y="1166.3071289" class="st5" width="83.2168655" height="83.2168655"/>
<rect x="43.3172035" y="1083.09021" class="st5" width="83.2168655" height="83.2168655"/>
<rect x="43.3172035" y="999.8733521" class="st5" width="83.2168655" height="83.2168655"/>
<rect x="43.3172035" y="916.6564941" class="st5" width="83.2168655" height="83.2168655"/>
<rect x="43.3172035" y="833.4396362" class="st5" width="83.2168655" height="83.2168655"/>
<rect x="126.5340652" y="1499.1745605" class="st5" width="83.2168655" height="83.2168655"/>
<rect x="126.5340652" y="1415.9576416" class="st5" width="83.2168655" height="83.2168655"/>
<rect x="209.7509308" y="1582.3913574" class="st5" width="83.2168655" height="83.2168655"/>
<rect x="209.7509308" y="1499.1745605" class="st5" width="83.2168655" height="83.2168655"/>
<rect x="292.967804" y="1665.6082764" class="st5" width="83.2168655" height="83.2168655"/>
<rect x="292.967804" y="1582.3913574" class="st5" width="83.2168655" height="83.2168655"/>
<rect x="376.1846619" y="1748.8251953" class="st5" width="83.2168655" height="83.2168655"/>
<rect x="376.1846619" y="1665.6082764" class="st5" width="83.2168655" height="83.2168655"/>
<rect x="459.4015198" y="2081.692627" class="st5" width="83.2168655" height="83.2168655"/>
<rect x="459.4015198" y="1998.475708" class="st5" width="83.2168655" height="83.2168655"/>
<rect x="459.4015198" y="1915.2589111" class="st5" width="83.2168655" height="83.2168655"/>
<rect x="459.4015198" y="1832.0419922" class="st5" width="83.2168655" height="83.2168655"/>
<rect x="542.6184082" y="2081.692627" class="st5" width="83.2168655" height="83.2168655"/>
<rect x="542.6184082" y="1998.475708" class="st5" width="83.2168655" height="83.2168655"/>
<rect x="542.6184082" y="1915.2589111" class="st5" width="83.2168655" height="83.2168655"/>
<rect x="625.8352661" y="2081.692627" class="st5" width="83.2168655" height="83.2168655"/>
<rect x="625.8352661" y="1998.475708" class="st5" width="83.2168655" height="83.2168655"/>
<rect x="625.8352661" y="1915.2589111" class="st5" width="83.2168655" height="83.2168655"/>
<rect x="542.6184082" y="1832.0419922" class="st5" width="83.2168655" height="83.2168655"/>
<rect x="459.4015198" y="1748.8251953" class="st5" width="83.2168655" height="83.2168655"/>
<rect x="459.4015198" y="1665.6082764" class="st5" width="83.2168655" height="83.2168655"/>
<rect x="126.5340652" y="1332.7408447" class="st5" width="83.2168655" height="83.2168655"/>
<rect x="126.5340652" y="1249.5239258" class="st5" width="83.2168655" height="83.2168655"/>
<rect x="126.5340652" y="1166.3071289" class="st5" width="83.2168655" height="83.2168655"/>
<rect x="126.5340652" y="1083.09021" class="st5" width="83.2168655" height="83.2168655"/>
<rect x="126.5340652" y="999.8733521" class="st5" width="83.2168655" height="83.2168655"/>
<rect x="126.5340652" y="916.6564941" class="st5" width="83.2168655" height="83.2168655"/>
<rect x="126.5340652" y="833.4396362" class="st5" width="83.2168655" height="83.2168655"/>
<rect x="126.5340652" y="750.2227173" class="st5" width="83.2168655" height="83.2168655"/>
<rect x="209.7509308" y="667.0058594" class="st5" width="83.2168655" height="83.2168655"/>
<rect x="709.052124" y="1915.2589111" class="st5" width="83.2168655" height="83.2168655"/>
<rect x="625.8352661" y="1832.0419922" class="st5" width="83.2168655" height="83.2168655"/>
<rect x="542.6184082" y="1748.8251953" class="st5" width="83.2168655" height="83.2168655"/>
<rect x="542.6184082" y="1665.6082764" class="st5" width="83.2168655" height="83.2168655"/>
<rect x="542.6184082" y="1582.3913574" class="st5" width="83.2168655" height="83.2168655"/>
<rect x="542.6184082" y="1499.1745605" class="st5" width="83.2168655" height="83.2168655"/>
<rect x="542.6184082" y="1415.9576416" class="st5" width="83.2168655" height="83.2168655"/>
<rect x="542.6184082" y="1083.09021" class="st5" width="83.2168655" height="83.2168655"/>
<rect x="459.4015198" y="1083.09021" class="st5" width="83.2168655" height="83.2168655"/>
<rect x="376.1846619" y="1083.09021" class="st5" width="83.2168655" height="83.2168655"/>
<rect x="292.967804" y="1083.09021" class="st5" width="83.2168655" height="83.2168655"/>
<rect x="209.7509308" y="1166.3071289" class="st5" width="83.2168655" height="83.2168655"/>
<rect x="209.7509308" y="1249.5239258" class="st5" width="83.2168655" height="83.2168655"/>
<rect x="209.7509308" y="1332.7408447" class="st5" width="83.2168655" height="83.2168655"/>
<rect x="292.967804" y="1499.1745605" class="st5" width="83.2168655" height="83.2168655"/>
<rect x="209.7509308" y="1415.9576416" class="st5" width="83.2168655" height="83.2168655"/>
<rect x="376.1846619" y="1582.3913574" class="st5" width="83.2168655" height="83.2168655"/>
<rect x="459.4015198" y="1582.3913574" class="st5" width="83.2168655" height="83.2168655"/>
<rect x="542.6184082" y="999.8733521" class="st5" width="83.2168655" height="83.2168655"/>
<rect x="625.8352661" y="999.8733521" class="st5" width="83.2168655" height="83.2168655"/>
<rect x="709.052124" y="999.8733521" class="st5" width="83.2168655" height="83.2168655"/>
<rect x="792.2689819" y="999.8733521" class="st5" width="83.2168655" height="83.2168655"/>
<rect x="875.4858398" y="999.8733521" class="st5" width="83.2168655" height="83.2168655"/>
<rect x="792.2689819" y="1083.09021" class="st5" width="83.2168655" height="83.2168655"/>
<rect x="792.2689819" y="1166.3071289" class="st5" width="83.2168655" height="83.2168655"/>
<rect x="958.7026978" y="999.8733521" class="st5" width="83.2168655" height="83.2168655"/>
<rect x="1041.9195557" y="999.8733521" class="st5" width="83.2168655" height="83.2168655"/>
<rect x="1125.1364746" y="999.8733521" class="st5" width="83.2168655" height="83.2168655"/>
<rect x="1208.3532715" y="999.8733521" class="st5" width="83.2168655" height="83.2168655"/>
<rect x="1291.5701904" y="999.8733521" class="st5" width="83.2168655" height="83.2168655"/>
<rect x="1374.7871094" y="999.8733521" class="st5" width="83.2168655" height="83.2168655"/>
<rect x="1374.7871094" y="1083.09021" class="st5" width="83.2168655" height="83.2168655"/>
<rect x="1458.0039062" y="1083.09021" class="st5" width="83.2168655" height="83.2168655"/>
<rect x="1541.2208252" y="1083.09021" class="st5" width="83.2168655" height="83.2168655"/>
<rect x="1374.7871094" y="1166.3071289" class="st5" width="83.2168655" height="83.2168655"/>
<rect x="1374.7871094" y="1249.5239258" class="st5" width="83.2168655" height="83.2168655"/>
<rect x="1624.4376221" y="999.8733521" class="st5" width="83.2168655" height="83.2168655"/>
<rect x="1624.4376221" y="1083.09021" class="st5" width="83.2168655" height="83.2168655"/>
<rect x="1624.4376221" y="1166.3071289" class="st5" width="83.2168655" height="83.2168655"/>
<rect x="1624.4376221" y="1249.5239258" class="st5" width="83.2168655" height="83.2168655"/>
<rect x="1707.654541" y="999.8733521" class="st5" width="83.2168655" height="83.2168655"/>
<rect x="1790.8713379" y="999.8733521" class="st5" width="83.2168655" height="83.2168655"/>
<rect x="1874.0882568" y="999.8733521" class="st5" width="83.2168655" height="83.2168655"/>
<rect x="1957.3051758" y="999.8733521" class="st5" width="83.2168655" height="83.2168655"/>
<rect x="2040.5219727" y="999.8733521" class="st5" width="83.2168655" height="83.2168655"/>
<rect x="542.6184082" y="916.6564941" class="st5" width="83.2168655" height="83.2168655"/>
<rect x="542.6184082" y="833.4396362" class="st5" width="83.2168655" height="83.2168655"/>
<rect x="542.6184082" y="750.2227173" class="st5" width="83.2168655" height="83.2168655"/>
<rect x="542.6184082" y="667.0058594" class="st5" width="83.2168655" height="83.2168655"/>
<rect x="542.6184082" y="583.7890015" class="st5" width="83.2168655" height="83.2168655"/>
<rect x="625.8352661" y="833.4396362" class="st5" width="83.2168655" height="83.2168655"/>
<rect x="625.8352661" y="916.6564941" class="st5" width="83.2168655" height="83.2168655"/>
<rect x="625.8352661" y="999.8733521" class="st5" width="83.2168655" height="83.2168655"/>
<rect x="625.8352661" y="1083.09021" class="st5" width="83.2168655" height="83.2168655"/>
<rect x="625.8352661" y="1166.3071289" class="st5" width="83.2168655" height="83.2168655"/>
<rect x="625.8352661" y="1249.5239258" class="st5" width="83.2168655" height="83.2168655"/>
<rect x="625.8352661" y="1332.7408447" class="st5" width="83.2168655" height="83.2168655"/>
<rect x="542.6184082" y="1166.3071289" class="st5" width="83.2168655" height="83.2168655"/>
<rect x="542.6184082" y="1249.5239258" class="st5" width="83.2168655" height="83.2168655"/>
<rect x="542.6184082" y="1332.7408447" class="st5" width="83.2168655" height="83.2168655"/>
<rect x="625.8352661" y="1415.9576416" class="st5" width="83.2168655" height="83.2168655"/>
<rect x="625.8352661" y="1499.1745605" class="st5" width="83.2168655" height="83.2168655"/>
<rect x="625.8352661" y="1582.3913574" class="st5" width="83.2168655" height="83.2168655"/>
<rect x="625.8352661" y="1665.6082764" class="st5" width="83.2168655" height="83.2168655"/>
<rect x="625.8352661" y="1748.8251953" class="st5" width="83.2168655" height="83.2168655"/>
<rect x="625.8352661" y="750.2227173" class="st5" width="83.2168655" height="83.2168655"/>
<rect x="625.8352661" y="667.0058594" class="st5" width="83.2168655" height="83.2168655"/>
<rect x="625.8352661" y="583.7890015" class="st5" width="83.2168655" height="83.2168655"/>
<rect x="709.052124" y="833.4396362" class="st5" width="83.2168655" height="83.2168655"/>
<rect x="709.052124" y="750.2227173" class="st5" width="83.2168655" height="83.2168655"/>
<rect x="709.052124" y="667.0058594" class="st5" width="83.2168655" height="83.2168655"/>
<rect x="709.052124" y="583.7890015" class="st5" width="83.2168655" height="83.2168655"/>
<rect x="792.2689819" y="833.4396362" class="st5" width="83.2168655" height="83.2168655"/>
<rect x="792.2689819" y="750.2227173" class="st5" width="83.2168655" height="83.2168655"/>
<rect x="792.2689819" y="667.0058594" class="st5" width="83.2168655" height="83.2168655"/>
<rect x="792.2689819" y="583.7890015" class="st5" width="83.2168655" height="83.2168655"/>
<rect x="875.4858398" y="833.4396362" class="st5" width="83.2168655" height="83.2168655"/>
<rect x="875.4858398" y="750.2227173" class="st5" width="83.2168655" height="83.2168655"/>
<rect x="875.4858398" y="667.0058594" class="st5" width="83.2168655" height="83.2168655"/>
<rect x="875.4858398" y="583.7890015" class="st5" width="83.2168655" height="83.2168655"/>
<rect x="958.7026978" y="833.4396362" class="st5" width="83.2168655" height="83.2168655"/>
<rect x="958.7026978" y="750.2227173" class="st5" width="83.2168655" height="83.2168655"/>
<rect x="958.7026978" y="667.0058594" class="st5" width="83.2168655" height="83.2168655"/>
<rect x="958.7026978" y="583.7890015" class="st5" width="83.2168655" height="83.2168655"/>
<rect x="1041.9195557" y="833.4396362" class="st5" width="83.2168655" height="83.2168655"/>
<rect x="1041.9195557" y="750.2227173" class="st5" width="83.2168655" height="83.2168655"/>
<rect x="1041.9195557" y="667.0058594" class="st5" width="83.2168655" height="83.2168655"/>
<rect x="1041.9195557" y="583.7890015" class="st5" width="83.2168655" height="83.2168655"/>
<rect x="1125.1364746" y="833.4396362" class="st5" width="83.2168655" height="83.2168655"/>
<rect x="1125.1364746" y="750.2227173" class="st5" width="83.2168655" height="83.2168655"/>
<rect x="1125.1364746" y="667.0058594" class="st5" width="83.2168655" height="83.2168655"/>
<rect x="1125.1364746" y="583.7890015" class="st5" width="83.2168655" height="83.2168655"/>
<rect x="1208.3532715" y="833.4396362" class="st5" width="83.2168655" height="83.2168655"/>
<rect x="1208.3532715" y="750.2227173" class="st5" width="83.2168655" height="83.2168655"/>
<rect x="1208.3532715" y="667.0058594" class="st5" width="83.2168655" height="83.2168655"/>
<rect x="1208.3532715" y="583.7890015" class="st5" width="83.2168655" height="83.2168655"/>
<rect x="1291.5701904" y="833.4396362" class="st5" width="83.2168655" height="83.2168655"/>
<rect x="1291.5701904" y="750.2227173" class="st5" width="83.2168655" height="83.2168655"/>
<rect x="1291.5701904" y="667.0058594" class="st5" width="83.2168655" height="83.2168655"/>
<rect x="1291.5701904" y="583.7890015" class="st5" width="83.2168655" height="83.2168655"/>
<rect x="1374.7871094" y="750.2227173" class="st5" width="83.2168655" height="83.2168655"/>
<rect x="1374.7871094" y="667.0058594" class="st5" width="83.2168655" height="83.2168655"/>
<rect x="1374.7871094" y="583.7890015" class="st5" width="83.2168655" height="83.2168655"/>
<rect x="1458.0039062" y="667.0058594" class="st5" width="83.2168655" height="83.2168655"/>
<rect x="1458.0039062" y="583.7890015" class="st5" width="83.2168655" height="83.2168655"/>
<rect x="1541.2208252" y="667.0058594" class="st5" width="83.2168655" height="83.2168655"/>
<rect x="1541.2208252" y="583.7890015" class="st5" width="83.2168655" height="83.2168655"/>
<rect x="1624.4376221" y="750.2227173" class="st5" width="83.2168655" height="83.2168655"/>
<rect x="1624.4376221" y="667.0058594" class="st5" width="83.2168655" height="83.2168655"/>
<rect x="1624.4376221" y="583.7890015" class="st5" width="83.2168655" height="83.2168655"/>
<rect x="1707.654541" y="833.4396362" class="st5" width="83.2168655" height="83.2168655"/>
<rect x="1707.654541" y="750.2227173" class="st5" width="83.2168655" height="83.2168655"/>
<rect x="1707.654541" y="667.0058594" class="st5" width="83.2168655" height="83.2168655"/>
<rect x="1707.654541" y="583.7890015" class="st5" width="83.2168655" height="83.2168655"/>
<rect x="1790.8713379" y="833.4396362" class="st5" width="83.2168655" height="83.2168655"/>
<rect x="1790.8713379" y="750.2227173" class="st5" width="83.2168655" height="83.2168655"/>
<rect x="1790.8713379" y="667.0058594" class="st5" width="83.2168655" height="83.2168655"/>
<rect x="1790.8713379" y="583.7890015" class="st5" width="83.2168655" height="83.2168655"/>
<rect x="1874.0882568" y="833.4396362" class="st5" width="83.2168655" height="83.2168655"/>
<rect x="1874.0882568" y="750.2227173" class="st5" width="83.2168655" height="83.2168655"/>
<rect x="1874.0882568" y="667.0058594" class="st5" width="83.2168655" height="83.2168655"/>
<rect x="1874.0882568" y="583.7890015" class="st5" width="83.2168655" height="83.2168655"/>
<rect x="1957.3051758" y="833.4396362" class="st5" width="83.2168655" height="83.2168655"/>
<rect x="1957.3051758" y="750.2227173" class="st5" width="83.2168655" height="83.2168655"/>
<rect x="1957.3051758" y="667.0058594" class="st5" width="83.2168655" height="83.2168655"/>
<rect x="1957.3051758" y="583.7890015" class="st5" width="83.2168655" height="83.2168655"/>
<rect x="2040.5219727" y="833.4396362" class="st5" width="83.2168655" height="83.2168655"/>
<rect x="2040.5219727" y="750.2227173" class="st5" width="83.2168655" height="83.2168655"/>
<rect x="2040.5219727" y="667.0058594" class="st5" width="83.2168655" height="83.2168655"/>
<rect x="2040.5219727" y="583.7890015" class="st5" width="83.2168655" height="83.2168655"/>
<rect x="2123.7387695" y="500.5721436" class="st5" width="83.2168655" height="83.2168655"/>
<rect x="2206.9558105" y="583.7890015" class="st5" width="83.2168655" height="83.2168655"/>
<rect x="2206.9558105" y="500.5721436" class="st5" width="83.2168655" height="83.2168655"/>
<rect x="542.6184082" y="500.5721436" class="st5" width="83.2168655" height="83.2168655"/>
<rect x="459.4015198" y="999.8733521" class="st5" width="83.2168655" height="83.2168655"/>
<rect x="459.4015198" y="916.6564941" class="st5" width="83.2168655" height="83.2168655"/>
<rect x="459.4015198" y="833.4396362" class="st5" width="83.2168655" height="83.2168655"/>
<rect x="459.4015198" y="750.2227173" class="st5" width="83.2168655" height="83.2168655"/>
<rect x="459.4015198" y="667.0058594" class="st5" width="83.2168655" height="83.2168655"/>
<rect x="459.4015198" y="583.7890015" class="st5" width="83.2168655" height="83.2168655"/>
<rect x="376.1846619" y="999.8733521" class="st5" width="83.2168655" height="83.2168655"/>
<rect x="376.1846619" y="916.6564941" class="st5" width="83.2168655" height="83.2168655"/>
<rect x="376.1846619" y="833.4396362" class="st5" width="83.2168655" height="83.2168655"/>
<rect x="376.1846619" y="750.2227173" class="st5" width="83.2168655" height="83.2168655"/>
<rect x="376.1846619" y="667.0058594" class="st5" width="83.2168655" height="83.2168655"/>
<rect x="292.967804" y="999.8733521" class="st5" width="83.2168655" height="83.2168655"/>
<rect x="292.967804" y="916.6564941" class="st5" width="83.2168655" height="83.2168655"/>
<rect x="292.967804" y="833.4396362" class="st5" width="83.2168655" height="83.2168655"/>
<rect x="292.967804" y="750.2227173" class="st5" width="83.2168655" height="83.2168655"/>
<rect x="209.7509308" y="999.8733521" class="st5" width="83.2168655" height="83.2168655"/>
<rect x="209.7509308" y="1083.09021" class="st5" width="83.2168655" height="83.2168655"/>
<rect x="209.7509308" y="916.6564941" class="st5" width="83.2168655" height="83.2168655"/>
<rect x="209.7509308" y="833.4396362" class="st5" width="83.2168655" height="83.2168655"/>
<rect x="209.7509308" y="750.2227173" class="st5" width="83.2168655" height="83.2168655"/>
<rect x="376.1846619" y="583.7890015" class="st5" width="83.2168655" height="83.2168655"/>
<rect x="459.4015198" y="500.5721436" class="st5" width="83.2168655" height="83.2168655"/>
<rect x="625.8352661" y="500.5721436" class="st5" width="83.2168655" height="83.2168655"/>
<rect x="709.052124" y="500.5721436" class="st5" width="83.2168655" height="83.2168655"/>
<rect x="792.2689819" y="500.5721436" class="st5" width="83.2168655" height="83.2168655"/>
<rect x="875.4858398" y="500.5721436" class="st5" width="83.2168655" height="83.2168655"/>
<rect x="958.7026978" y="500.5721436" class="st5" width="83.2168655" height="83.2168655"/>
<rect x="1041.9195557" y="500.5721436" class="st5" width="83.2168655" height="83.2168655"/>
<rect x="1125.1364746" y="500.5721436" class="st5" width="83.2168655" height="83.2168655"/>
<rect x="1208.3532715" y="500.5721436" class="st5" width="83.2168655" height="83.2168655"/>
<rect x="1291.5701904" y="500.5721436" class="st5" width="83.2168655" height="83.2168655"/>
<rect x="1374.7871094" y="500.5721436" class="st5" width="83.2168655" height="83.2168655"/>
<rect x="1458.0039062" y="500.5721436" class="st5" width="83.2168655" height="83.2168655"/>
<rect x="1541.2208252" y="500.5721436" class="st5" width="83.2168655" height="83.2168655"/>
<rect x="1624.4376221" y="500.5721436" class="st5" width="83.2168655" height="83.2168655"/>
<rect x="1707.654541" y="500.5721436" class="st5" width="83.2168655" height="83.2168655"/>
<rect x="1790.8713379" y="500.5721436" class="st5" width="83.2168655" height="83.2168655"/>
<rect x="1874.0882568" y="500.5721436" class="st5" width="83.2168655" height="83.2168655"/>
<rect x="1957.3051758" y="500.5721436" class="st5" width="83.2168655" height="83.2168655"/>
<rect x="2040.5219727" y="500.5721436" class="st5" width="83.2168655" height="83.2168655"/>
<rect x="625.8352661" y="417.6000366" class="st5" width="83.2168655" height="83.2168655"/>
<rect x="709.052124" y="417.6000366" class="st5" width="83.2168655" height="83.2168655"/>
<rect x="792.2689819" y="417.6000366" class="st5" width="83.2168655" height="83.2168655"/>
<rect x="875.4858398" y="417.6000366" class="st5" width="83.2168655" height="83.2168655"/>
<rect x="958.7026978" y="417.6000366" class="st5" width="83.2168655" height="83.2168655"/>
<rect x="1041.9195557" y="417.6000366" class="st5" width="83.2168655" height="83.2168655"/>
<rect x="1125.1364746" y="417.6000366" class="st5" width="83.2168655" height="83.2168655"/>
<rect x="1208.3532715" y="417.6000366" class="st5" width="83.2168655" height="83.2168655"/>
<rect x="1291.5701904" y="417.6000366" class="st5" width="83.2168655" height="83.2168655"/>
<rect x="1374.7871094" y="417.6000366" class="st5" width="83.2168655" height="83.2168655"/>
<rect x="1458.0039062" y="417.6000366" class="st5" width="83.2168655" height="83.2168655"/>
<rect x="1541.2208252" y="417.6000366" class="st5" width="83.2168655" height="83.2168655"/>
<rect x="1624.4376221" y="417.6000366" class="st5" width="83.2168655" height="83.2168655"/>
<rect x="1707.654541" y="417.6000366" class="st5" width="83.2168655" height="83.2168655"/>
<rect x="1790.8713379" y="417.6000366" class="st5" width="83.2168655" height="83.2168655"/>
<rect x="1874.0882568" y="417.6000366" class="st5" width="83.2168655" height="83.2168655"/>
<rect x="1957.3051758" y="417.6000366" class="st5" width="83.2168655" height="83.2168655"/>
<rect x="2040.5219727" y="417.6000366" class="st5" width="83.2168655" height="83.2168655"/>
<rect x="2123.8000488" y="417.6000366" class="st5" width="83.2168655" height="83.2168655"/>
<rect x="625.8352661" y="334.6278992" class="st5" width="83.2168655" height="83.2168655"/>
<rect x="709.052124" y="334.6278992" class="st5" width="83.2168655" height="83.2168655"/>
<rect x="792.2689819" y="334.6278992" class="st5" width="83.2168655" height="83.2168655"/>
<rect x="875.4858398" y="334.6278992" class="st5" width="83.2168655" height="83.2168655"/>
<rect x="958.7026978" y="334.6278992" class="st5" width="83.2168655" height="83.2168655"/>
<rect x="1041.9195557" y="334.6278992" class="st5" width="83.2168655" height="83.2168655"/>
<rect x="1125.1364746" y="334.6278992" class="st5" width="83.2168655" height="83.2168655"/>
<rect x="1208.3532715" y="334.6278992" class="st5" width="83.2168655" height="83.2168655"/>
<rect x="1291.5701904" y="334.6278992" class="st5" width="83.2168655" height="83.2168655"/>
<rect x="1374.7871094" y="334.6278992" class="st5" width="83.2168655" height="83.2168655"/>
<rect x="1458.0039062" y="334.6278992" class="st5" width="83.2168655" height="83.2168655"/>
<rect x="1541.2208252" y="334.6278992" class="st5" width="83.2168655" height="83.2168655"/>
<rect x="1624.4376221" y="334.6278992" class="st5" width="83.2168655" height="83.2168655"/>
<rect x="1707.654541" y="334.6278992" class="st5" width="83.2168655" height="83.2168655"/>
<rect x="1790.8713379" y="334.6278992" class="st5" width="83.2168655" height="83.2168655"/>
<rect x="1874.0882568" y="334.6278992" class="st5" width="83.2168655" height="83.2168655"/>
<rect x="1957.3051758" y="334.6278992" class="st5" width="83.2168655" height="83.2168655"/>
<rect x="2040.5219727" y="334.6278992" class="st5" width="83.2168655" height="83.2168655"/>
<rect x="709.052124" y="251.655777" class="st5" width="83.2168655" height="83.2168655"/>
<rect x="792.2689819" y="251.655777" class="st5" width="83.2168655" height="83.2168655"/>
<rect x="875.4858398" y="251.655777" class="st5" width="83.2168655" height="83.2168655"/>
<rect x="958.7026978" y="251.655777" class="st5" width="83.2168655" height="83.2168655"/>
<rect x="709.052124" y="168.4389038" class="st5" width="83.2168655" height="83.2168655"/>
<rect x="792.2689819" y="168.4389038" class="st5" width="83.2168655" height="83.2168655"/>
<rect x="875.4858398" y="168.4389038" class="st5" width="83.2168655" height="83.2168655"/>
<rect x="958.7026978" y="168.4389038" class="st5" width="83.2168655" height="83.2168655"/>
<rect x="1041.9195557" y="251.655777" class="st5" width="83.2168655" height="83.2168655"/>
<rect x="1125.1364746" y="251.655777" class="st5" width="83.2168655" height="83.2168655"/>
<rect x="1208.3532715" y="251.655777" class="st5" width="83.2168655" height="83.2168655"/>
<rect x="1291.5701904" y="251.655777" class="st5" width="83.2168655" height="83.2168655"/>
<rect x="1374.7871094" y="251.655777" class="st5" width="83.2168655" height="83.2168655"/>
<rect x="1458.0039062" y="251.655777" class="st5" width="83.2168655" height="83.2168655"/>
<rect x="1541.2208252" y="251.655777" class="st5" width="83.2168655" height="83.2168655"/>
<rect x="1624.4376221" y="251.655777" class="st5" width="83.2168655" height="83.2168655"/>
<rect x="1707.654541" y="251.655777" class="st5" width="83.2168655" height="83.2168655"/>
<rect x="1790.8713379" y="251.655777" class="st5" width="83.2168655" height="83.2168655"/>
<rect x="1874.0882568" y="251.655777" class="st5" width="83.2168655" height="83.2168655"/>
<rect x="1957.3051758" y="251.655777" class="st5" width="83.2168655" height="83.2168655"/>
<rect x="1041.9195557" y="168.4389038" class="st5" width="83.2168655" height="83.2168655"/>
<rect x="1125.1364746" y="168.4389038" class="st5" width="83.2168655" height="83.2168655"/>
<rect x="1208.3532715" y="168.4389038" class="st5" width="83.2168655" height="83.2168655"/>
<rect x="1291.5701904" y="168.4389038" class="st5" width="83.2168655" height="83.2168655"/>
<rect x="1374.7871094" y="168.4389038" class="st5" width="83.2168655" height="83.2168655"/>
<rect x="1458.0039062" y="168.4389038" class="st5" width="83.2168655" height="83.2168655"/>
<rect x="1541.2208252" y="168.4389038" class="st5" width="83.2168655" height="83.2168655"/>
<rect x="1624.4376221" y="168.4389038" class="st5" width="83.2168655" height="83.2168655"/>
<rect x="1707.654541" y="168.4389038" class="st5" width="83.2168655" height="83.2168655"/>
<rect x="1790.8713379" y="168.4389038" class="st5" width="83.2168655" height="83.2168655"/>
<rect x="1874.0882568" y="168.4389038" class="st5" width="83.2168655" height="83.2168655"/>
<rect x="958.7026978" y="85.2220383" class="st5" width="83.2168655" height="83.2168655"/>
<rect x="1041.9195557" y="85.2220383" class="st5" width="83.2168655" height="83.2168655"/>
<rect x="1125.1364746" y="85.2220383" class="st5" width="83.2168655" height="83.2168655"/>
<rect x="1208.3532715" y="85.2220383" class="st5" width="83.2168655" height="83.2168655"/>
<rect x="1291.5701904" y="85.2220383" class="st5" width="83.2168655" height="83.2168655"/>
<rect x="1374.7871094" y="85.2220383" class="st5" width="83.2168655" height="83.2168655"/>
<rect x="1458.0039062" y="85.2220383" class="st5" width="83.2168655" height="83.2168655"/>
<rect x="1541.2208252" y="85.2220383" class="st5" width="83.2168655" height="83.2168655"/>
<rect x="1624.4376221" y="85.2220383" class="st5" width="83.2168655" height="83.2168655"/>
<rect x="1707.654541" y="85.2220383" class="st5" width="83.2168655" height="83.2168655"/>
<rect x="1790.8713379" y="85.2220383" class="st5" width="83.2168655" height="83.2168655"/>
<rect x="958.7026978" y="2.2230692" class="st5" width="83.2168655" height="83.2168655"/>
<rect x="875.4858398" y="2.2230692" class="st5" width="83.2168655" height="83.2168655"/>
<rect x="1041.9195557" y="2.2230692" class="st5" width="83.2168655" height="83.2168655"/>
<rect x="1125.1364746" y="2.2230692" class="st5" width="83.2168655" height="83.2168655"/>
<rect x="1208.3532715" y="2.2230692" class="st5" width="83.2168655" height="83.2168655"/>
<rect x="1291.5701904" y="2.2230692" class="st5" width="83.2168655" height="83.2168655"/>
<rect x="1374.7871094" y="2.2230692" class="st5" width="83.2168655" height="83.2168655"/>
<rect x="1458.0039062" y="2.2230692" class="st5" width="83.2168655" height="83.2168655"/>
<rect x="1541.2208252" y="2.2230692" class="st5" width="83.2168655" height="83.2168655"/>
<rect x="1624.4376221" y="2.2230692" class="st5" width="83.2168655" height="83.2168655"/>
<rect x="1707.654541" y="2.2230692" class="st5" width="83.2168655" height="83.2168655"/>
<rect x="1874.0882568" y="85.2220383" class="st5" width="83.2168655" height="83.2168655"/>
<rect x="1957.3051758" y="168.4389038" class="st5" width="83.2168655" height="83.2168655"/>
<rect x="2040.5219727" y="251.655777" class="st5" width="83.2168655" height="83.2168655"/>
<rect x="542.6184082" y="417.3552856" class="st5" width="83.2168655" height="83.2168655"/>
<rect x="43.3172035" y="750.2227173" class="st5" width="83.2168655" height="83.2168655"/>
<rect x="126.5340652" y="667.0058594" class="st5" width="83.2168655" height="83.2168655"/>
<rect x="209.7509308" y="583.7890015" class="st5" width="83.2168655" height="83.2168655"/>
<rect x="292.967804" y="500.5721436" class="st5" width="83.2168655" height="83.2168655"/>
<rect x="376.1846619" y="417.3552856" class="st5" width="83.2168655" height="83.2168655"/>
<rect x="459.4015198" y="334.1384277" class="st5" width="83.2168655" height="83.2168655"/>
<rect x="625.8352661" y="168.4389038" class="st5" width="83.2168655" height="83.2168655"/>
<rect x="792.2689819" y="85.2220383" class="st5" width="83.2168655" height="83.2168655"/>
<rect x="709.052124" y="85.2220383" class="st5" width="83.2168655" height="83.2168655"/>
<rect x="625.8352661" y="85.2220383" class="st5" width="83.2168655" height="83.2168655"/>
<rect x="875.4858398" y="85.2220383" class="st5" width="83.2168655" height="83.2168655"/>
<rect x="542.6184082" y="250.9215546" class="st5" width="83.2168655" height="83.2168655"/>
<rect x="126.5340652" y="583.8979492" class="st5" width="83.2168655" height="83.2168655"/>
<rect x="209.7509308" y="500.6810913" class="st5" width="83.2168655" height="83.2168655"/>
<rect x="292.967804" y="417.4642334" class="st5" width="83.2168655" height="83.2168655"/>
<rect x="376.1846619" y="334.2473755" class="st5" width="83.2168655" height="83.2168655"/>
<rect x="459.4015198" y="251.0305023" class="st5" width="83.2168655" height="83.2168655"/>
<rect x="542.6184082" y="167.8136292" class="st5" width="83.2168655" height="83.2168655"/>
<rect x="209.7509308" y="417.5731812" class="st5" width="83.2168655" height="83.2168655"/>
<rect x="292.967804" y="334.3563232" class="st5" width="83.2168655" height="83.2168655"/>
<rect x="376.1846619" y="251.1394501" class="st5" width="83.2168655" height="83.2168655"/>
<rect x="459.4015198" y="167.9225769" class="st5" width="83.2168655" height="83.2168655"/>
</svg>
