<?xml version="1.0" encoding="utf-8" ?>
<svg xmlns="http://www.w3.org/2000/svg" xmlns:xlink="http://www.w3.org/1999/xlink" width="1024" height="1024">
	<path fill="#FEFEFE" d="M0 0L1024 0L1024 1024L0 1024L0 0Z"/>
	<path fill="#F7E4BA" d="M270.144 424.42Q270.707 424.462 271.267 424.527C273.409 424.785 275.043 425.57 276.346 427.34C277.332 428.68 277.778 430.345 277.47 431.993C277.05 434.234 275.649 435.433 273.815 436.6C272.998 436.584 272.178 436.568 271.363 436.498C269.56 436.342 267.992 435.527 266.867 434.087C265.877 432.818 265.55 431.293 265.869 429.731C266.423 427.015 267.922 425.881 270.144 424.42Z"/>
	<path fill="#F7E4BA" d="M602.251 532.094C603.295 532.054 604.342 532.018 605.379 532.17C607.266 532.446 609.251 533.718 610.231 535.379C611.04 536.75 611.334 538.159 610.946 539.725C610.319 542.256 608.624 543.477 606.505 544.771C605.433 544.84 604.456 544.888 603.403 544.632Q603.039 544.543 602.687 544.419Q602.334 544.294 601.995 544.135Q601.656 543.977 601.334 543.785Q601.013 543.594 600.711 543.372Q600.41 543.149 600.133 542.898Q599.855 542.648 599.603 542.37Q599.352 542.093 599.129 541.793Q598.906 541.492 598.714 541.171C597.753 539.543 597.606 537.879 598.199 536.079C598.843 534.124 600.518 532.984 602.251 532.094Z"/>
	<path fill="#F7E4BA" d="M687.505 370.404C688.096 370.419 688.669 370.432 689.254 370.524C691.513 370.881 693.461 371.781 694.713 373.765C695.655 375.256 695.897 376.98 695.505 378.69C694.916 381.26 693.084 382.851 690.957 384.213C690.723 384.195 690.488 384.186 690.255 384.16C687.657 383.876 685.262 382.931 683.687 380.744C682.695 379.367 682.345 377.743 682.666 376.077C683.193 373.346 685.299 371.803 687.505 370.404Z"/>
	<path fill="#F7E4BA" d="M409.14 293.493C409.955 293.515 410.76 293.528 411.559 293.706C413.401 294.116 415.163 295.527 416.089 297.154C417.209 299.121 417.281 301.424 416.572 303.55C415.652 306.308 413.619 307.544 411.123 308.731C410.075 308.527 409.004 308.333 407.982 308.019C406.178 307.465 404.577 305.985 403.745 304.308C402.886 302.576 402.822 300.598 403.486 298.79C404.519 295.976 406.553 294.732 409.14 293.493Z"/>
	<path fill="#F7E4BA" d="M882.831 554.514C883.736 554.641 884.572 554.814 885.439 555.11C887.343 555.76 889.008 557.215 889.823 559.065C890.724 561.109 890.622 563.517 889.711 565.54C888.492 568.249 886.76 569.621 884.057 570.699C882.764 570.593 881.483 570.352 880.325 569.737C878.508 568.771 877.164 567 876.553 565.057Q876.422 564.648 876.334 564.227Q876.247 563.806 876.204 563.378Q876.16 562.95 876.162 562.52Q876.164 562.091 876.21 561.663Q876.256 561.236 876.347 560.816Q876.438 560.395 876.572 559.987Q876.706 559.578 876.881 559.186Q877.057 558.794 877.273 558.422C878.633 556.061 880.285 555.236 882.831 554.514Z"/>
	<path fill="#F7E4BA" d="M138.201 353.428C138.911 353.511 139.534 353.629 140.225 353.813C142.551 354.431 144.678 355.619 145.846 357.81C146.896 359.78 146.803 362.001 146.013 364.048C144.909 366.906 142.548 368.146 139.925 369.393C138.972 369.284 137.982 369.119 137.066 368.825C135.151 368.211 133.328 366.647 132.414 364.855C131.517 363.095 131.442 361.115 132.053 359.251C133.08 356.119 135.361 354.738 138.201 353.428Z"/>
	<path fill="#F15F4A" d="M205.375 525.721C207.694 527.788 207.183 532.433 207.655 535.351C208.816 542.524 214.64 538.59 218.638 541.525C218.053 544.225 210.946 542.973 209.002 544.784C206.987 546.662 207.67 550.005 207.368 552.504C207.169 554.159 206.829 555.056 205.526 556.161C204.238 552.742 205.095 547.942 202.73 545.091C201.315 543.384 198.416 543.624 196.369 543.428C194.536 543.253 193.147 543.198 191.931 541.726L192.201 540.684C194.611 539.276 198.14 540.28 200.908 539.333C204.51 535.907 203.273 530.078 205.375 525.721Z"/>
	<path fill="#F7E4BA" d="M205.625 713.377C205.799 713.44 205.987 713.473 206.147 713.566C207.973 714.621 213.171 719.369 213.615 721.476C214.536 725.856 208.143 729.433 205.919 732.758C205.836 732.882 205.758 733.009 205.678 733.135C203.791 731.131 201.47 729.56 199.619 727.517C198.24 725.995 197.069 724.099 197.36 721.975C197.855 718.365 202.955 715.443 205.625 713.377Z"/>
	<path fill="#F7E4BA" d="M810.016 712.503C811.674 712.534 813.193 712.573 814.702 713.351C817.854 714.975 818.813 718.204 819.841 721.328C818.296 725.103 816.707 727.226 812.983 729.017C811.675 729.043 810.345 729.089 809.076 728.721C806.988 728.115 805.164 726.666 804.184 724.717C803.13 722.621 803.124 720.189 804.005 718.029C805.21 715.081 807.232 713.795 810.016 712.503Z"/>
	<path fill="#5862A4" d="M723.907 580.205C725.916 583.346 726.142 592.659 727.707 597.295C732.007 598.92 736.56 599.448 741.089 600.044C737.199 600.656 732.107 600.746 728.965 603.307C724.977 606.558 725.258 617.075 724.736 621.909C722.356 619.341 723.844 608.55 719.152 601.674C715.224 600.922 711.151 600.6 707.178 600.117C711.967 599.499 716.606 598.856 721.11 597.041C722.41 591.52 723.145 585.821 723.907 580.205Z"/>
	<path fill="#F7E4BA" d="M588.661 144.343C591.334 146.997 589.582 154.718 592.059 158.307C594.217 161.432 598.593 160.845 601.039 163.737L600.292 162.546C601.068 163.084 600.83 162.755 601.135 163.428C599.981 165.797 594.292 165.727 592.057 167.456C588.819 169.96 589.291 177.424 588.723 181.294C586.616 177.968 587.459 173.83 586.364 170.32C585.188 166.554 578.35 164.196 575.108 162.685C577.304 162.185 580.197 161.799 582.144 160.673C587.169 157.769 587.375 149.485 588.661 144.343Z"/>
	<path fill="#B6B6C8" d="M878.14 329.352C881.036 332.442 878.566 340.858 880.587 344.7C882.956 349.206 888.549 350.584 893.013 351.943L882.732 354.217C877.624 361.538 881.026 367.054 877.752 372.132C877.491 366.354 877.217 360.214 874.522 354.994C870.354 353.211 866.146 352.622 861.8 351.459C865.754 350.942 869.213 350.211 872.838 348.497C877.417 342.457 876.612 336.781 878.039 329.819L878.14 329.352Z"/>
	<path d="M612.563 843.405C613.751 843.396 614.548 843.628 615.648 844.093C623.67 847.483 631.352 852.049 639.196 855.859C650.431 861.316 662.187 866.294 673.081 872.388C676.256 874.164 680.266 876.527 682.718 879.222C688.222 885.272 687.195 894.318 692.085 900.393C694.718 903.664 698.821 905.797 702.005 908.472C703.179 909.458 703.154 909.446 703.256 910.922C700.628 910.803 698.229 909.391 696.086 907.929C685.105 900.438 686.839 885.691 676.607 877.581C671.763 873.742 665.342 871.469 659.768 868.813Q644.595 861.521 629.531 854.008C624.625 851.56 619.125 849.268 614.553 846.28C613.149 845.363 612.945 845.041 612.563 843.405Z"/>
	<path fill="#5862A4" d="M315.584 211.353C317.222 213.42 318.223 225.726 318.777 229.255C324.41 229.518 330.037 229.173 335.689 229.465L335.915 228.821L335.922 229.487L337.145 229.661C334.978 232.478 324.537 234.406 320.961 235.579C321.993 241.127 324.758 246.436 325.331 252.023L324.965 252.36C321.611 250.571 318.433 243.825 316.41 240.525L315.513 240.126C311.738 242.108 310.273 249.088 307.368 252.279L306.553 252.163C304.836 247.829 309.907 242.695 309.35 237.982C308.701 232.487 298.334 232.569 294.561 229.609L295.979 229.22L295.375 228.942L295.752 229.246C301.043 228.718 306.425 228.962 311.738 229.018C312.606 223.96 313.106 215.68 315.584 211.353Z"/>
	<path d="M309.664 776.336C309.852 776.387 310.044 776.421 310.227 776.488C314.452 778.045 335.324 795.12 337.892 798.845C342.177 805.062 346.902 817.988 350.265 825.514C358.607 844.185 366.909 863.118 376.069 881.397C387.735 885.784 399.585 889.791 411.39 893.787C415.135 895.055 428.358 898.556 430.864 900.438C431.482 900.902 431.392 901.972 431.505 902.698C424.146 902.419 384.374 887.34 374.307 883.918C370.254 876.262 366.943 868.236 363.324 860.369Q355.263 843.101 347.408 825.739C343.899 817.837 340.331 807.215 335.564 800.153C330.977 793.357 314.62 785.17 309.775 778.494C309.178 777.672 309.509 777.293 309.664 776.336Z"/>
	<path d="M592.596 689.09Q612.236 688.453 631.886 688.346C637.16 693.7 645.183 706.848 649.853 713.701L684.312 764.221C690.566 773.433 696.478 783.333 703.482 791.982C711.211 801.526 729.634 814.326 739.954 822.59C743.307 825.275 748.125 828.41 750.532 831.999C753.96 837.108 759.795 853.728 762.629 860.391C769.039 875.462 776.362 890.27 782.409 905.474C783.016 907.001 783.562 908.503 783.56 910.168L783.113 910.823C781.775 910.44 781.468 909.809 780.828 908.631C777.661 902.801 774.212 893.187 771.516 886.781C766.492 874.843 761.121 863.032 755.985 851.14C753.588 845.59 751.459 838.573 748.155 833.592C745.525 829.626 740.759 826.498 737.053 823.558Q724.829 813.978 712.797 804.16C709.655 801.583 706.05 799.138 703.359 796.097C694.105 785.643 684.644 769.136 676.471 757.224Q660.38 733.964 644.575 710.51C640.115 703.973 635.236 697.631 631.045 690.925L591.55 691.598C587.501 691.377 583.437 691.648 579.386 691.366L578.852 690.466C580.306 688.752 589.789 689.329 592.596 689.09Z"/>
	<path d="M946.712 580.331C947.611 580.351 947.148 580.221 948.024 580.931C947.82 581.855 947.442 582.278 946.787 582.927C944.091 585.601 940.88 587.838 937.997 590.318Q933.693 593.962 929.754 597.999Q925.815 602.035 922.277 606.427C897.753 637.198 889.433 677.879 896.087 716.258C897.493 724.367 899.709 732.336 901.359 740.399C904.459 755.544 904.92 770.424 902.935 785.729C898.556 819.478 875.512 846.697 874.885 881.242C874.701 891.378 876.881 900.965 878.012 910.955C877.089 910.897 876.943 910.835 876.185 910.395C873.696 905.54 873.397 898.589 872.875 893.232C868.261 845.954 898.262 821.71 901.41 777.921C903.105 754.347 898.461 742.298 894.288 720.531C890.467 700.597 890.13 680.377 894.444 660.495C901.237 629.189 919.393 598.016 946.712 580.331Z"/>
	<path d="M334.2 108.226C393.602 109.43 425.879 139.715 457.503 185.518Q472.862 207.882 486.967 231.057C500.679 253.584 515.017 278.586 539.532 290.844C568.633 305.395 600.204 295.978 629.846 288.88C660.586 281.519 697.077 272.778 727.935 283.342C738.285 286.886 748.323 293.61 754.611 302.657C771.972 327.632 762.304 358.024 761.58 385.886C761.117 403.715 763.357 422.265 771.416 438.384Q772.331 440.226 773.344 442.017Q774.357 443.807 775.465 445.541Q776.573 447.274 777.773 448.945Q778.973 450.616 780.261 452.22Q781.549 453.824 782.921 455.357Q784.294 456.889 785.747 458.345Q787.2 459.802 788.729 461.177Q790.259 462.553 791.86 463.845C816.27 483.157 855.661 490.103 886.155 492.186C891.883 492.577 912.834 492.388 916.826 493.734L916.176 494.935C915.475 495.22 914.656 495.402 913.901 495.465C907.237 496.02 899.762 495.194 893.074 494.883C858.942 493.293 815.553 487.129 788.597 464.417C762.7 442.598 756.991 408.083 759.627 375.995C760.845 361.167 763.586 346.238 762.198 331.331C760.916 317.555 754.922 303.954 744.041 295.123C703.403 262.143 630.401 296.335 584.342 300.714C528.458 306.027 507.662 269.298 481.977 228.038C464.827 200.489 441.344 161.519 416.544 141.18C389.977 119.392 356.957 108.025 322.526 111.599C284.369 115.559 251.463 135.165 227.584 164.781C222.346 171.568 217.806 179.299 213.864 186.911C205.955 202.184 201.122 218.181 199.743 235.362C198.492 250.936 200.314 266.559 202.474 281.966C207.848 320.29 217.21 360.651 204.916 398.639C200.852 411.195 195.134 423.294 186.922 433.694C163.588 463.247 123.156 479.294 112.86 518.383C110.554 527.138 110.403 536.415 111.055 545.398C112.716 568.317 121.566 589.671 133.324 609.175C137.443 616.007 141.984 622.59 145.98 629.495C170.006 671.004 175.898 719.031 156.463 763.723C152.451 772.948 147.36 781.451 141.87 789.849C129.861 808.218 116.812 820.432 108.734 842.171C102.728 858.332 100.385 874.938 101.481 892.157C101.824 897.543 104.171 905.295 102.799 910.425L102.198 910.097C98.7692 902.514 98.5512 890.604 98.6567 882.378C98.9812 857.08 107.248 833.233 121.784 812.672C127.857 804.082 134.688 796.082 140.52 787.307C155.152 765.292 164.267 740.656 165.521 714.087C166.898 684.932 159.028 658.009 145.032 632.7C140.525 624.551 135.068 616.954 130.29 608.966C118.129 588.636 109 564.907 108.2 541.027C106.387 486.923 148.89 471.432 180.139 437.545C189.852 427.012 196.726 414.67 201.404 401.17C218.472 351.911 199.114 302.797 197.008 253.068C195.417 215.485 209.133 179.897 234.657 152.392C260.542 124.497 296.473 109.506 334.2 108.226Z"/>
	<path d="M444.183 786.05C454.736 787.826 466.204 786.986 476.908 787.024C487.686 787.063 499.687 788.168 510.309 786.234C513.429 801.224 513.816 816.881 517.444 831.72C523.653 838.18 546.76 851.691 547.738 859.423C547.958 861.164 547.618 862.96 546.341 864.248C545.159 865.44 543.914 865.552 542.332 865.699C532.099 866.651 521.207 865.891 510.897 865.921C488.005 865.988 465.118 865.917 442.236 866.374C439.611 866.426 437.152 866.289 435.209 864.367C434.568 862.645 434.709 860.81 434.859 859.009C436.899 834.629 442 810.476 444.183 786.05Z"/>
	<path fill="#FEFEFE" d="M477.291 813.688C477.722 813.799 478.829 814.052 479.087 814.579C479.566 815.559 479.784 817.193 480.106 818.28C481.424 822.723 483.719 827.217 487.193 830.349C492.448 835.088 502.103 831.022 505.958 834.269L505.883 835.731C500.574 836.335 494.878 836.673 489.813 834.676C484.363 832.527 480.826 828.201 478.566 822.927C477.286 819.941 476.025 816.849 477.291 813.688Z"/>
	<path d="M511.575 703.465C511.212 688.757 492.246 661.884 483.524 649.202C480.687 645.076 475.749 639.638 474.45 634.875L474.84 634.428L475.879 634.604C481.746 639.243 501.014 670.658 505.529 678.934C507.869 683.223 509.831 687.573 511.588 692.13C530.667 685.838 550.312 680.387 568.827 672.584C569.621 674.167 571.137 674.909 572.713 675.581C575.087 679.913 577.27 684.149 578.52 688.953C583.193 689.008 587.934 688.858 592.596 689.09C589.789 689.329 580.306 688.752 578.852 690.466L579.386 691.366C583.437 691.648 587.501 691.377 591.55 691.598C588.284 691.721 581.649 691.146 579.292 693.42C579.308 693.752 579.332 694.083 579.341 694.415C579.4 696.603 577.888 698.655 576.309 700.081C576.122 700.249 575.899 700.374 575.694 700.521C575.471 701.823 575.434 702.246 575.961 703.509C577.259 706.616 579.485 709.521 581.169 712.445C585.217 719.471 588.906 727.048 593.637 733.634C600.665 743.415 616.193 752.162 621.711 761.392C622.381 762.513 622.678 763.946 622.337 765.228C621.812 767.202 618.257 768.374 616.495 769.088C606.267 773.238 595.037 776.147 584.539 779.688C572.189 783.854 559.631 788.991 547.039 792.245C544.325 792.946 541.46 793.474 538.664 793.094C531.895 786.126 523.64 730.56 514.569 717.153C514.576 724.31 513.62 755.846 515.075 760.917C514.148 760.942 513.213 760.878 512.287 760.845C511.425 757.358 512.005 752.445 511.992 748.829L511.89 721.111C511.903 715.365 512.394 709.136 511.575 703.465Z"/>
	<path fill="#FEFEFE" d="M559.703 732.602C562.815 733.59 565.779 743.791 571.875 747.006C578.278 750.384 587.049 745.373 590.34 747.069L590.6 748.621C585.829 750.574 580.638 751.486 575.503 750.571C570.429 749.667 565.282 746.697 562.359 742.379C560.571 739.736 559.094 735.783 559.703 732.602Z"/>
	<path fill="#F15F4A" d="M568.827 672.584C569.621 674.167 571.137 674.909 572.713 675.581C575.087 679.913 577.27 684.149 578.52 688.953C583.193 689.008 587.934 688.858 592.596 689.09C589.789 689.329 580.306 688.752 578.852 690.466L579.386 691.366C583.437 691.648 587.501 691.377 591.55 691.598C588.284 691.721 581.649 691.146 579.292 693.42C579.308 693.752 579.332 694.083 579.341 694.415C579.4 696.603 577.888 698.655 576.309 700.081C576.122 700.249 575.899 700.374 575.694 700.521C575.484 700.468 527.39 717.184 519.779 717.871L514.573 714.786C514.471 706.748 514.19 699.819 511.588 692.13C530.667 685.838 550.312 680.387 568.827 672.584Z"/>
	<path fill="#F7E4BA" d="M793.31 116.706Q794.824 116.739 796.336 116.842Q797.847 116.944 799.353 117.117Q800.858 117.289 802.353 117.53Q803.849 117.772 805.332 118.082Q806.814 118.392 808.281 118.77Q809.748 119.148 811.196 119.593Q812.644 120.039 814.07 120.55Q815.496 121.062 816.897 121.639Q818.298 122.215 819.671 122.856Q821.044 123.497 822.385 124.2Q823.727 124.903 825.035 125.668Q826.343 126.432 827.614 127.256Q828.886 128.08 830.118 128.961Q831.35 129.843 832.54 130.78Q833.73 131.718 834.876 132.709Q836.021 133.7 837.12 134.743C851.834 148.545 857.936 164.562 858.426 184.528C858.838 201.342 851.662 218.636 839.965 230.648C827.56 243.389 811.119 249.358 793.635 249.682C777.69 249.68 763.663 245.222 751.458 234.777Q750.177 233.696 748.952 232.551Q747.727 231.407 746.561 230.202Q745.395 228.998 744.292 227.736Q743.188 226.474 742.15 225.158Q741.111 223.842 740.14 222.475Q739.17 221.108 738.269 219.694Q737.368 218.28 736.54 216.823Q735.712 215.365 734.959 213.868Q734.205 212.37 733.528 210.836Q732.851 209.303 732.252 207.737Q731.653 206.171 731.134 204.577Q730.615 202.983 730.177 201.365Q729.738 199.747 729.383 198.109Q729.027 196.471 728.754 194.817Q728.481 193.163 728.292 191.497Q728.103 189.831 727.998 188.158Q727.897 186.504 727.877 184.847Q727.856 183.19 727.917 181.534Q727.978 179.878 728.12 178.227Q728.262 176.576 728.484 174.934Q728.706 173.292 729.009 171.663Q729.311 170.034 729.693 168.421Q730.075 166.809 730.535 165.217Q730.995 163.625 731.532 162.057Q732.07 160.49 732.683 158.951Q733.297 157.411 733.985 155.904Q734.673 154.397 735.434 152.925Q736.195 151.453 737.027 150.02Q737.859 148.587 738.76 147.196Q739.661 145.805 740.63 144.46Q741.598 143.116 742.63 141.82Q743.663 140.524 744.758 139.28C757.242 125.168 774.758 117.833 793.31 116.706Z"/>
	<path d="M423.975 420.384C432.579 416.313 445.109 413.805 454.604 411.13L529.157 390.696L586.865 374.189C595.172 371.79 603.678 368.408 612.134 366.831C615.177 366.264 617.372 366.319 619.918 368.196C626.025 372.696 628.939 381.79 630.112 388.957C631.225 395.749 631.76 406.043 627.418 411.809C626.216 413.405 624.646 414.546 622.723 415.106C614.701 417.441 601.654 418.017 592.812 419.284C565.982 423.13 539.02 426.694 512.293 431.183C517.984 447.253 502.452 457.205 498.876 471.617C501.311 472.762 503.872 473.843 505.431 476.163C512.46 486.619 502.156 557.352 498.595 572.389C507.354 572.863 515.645 574.641 523.446 578.765Q524.965 579.579 526.429 580.487Q527.893 581.395 529.297 582.393Q530.701 583.392 532.039 584.477Q533.378 585.562 534.645 586.729Q535.912 587.896 537.103 589.141Q538.294 590.385 539.405 591.703Q540.515 593.02 541.54 594.405Q542.565 595.789 543.501 597.236C551.165 608.954 555.117 624.194 559.705 637.372C564.125 650.069 568.765 662.73 572.713 675.581C571.137 674.909 569.621 674.167 568.827 672.584C550.312 680.387 530.667 685.838 511.588 692.13C509.831 687.573 507.869 683.223 505.529 678.934C501.014 670.658 481.746 639.243 475.879 634.604L474.84 634.428L474.45 634.875C475.749 639.638 480.687 645.076 483.524 649.202C492.246 661.884 511.212 688.757 511.575 703.465C512.394 709.136 511.903 715.365 511.89 721.111L511.992 748.829C512.005 752.445 511.425 757.358 512.287 760.845C513.213 760.878 514.148 760.942 515.075 760.917C516.908 766.289 515.371 777.051 512.862 782.196C512.155 783.645 511.272 784.948 510.309 786.234C499.687 788.168 487.686 787.063 476.908 787.024C466.204 786.986 454.736 787.826 444.183 786.05C442.965 784.634 441.851 783.14 441.102 781.417C439.022 776.635 437.297 766.694 439.505 761.949C440.008 760.868 440.333 761.038 441.388 760.651C442.413 753.843 442.497 746.731 442.897 739.856C443.33 732.407 444.171 724.684 443.652 717.232C443.442 714.223 442.855 711.274 441.71 708.473C438.926 701.668 433.13 696.378 426.364 693.636C423.093 692.311 419.59 692.092 416.105 691.915C406.822 691.444 397.408 691.85 388.111 691.864L343.148 691.758L305.207 691.723C298.177 691.706 291.024 691.431 284.01 691.825C281.471 691.968 279.111 692.345 276.773 693.396C272.22 695.442 268.816 698.754 266.443 703.091C263.411 708.633 261.774 714.812 259.792 720.781L251.669 745.119L235.887 790.76C231.03 804.904 226.408 819.101 221.154 833.106C215.625 836.187 209.992 838.113 205.642 842.987C200.81 848.4 198.21 857.726 195.512 864.428C192.974 870.733 178.204 908.942 175.902 910.734L174.667 910.062C174.774 908.915 175.036 907.884 175.372 906.787C178.162 897.676 182.834 888.497 186.494 879.664C190.447 870.123 197.14 849.442 203.071 841.996C207.148 836.878 213.525 834.075 219.192 831.108C227.788 804.761 237.384 778.626 246.34 752.385C251.81 736.359 256.352 719.464 262.927 703.904C264.236 700.806 265.85 698.296 268.272 695.924C271.274 692.985 274.64 691.079 278.708 690.051C287.011 687.953 319.601 689.246 330.366 689.282C322.449 685.117 315.744 680.351 310.43 673.035C302.042 661.486 298.336 647.705 300.598 633.619C294.535 633.608 288.102 633.982 282.099 633.213L281.848 632.645C283.365 623.437 286.447 614.269 289.045 605.302L297.338 575.594C300.479 564.465 303.833 553.392 306.893 542.243C310.282 529.899 313.302 517.02 318.405 505.251C322.832 495.041 329.097 485.796 335.852 477.008C335.223 476.266 334.598 475.518 334.025 474.731C332.435 472.546 330.967 469.951 331.571 467.145C332.633 462.214 341.595 453.6 344.827 449.206Q348.75 443.804 351.959 437.949C361.602 420.12 355.634 395.156 374.307 382.166C381.442 377.202 391.724 374.923 400.241 376.755C411.081 379.088 417.44 386.262 423.125 395.251L418.984 399.008C420.91 406.102 422.669 413.147 423.975 420.384Z"/>
	<path fill="#FEFEFE" d="M470.54 434.679C472.271 434.763 474.598 435.307 475.796 436.621C476.247 438.437 475.569 439.137 474.81 440.808L474.043 441.656C472.697 439.467 471.667 436.992 470.54 434.679Z"/>
	<path fill="#FEFEFE" d="M474.287 408.462C475.283 408.508 474.787 408.353 475.717 409.086C477.61 415.295 480.168 426.07 480.512 432.459Q478.713 433.83 476.991 435.296Q476.605 434.888 476.237 434.465C472.359 429.959 469.985 416.223 470.368 410.288C471.321 409.099 472.885 408.876 474.287 408.462Z"/>
	<path fill="#F69F94" d="M613.452 368.955C614.268 368.964 615.208 368.927 616.004 369.103C618.367 369.627 620.448 371.925 621.808 373.798C627.232 381.267 629.438 393.811 627.892 402.822C627.204 406.829 626.024 410.247 622.622 412.669C621.946 412.569 621.277 412.479 620.619 412.287C617.217 411.295 614.43 407.249 612.792 404.305C608.358 396.336 605.836 384.072 608.546 375.191C609.486 372.112 610.617 370.481 613.452 368.955Z"/>
	<path fill="#FEFEFE" d="M464.141 411.074C464.939 411.001 465.728 410.992 466.528 410.976C467.838 412.444 470.888 428.506 471.952 432.219C458.312 432.539 444.976 435.251 431.573 437.574L425.511 438.47C425.726 433.227 425.364 428.104 424.825 422.891C437.358 418.025 451.201 414.843 464.141 411.074Z"/>
	<path fill="#FEFEFE" d="M396.141 447.554C395.806 436.164 393.853 419.185 402.316 410.354C406.199 406.302 411.844 403.646 416.713 400.935C419.153 409.58 425.888 432.567 422.032 440.233C420.497 443.283 416.894 445.109 413.752 445.981C411.162 446.699 408.398 447.145 405.743 447.535C402.561 447.621 399.268 448.248 396.141 447.554Z"/>
	<path fill="#FEFEFE" d="M505.833 432.186C506.381 432.084 507.173 431.879 507.75 431.919C509.048 432.009 509.605 432.526 510.442 433.445C514.054 443.06 503.085 455.552 498.819 463.646C497.538 466.077 496.736 468.6 495.971 471.225C486.634 470.67 477.29 470.735 467.954 470.252L464.324 461.872C463.068 459.371 461.745 456.855 460.645 454.282C457.688 447.362 459.504 442.101 462.117 435.524L467.531 435.312C469.627 439.406 471.505 443.163 472.994 447.537C476.39 444.121 478.138 440.373 480.261 436.111C488.761 434.644 497.264 433.185 505.833 432.186Z"/>
	<path fill="#FEFEFE" d="M424.844 441.023C436.227 439.479 447.526 437.126 458.936 435.862C453.359 453.767 459.818 454.797 465.056 469.943C460.456 470.739 456.208 471.994 453.451 476.106C449.628 481.806 445.89 509.209 444.614 517.634C439.78 500.481 433.892 485.337 422.005 471.719C418.846 468.1 415.191 464.332 411.014 461.893C410.851 461.798 410.684 461.709 410.519 461.617C409.415 460.831 407.85 460.147 407.157 458.944C405.765 456.526 407.715 452.077 408.368 449.501C416.493 447.545 419.109 447.867 424.844 441.023Z"/>
	<path fill="#FEFEFE" d="M572.562 381.121C573.205 381.753 573.73 395.058 574.091 397.314C575.311 404.952 577.878 411.791 582.137 418.247C565.947 419.914 549.671 422.758 533.564 425.202C518.508 427.486 503.345 429.403 488.354 432.071L483.348 432.837C481.859 424.31 479.683 415.922 478.226 407.392L572.562 381.121Z"/>
	<path fill="#F7E4BA" d="M393.64 465.236C393.522 470.296 393.311 476.543 390.197 480.757C388.271 483.363 384.706 484.525 381.628 485.009C371.379 486.621 345.679 480.631 337.462 474.276C335.894 473.063 334.044 471.189 334.063 469.048C334.098 465.175 346.403 452.361 349.301 447.838C353.253 441.671 356.491 435.047 358.405 427.958C361.957 414.805 361.262 398.8 371.236 388.261C376.949 382.223 386.012 378.593 394.288 378.581C402.33 378.569 409.812 382.838 415.327 388.49C416.734 389.932 418.236 391.952 417.973 394.099C417.329 399.37 403.949 404.598 400.002 408.667C391.777 417.147 393.411 434.658 393.507 445.432L393.64 465.236Z"/>
	<path fill="#F15F4A" d="M409.758 463.753C427.664 475.789 438.773 502.303 442.746 522.687Q443.047 524.18 443.29 525.684C431.021 517.402 419.272 508.493 406.864 500.362C402.181 497.293 397.479 493.872 392.35 491.584C388.643 489.931 384.982 488.958 380.894 488.869C376.33 488.846 372.369 489.186 368.057 490.792C359.948 493.811 353.443 500.412 349.975 508.277C346.262 516.695 346.603 526.12 350.011 534.578C361.97 564.257 411.117 595.926 440.121 608.347C438.693 615.808 439.38 623.309 440.196 630.788C418.28 629.7 395.97 630.881 374.004 630.888C344.217 630.897 314.232 630.004 284.477 630.976L305.871 555.189C311.098 536.765 315.298 517.653 323.588 500.293C327.44 492.225 332.763 485.271 338.217 478.254C349.166 484.065 368.078 488.063 380.601 488.177C384.039 488.036 387.416 486.888 389.961 484.517C394.688 480.114 395.883 472.765 395.974 466.582L396.354 465.214C397.759 466.383 398.869 470.228 399.702 471.998C402.694 478.352 413.506 503.361 418.587 505.936C419.928 505.877 419.964 505.844 421.004 504.989C421.995 500.353 415.804 480.744 413.958 475.457C412.718 471.905 410.72 468.177 409.92 464.539C409.863 464.277 409.812 464.015 409.758 463.753Z"/>
	<path fill="#F15F4A" d="M462.057 473.11C470.071 472.648 496.346 471.607 502.354 476.242C504.275 477.724 504.83 480.696 505.1 482.953C505.957 490.118 504.971 498.105 504.547 505.318C503.252 527.321 499.951 576.916 486.713 593.968C480.632 601.801 471.972 607.415 462.03 608.647C437.196 611.724 403.055 585.464 384.268 570.596C377.737 565.366 371.347 559.779 365.746 553.558C357.195 544.059 348.946 532.418 349.853 518.993C350.39 511.056 354.019 503.944 359.975 498.701Q360.728 498.034 361.523 497.419Q362.319 496.804 363.154 496.244Q363.989 495.684 364.86 495.181Q365.731 494.678 366.634 494.234Q367.536 493.79 368.466 493.408Q369.397 493.026 370.35 492.708Q371.304 492.389 372.277 492.135Q373.25 491.88 374.238 491.692C388.644 489.066 399.139 498.304 410.256 505.793C419.646 512.119 428.827 518.679 438.019 525.288C441.272 527.627 446.947 532.499 450.988 532.745L450.914 531.873C449.625 529.715 447.844 528.72 445.774 527.434C448.555 514.794 450.545 488.867 455.315 478.413C456.725 475.322 458.967 474.201 462.057 473.11Z"/>
	<path fill="#FEFEFE" d="M497.899 575.355C506.722 575.364 515.163 577.301 522.941 581.548Q524.342 582.328 525.692 583.193Q527.042 584.058 528.336 585.005Q529.63 585.952 530.863 586.978Q532.096 588.003 533.262 589.103Q534.429 590.203 535.525 591.374Q536.621 592.544 537.643 593.78Q538.664 595.016 539.607 596.313Q540.55 597.61 541.411 598.963C549.002 610.667 552.797 625.735 557.374 638.872C561.269 650.052 565.484 661.228 568.827 672.584C550.312 680.387 530.667 685.838 511.588 692.13C509.831 687.573 507.869 683.223 505.529 678.934C501.014 670.658 481.746 639.243 475.879 634.604L474.84 634.428L474.45 634.875C475.749 639.638 480.687 645.076 483.524 649.202C492.246 661.884 511.212 688.757 511.575 703.465C512.394 709.136 511.903 715.365 511.89 721.111L511.992 748.829C512.005 752.445 511.425 757.358 512.287 760.845C513.213 760.878 514.148 760.942 515.075 760.917C516.908 766.289 515.371 777.051 512.862 782.196C512.155 783.645 511.272 784.948 510.309 786.234C499.687 788.168 487.686 787.063 476.908 787.024C466.204 786.986 454.736 787.826 444.183 786.05C442.965 784.634 441.851 783.14 441.102 781.417C439.022 776.635 437.297 766.694 439.505 761.949C440.008 760.868 440.333 761.038 441.388 760.651L444.506 760.977C444.279 748.406 446.065 735.49 446.498 722.883C446.806 713.896 445.121 705.386 438.668 698.638Q437.935 697.875 437.15 697.165Q436.366 696.456 435.534 695.802Q434.701 695.149 433.826 694.556Q432.95 693.962 432.035 693.431Q431.12 692.9 430.17 692.434Q429.22 691.969 428.239 691.57Q427.259 691.172 426.254 690.844Q425.248 690.515 424.222 690.257C416.043 688.289 406.422 689.177 398.027 689.188C382.258 689.209 366.442 689.56 350.679 689.247C336.97 688.974 326.071 686.278 316.333 675.985C305.03 664.037 302.091 649.446 302.623 633.553L443.159 633.461C442.216 625.11 441.592 617.641 442.859 609.296C453.9 612.407 464.908 612.608 475.324 607.312C488.507 600.61 493.653 588.703 497.899 575.355Z"/>
	<path fill="#F15F4A" d="M511.575 703.465C512.394 709.136 511.903 715.365 511.89 721.111L511.992 748.829C512.005 752.445 511.425 757.358 512.287 760.845C513.213 760.878 514.148 760.942 515.075 760.917C516.908 766.289 515.371 777.051 512.862 782.196C512.155 783.645 511.272 784.948 510.309 786.234C499.687 788.168 487.686 787.063 476.908 787.024C466.204 786.986 454.736 787.826 444.183 786.05C442.965 784.634 441.851 783.14 441.102 781.417C439.022 776.635 437.297 766.694 439.505 761.949C440.008 760.868 440.333 761.038 441.388 760.651L444.506 760.977C466.762 761.374 489.509 762.375 511.708 761.036Q511.371 732.251 511.575 703.465Z"/>
</svg>
