<svg id="Layer_2" data-name="Layer 2" xmlns="http://www.w3.org/2000/svg" viewBox="0 0 1000 1000"><defs><style>.cls-1{fill:#ebf3fd;}.cls-2{fill:#71beff;}.cls-3{fill:#30364c;}.cls-4{fill:#df5353;}.cls-5{fill:#ffbc47;}.cls-6{fill:#f7cfd9;}.cls-7{fill:#58e87c;}.cls-8{fill:#fff;}</style></defs><title>Projek</title><path class="cls-1" d="M497.62,186.94c-208.22,0-377,168.8-377,377a375.5,375.5,0,0,0,93.13,248.09H337l408.93-531.8A375.6,375.6,0,0,0,497.62,186.94Z"/><path class="cls-1" d="M787.05,422.94,487.85,812.06H825.72a280.63,280.63,0,0,0-38.67-389.12Z"/><path class="cls-1" d="M703,417.44c4.44-7.44,16.91-9.38,27-10.16q-53.85,75.57-110.77,148.89c-1.25,1.61-2.5,3.23-3.76,4.84l-11.26-8.64,3.8-4.83q16.66-21.19,33.31-42.41C656,486.34,670.59,467.42,684,447.65,690.66,437.79,696.87,427.67,703,417.44Z"/><path class="cls-2" d="M703.91,788.81a15.36,15.36,0,0,1,8.61,15,16.32,16.32,0,0,1-2.3,7H623.93a14.69,14.69,0,0,1-2.9-5.58c-1.1-4-1-8.18-1.7-12.23-1.82-10.29-8.89-18.88-16.7-25.82S586,754.39,578.94,746.7A41.24,41.24,0,0,1,567.62,720a21.41,21.41,0,0,1,0-3.11c.66-8.19,5.54-15,8.7-22.76.82-2,1.55-4.09,2.31-6.17,2.14-5.81,4.51-11.52,9.6-14.75a15.35,15.35,0,0,1,7.87-2.32h0a22.33,22.33,0,0,1,13.37,4.26c6.14,4.4,10.2,11.08,13.82,17.71,10.51,19.24,18.73,39.63,26.19,60.22,3,8.25,3.87,17.74,8.25,25.46,4.27,7.51,14.41,10.81,22.77,10.55C688.44,788.84,696.71,785.59,703.91,788.81Z"/><path class="cls-2" d="M604.2,552.37,615.46,561c1.26-1.61,2.51-3.23,3.76-4.84l6.06,4.65A9.54,9.54,0,1,1,613.65,576l-6.16-4.73-11.3-8.68h0l-2.28-1.75-5.17-4a9.54,9.54,0,1,1,11.63-15.13l7.64,5.86Z"/><path class="cls-3" d="M596.19,562.54l11.3,8.68-1.23,1.57c-3.39-.74-7.43-.6-9.76-.89a11.84,11.84,0,0,1-3.33-.75,3.48,3.48,0,0,1-2-2.29q2.22-2.76,4.41-5.55Z"/><path class="cls-4" d="M394.89,648.11a67.52,67.52,0,0,1,3.53-19.37,56.84,56.84,0,0,1,2.52-6.16c1.62-.07,3.23-.18,4.84-.32h0c4.2,7.4,10.62,13.88,18,19.31,14.59,10.71,33.75,14.11,51.69,11.6,16-2.22,40.85-9.84,50.84-25,11,5.63,22,11.41,33.2,16.65,9.12,4.26,18.53,8.23,26.4,14.51a42.87,42.87,0,0,1,10.22,11.55,15.35,15.35,0,0,0-7.87,2.32c-5.09,3.23-7.46,8.94-9.6,14.75-.76,2.08-1.49,4.17-2.31,6.17-3.16,7.75-8,14.57-8.7,22.76-21.95-17.11-55.35-15.7-74.18-37.3l0,0c-2.69,9.25-3.16,19-4.25,28.53a103,103,0,0,1-2.29,13.51c-2.77-4.33-8.24-6.46-14.47-5.37-5.73,1-11,3.81-16.34,6.13s-11.2,4.18-16.91,3.1-10.83-5-16.62-4.94a9.18,9.18,0,0,0-1.17.07c-2.08-5.88-7-11.36-10.07-16.57a128.42,128.42,0,0,1-13.58-31.12A83.27,83.27,0,0,1,394.89,648.11Z"/><path class="cls-2" d="M581.36,414.49v5a18.5,18.5,0,0,1-18.5,18.5H515.35a18.49,18.49,0,0,1-16.82-10.79,17.75,17.75,0,0,1-1.25-3.77,18.3,18.3,0,0,1-.43-3.94v-5a18.31,18.31,0,0,1,.84-5.52,18.5,18.5,0,0,1,17.66-13h47.51a18.49,18.49,0,0,1,18.5,18.5Z"/><path class="cls-2" d="M347.25,367.73l-12.32,17.85h-23.1a8.93,8.93,0,0,1,0-17.85Z"/><path class="cls-3" d="M577.6,361.84a32.11,32.11,0,0,1-1.82,23.56,31.6,31.6,0,0,1-9,11,18.37,18.37,0,0,0-3.88-.41H515.35a18.5,18.5,0,0,0-17.66,13h-33a53.44,53.44,0,0,1,34.84-34.34c10-3,20.7-2.95,31.09-4.29s21-4.54,28-12.36c2.14,3.93,3.13,8.76,1.33,12.86C566.46,370.79,573.53,367,577.6,361.84Z"/><path class="cls-5" d="M540.47,554.7l-.08-.07q-.54,6.42-1.36,12.8c-.26,2-.59,4.08-.95,6.12-8.13-.07-15.83.42-23.81,3.61l-3.22-9.33c1-.37,2-.72,3-1.05.79-.26.49-2.37-.48-5.56,9.91-12,18.12-25.26,22.68-40.11,3.66-11.92,6.27-27.71,1.08-39.65a25.28,25.28,0,0,0,4.59-2.38c.64.49,1.27,1,1.87,1.52,8.5,7.42,13.72,17.85,18,28.3s7.85,21.28,14,30.76c-.89.92-1.83,1.84-2.81,2.73a81,81,0,0,1-25.13,15.48c-.89.34-1.78.65-2.66.94C543.62,557.44,542,556.08,540.47,554.7Z"/><path class="cls-3" d="M571.76,616.27c-1.31,1.63-2.62,3.27-3.94,4.9a46.45,46.45,0,0,1-11.87-7.7c3.36-4.64,6.81-9.19,10.34-13.7h0c1.19-.52,2.39-1,3.6-1.53-1.61,3.51-1,8.18,2.18,10.31-.61,1.16-2.11,1.43-3.38,1.75s-2.72,1.19-2.6,2.49a2.71,2.71,0,0,0,1.06,1.68A7.87,7.87,0,0,0,571.76,616.27Z"/><path class="cls-6" d="M480,442.91a15.54,15.54,0,0,1-3.65-4.53,14.62,14.62,0,0,1,.94-14.93,10.19,10.19,0,0,1,6.49-4.13,11.4,11.4,0,0,1,2.51-.16c3.05.12,6.08,1.8,8.56,4.29A20.74,20.74,0,0,1,498,427.5l.51-.28A18.49,18.49,0,0,0,515.35,438h44.92a94.91,94.91,0,0,0-5,14.89c-1.76,8.43-3.79,17.37-9.93,23.41a23.69,23.69,0,0,1-3.42,2.77,25.28,25.28,0,0,1-4.59,2.38,32.86,32.86,0,0,1-8.72,2.15,45.71,45.71,0,0,1-8.67.15l-.51,0a58.08,58.08,0,0,1-34.24-15.46,60,60,0,0,1-6.82-7.44C477.12,454.33,477.1,448.26,480,442.91Zm61.14,21.2c1.38-5.16-.36-4.53-4.81-6l-14.8-4.73c-1.85,1-4.66,2.39-6,4.34a4.12,4.12,0,0,0-.6,1.34c-1.09,4.52,2.68,4.24,5.84,4a29.77,29.77,0,0,1,15.1,3,4.52,4.52,0,0,0,2.94.76C540.14,466.66,540.85,465.34,541.18,464.11Z"/><path class="cls-1" d="M536.37,458.15c4.45,1.43,6.19.8,4.81,6-.33,1.23-1,2.55-2.29,2.83a4.52,4.52,0,0,1-2.94-.76,29.77,29.77,0,0,0-15.1-3c-3.16.2-6.93.48-5.84-4a4.12,4.12,0,0,1,.6-1.34c1.3-1.95,4.11-3.37,6-4.34Z"/><path class="cls-3" d="M537.37,481.46c5.19,11.94,2.58,27.73-1.08,39.65-4.56,14.85-12.77,28.12-22.68,40.11-1.08-3.56-3-8.46-5.15-13.63,8.42-10.77,15.33-22.57,19.38-35.59,2.42-7.81,3.78-16.18,2.06-24.18a28.6,28.6,0,0,0-1.25-4.21A32.86,32.86,0,0,0,537.37,481.46Z"/><path class="cls-5" d="M530.69,614.84c0,.07,0,.14,0,.21a25.38,25.38,0,0,1-4.35,13.14c-10,15.15-34.88,22.77-50.84,25-17.94,2.51-37.1-.89-51.69-11.6-7.4-5.43-13.82-11.91-18-19.31h0c26.88-2.25,53.05-13.18,74.81-29.33l2.14,6c0,.16.11.32.17.48,3.76,10.47,14.74,17.09,25.81,18.13C516.13,618.21,523.51,617,530.69,614.84Z"/><path class="cls-5" d="M529.9,487.82c1.72,8,.36,16.37-2.06,24.18-4.05,13-11,24.82-19.38,35.59-4.88-11.65-11.06-24.68-11.91-26.8C491.8,509,489.33,499.33,477.31,493c-6.26-3.33-14.09-4.3-20.42-1.14a20.87,20.87,0,0,0-7.39,6.05l-.53-.4c7.06-9.41,18.82-16.74,31-21.25l.57-.22h0c-1.82,3-3.27,5.35-3.27,5.43a31.29,31.29,0,0,0,18.12,14.49,30.49,30.49,0,0,0,22.84-1.8c.47-.25,1.24-5.3,1.74-10.36a45.71,45.71,0,0,0,8.67-.15A28.6,28.6,0,0,1,529.9,487.82Z"/><path class="cls-6" d="M519.47,483.72l.51,0c-.5,5.06-1.27,10.11-1.74,10.36a30.49,30.49,0,0,1-22.84,1.8,31.29,31.29,0,0,1-18.12-14.49c0-.08,1.45-2.46,3.27-5.43,1.51-2.49,3.28-5.4,4.68-7.74A58.08,58.08,0,0,0,519.47,483.72Z"/><path class="cls-5" d="M513.61,561.22c1,3.19,1.27,5.3.48,5.56-1,.33-2,.68-3,1.05a100.86,100.86,0,0,0-32.49,19.45c-2.2,2-4.32,4-6.34,6.18a57.86,57.86,0,0,1-5.73-6.5C455.32,572.34,449,551.48,446,534.35c-2-11.33-3.88-26.76,3.55-36.49a20.87,20.87,0,0,1,7.39-6.05c6.33-3.16,14.16-2.19,20.42,1.14,12,6.38,14.49,16,19.24,27.84.85,2.12,7,15.15,11.91,26.8C510.62,552.76,512.53,557.66,513.61,561.22Z"/><path class="cls-2" d="M464.65,409h33a18.31,18.31,0,0,0-.84,5.52v5a18.3,18.3,0,0,0,.43,3.94h-2.39c-2.48-2.49-5.51-4.17-8.56-4.29a11.4,11.4,0,0,0-2.51.16,10.19,10.19,0,0,0-6.49,4.13H463.45a6.71,6.71,0,0,1-1.1-.09,7.24,7.24,0,0,1,1.1-14.39Z"/><path class="cls-2" d="M488.83,727.75a16.79,16.79,0,0,1-.35,4.38c-2.47,12-11.5,21.58-20.54,28.78-4.64,3.71-9.51,7.91-14.57,11-5.26,3.16-16.1,7.53-11.91,15.91,3.4,6.8,12.36,6.71,14.45,15.55a15.28,15.28,0,0,1-.16,7.48h-77c-5.94-3.16-9.59-10.7-7.17-17.55,1.95-5.47,6.2-9.62,10-13.92a106.51,106.51,0,0,0,19.64-32.67c2.16-5.69,3.87-11.65,7.11-16.74,3-4.76,7.74-8.77,13.13-9.32a9.18,9.18,0,0,1,1.17-.07c5.79-.06,10.92,3.87,16.62,4.94s11.55-.78,16.91-3.1,10.61-5.14,16.34-6.13c6.23-1.09,11.7,1,14.47,5.37A12.53,12.53,0,0,1,488.83,727.75Z"/><path class="cls-2" d="M413.78,473c-17.14,7.62-32.76,21.33-43.51,40A100.75,100.75,0,0,0,361,534.34a93.72,93.72,0,0,0-4.07,27c0,22.44,8.42,43.28,24.31,56.89l.05,0a55.5,55.5,0,0,0,5,4.06l.37,0q2,1.39,4.19,2.64a62.84,62.84,0,0,0,7.6,3.73h0a67.52,67.52,0,0,0-3.53,19.37,82.73,82.73,0,0,1-13.75-6.35c-33-19.07-48.34-58-41.87-97.21A114.32,114.32,0,0,1,353.17,506l1.14-1.93c27-44.77,79-64.09,121.12-46.39.94,1.1,1.94,2.16,3,3.18a60,60,0,0,0,6.82,7.44c-1.4,2.34-3.17,5.25-4.68,7.74h0l-.57.22h0c-.78-.52-1.58-1-2.39-1.47C458.13,463.49,434.81,463.65,413.78,473Z"/><path class="cls-3" d="M478.56,587.28c.68,1.89,1.35,3.77,2,5.65-21.76,16.15-47.93,27.08-74.81,29.33-1.61.14-3.22.25-4.84.32a120.13,120.13,0,0,1-14.32-.21,63.17,63.17,0,0,1-5.33-4.09l-.05,0a86.38,86.38,0,0,1-6.28-6.41,121.39,121.39,0,0,0,26.61-.25c23.1-2.7,45.53-11.63,64.92-24.62a57.86,57.86,0,0,0,5.73,6.5C474.24,591.31,476.36,589.24,478.56,587.28Z"/><path class="cls-3" d="M413.78,473c21-9.34,44.35-9.5,63.8,1.74.81.47,1.61.95,2.39,1.47h0c-12.18,4.51-23.94,11.84-31,21.25-.38.5-.74,1-1.09,1.52-7.12,10.48-10.94,22.83-14.1,35.1-3.08,12-5.17,25.29-11,36.29-5.41,10.15-13.63,19.64-21.67,27.78a35.8,35.8,0,0,0,.51,13.43,121.39,121.39,0,0,1-26.61.25,86.38,86.38,0,0,0,6.28,6.41c-15.89-13.61-24.33-34.45-24.31-56.89a93.72,93.72,0,0,1,4.07-27A100.75,100.75,0,0,1,370.27,513C381,494.32,396.64,480.61,413.78,473Z"/><path class="cls-3" d="M480,442.91c-2.94,5.35-2.92,11.42-1.63,17.91-1-1-2-2.08-3-3.18a52.21,52.21,0,0,1-13.08-34.28,6.71,6.71,0,0,0,1.1.09h13.88a14.62,14.62,0,0,0-.94,14.93A15.54,15.54,0,0,0,480,442.91Z"/><path class="cls-5" d="M446,534.35c3.07,17.13,9.37,38,20.54,52.61-19.39,13-41.82,21.92-64.92,24.62a35.8,35.8,0,0,1-.51-13.43c8-8.14,16.26-17.63,21.67-27.78,5.88-11,8-24.31,11-36.29,3.16-12.27,7-24.62,14.1-35.1.35-.51.71-1,1.09-1.52l.53.4C442.07,507.59,443.92,523,446,534.35Z"/><path class="cls-3" d="M400.94,622.58a56.84,56.84,0,0,0-2.52,6.16h0a62.84,62.84,0,0,1-7.6-3.73q-2.16-1.25-4.19-2.64A120.13,120.13,0,0,0,400.94,622.58Z"/><path class="cls-6" d="M579.49,594.82a51.18,51.18,0,0,1,11.27-2.37,8.48,8.48,0,0,1,2.91,3.52,11.31,11.31,0,0,1,0,8.77,13.51,13.51,0,0,1-1.36,2.58,18.91,18.91,0,0,1-9.56,6.84c-3.09,1.08-7.35,2.44-11,2.11a7.87,7.87,0,0,1-4.6-1.81,2.71,2.71,0,0,1-1.06-1.68c-.12-1.3,1.33-2.16,2.6-2.49s2.77-.59,3.38-1.75c-3.19-2.13-3.79-6.8-2.18-10.31A96.57,96.57,0,0,1,579.49,594.82Z"/><path class="cls-6" d="M584.92,562.34l-.09.07c-2.85,2.41-3.63,6.41-7.14,8.34C572.54,573.58,565,574.08,558,574c-.84-1.5-1.59-3-2.29-4.55-1.83-3.93-5.33-7.68-7.88-11.61A81,81,0,0,0,573,542.39,40.12,40.12,0,0,1,584.92,562.34Z"/><path class="cls-6" d="M558,574c7,.05,14.52-.45,19.67-3.28,3.51-1.93,4.29-5.93,7.14-8.34l.09-.07c1.5-1.17,5.87-2.09,9-1.56l2.28,1.75-5,6.31v0a3.48,3.48,0,0,0,2,2.29,11.84,11.84,0,0,0,3.33.75c2.33.29,6.37.15,9.76.89,3,.67,5.54,2,5.87,5a10,10,0,0,1-1.74,6A31.63,31.63,0,0,1,604.6,591c-1.48,1.36-3.22,2.65-5.23,2.77-1.65.1-3.22-.59-4.82-1a12.84,12.84,0,0,0-3.79-.29,51.18,51.18,0,0,0-11.27,2.37,96.57,96.57,0,0,0-9.59,3.41c-1.21.49-2.41,1-3.6,1.53h0c-8.41,3.7-16.55,8.08-25.13,11.43-3.43,1.34-6.92,2.6-10.47,3.64-7.18,2.12-14.56,3.37-22,2.67-11.07-1-22-7.66-25.81-18.13-.06-.16-.12-.32-.17-.48l-2.14-6c-.68-1.88-1.35-3.76-2-5.65a100.86,100.86,0,0,1,32.49-19.45l3.22,9.33c8-3.19,15.68-3.68,23.81-3.61,3.27,0,6.62.15,10.08.23C551,573.85,554.46,574,558,574Z"/><path class="cls-7" d="M836.81,736.47c16,15.15,22.46,35.34,16.6,56.6a59.39,59.39,0,0,1-9.19,19H751.4a38.47,38.47,0,0,0,14.46-29c4.19,5.67,8.37,8.11,12.56,13.78,12-10.62,15.26-29.59,10.35-44.82,14,8.65,22.2,22.44,24.23,38.73C830.35,780.72,841,756.06,836.81,736.47Z"/><path class="cls-7" d="M543.27,776.83c6.65,6.63,7.72,17.08,6.38,26.37a29.74,29.74,0,0,1-2.76,8.86H508.74a32.31,32.31,0,0,0,12.42-22.81c3.08,5.2,3.84,7,6.91,12.23A40,40,0,0,0,543.27,776.83Z"/><path class="cls-7" d="M302.33,796.54l.81.62a22,22,0,0,1,9.66-23.44c1.1,14.88,8.9,29,20.47,38.34h-91.4a76.8,76.8,0,0,1-14.26-31.3c-4.65-23.33,4.28-46.89,20.21-64.57-6.5,25.92,2.21,55,23.23,71.51-1.89-13,3-25,12.39-34.21C282.39,769.81,289.44,786.5,302.33,796.54Z"/><path class="cls-8" d="M621.12,380.3l-7.67-23.44,23.45-7.67,7.66,23.45Zm-4.52-21.85,6.12,18.7L641.41,371l-6.11-18.7Z"/><path class="cls-8" d="M644.7,689.82,637,666.37l23.44-7.66,7.67,23.44ZM640.19,668l6.11,18.69L665,680.55l-6.11-18.69Z"/><rect class="cls-8" x="482.13" y="288.2" width="2.5" height="33.85" transform="translate(127.71 752.62) rotate(-83.78)"/><rect class="cls-8" x="466.46" y="303.87" width="33.85" height="2.5" transform="translate(127.66 752.58) rotate(-83.78)"/><path class="cls-8" d="M629,483.77a15.11,15.11,0,1,1,15.1-15.11A15.13,15.13,0,0,1,629,483.77Zm0-27.71a12.61,12.61,0,1,0,12.6,12.6A12.62,12.62,0,0,0,629,456.06Z"/><path class="cls-8" d="M388.86,439.58l-37.65-6.9L376,403.53ZM355.92,431l29.13,5.34-9.95-27.9Z"/><path class="cls-8" d="M720.05,605.19l-37.65-6.9,24.79-29.16Zm-32.94-8.58L716.24,602l-10-27.9Z"/><rect class="cls-8" x="299.85" y="569.15" width="2.5" height="33.85" transform="translate(-314.13 821.93) rotate(-83.78)"/><rect class="cls-8" x="284.17" y="584.82" width="33.85" height="2.5" transform="translate(-314.16 821.87) rotate(-83.78)"/><path d="M562.86,439H515.35a19.53,19.53,0,0,1-19.5-19.5v-5a19.53,19.53,0,0,1,19.5-19.5h47.51a19.53,19.53,0,0,1,19.5,19.5v5A19.53,19.53,0,0,1,562.86,439Zm-47.51-42a17.52,17.52,0,0,0-17.5,17.5v5a17.52,17.52,0,0,0,17.5,17.5h47.51a17.52,17.52,0,0,0,17.5-17.5v-5a17.52,17.52,0,0,0-17.5-17.5Z"/><path d="M522,434.92a1,1,0,0,1-.62-.22,19.4,19.4,0,0,1-7.28-15.19v-5a19.38,19.38,0,0,1,5.71-13.79,1,1,0,0,1,1.42,0,1,1,0,0,1,0,1.41,17.38,17.38,0,0,0-5.13,12.38v5a17.42,17.42,0,0,0,6.53,13.63,1,1,0,0,1,.15,1.41A1,1,0,0,1,522,434.92Z"/><path d="M523.57,484.89c-1.55,0-3-.07-4.18-.17-15.93-1.35-31.54-10.05-41.77-23.29a1,1,0,0,1,1.58-1.22c9.9,12.8,25,21.22,40.35,22.51,6.16.52,17.6.29,25.13-7.12,6.13-6,8.08-15.39,9.65-22.9a91.72,91.72,0,0,1,4.72-14.33l.29-.72a1,1,0,0,1,1.86.72l-.28.73a89,89,0,0,0-4.63,14c-1.63,7.79-3.65,17.47-10.21,23.92S530.28,484.89,523.57,484.89Z"/><path d="M485.42,447a1,1,0,0,1-.33-.06,17.37,17.37,0,0,1-9.58-8.13,15.75,15.75,0,0,1-.19-14,11.46,11.46,0,0,1,8.32-6.51,12.34,12.34,0,0,1,2.73-.18c4.58.17,9.37,3.56,12.51,8.83a1,1,0,1,1-1.72,1c-2.75-4.62-7-7.71-10.86-7.86a10.19,10.19,0,0,0-2.3.16,9.53,9.53,0,0,0-6.89,5.42,13.93,13.93,0,0,0,.17,12.18,15.33,15.33,0,0,0,8.46,7.17,1,1,0,0,1-.32,1.95Z"/><path d="M498,428.5a1,1,0,0,1-.47-1.88l.51-.28a1,1,0,1,1,.94,1.76l-.51.28A1,1,0,0,1,498,428.5Z"/><path d="M478.41,461.82a1,1,0,0,1-.7-.29,53.71,53.71,0,0,1-16.36-38.17,1,1,0,0,1,1-1h0a1,1,0,0,1,1,1A51.48,51.48,0,0,0,476.9,457.8c-.8-6.19-.07-11.13,2.26-15.37a1,1,0,1,1,1.76,1c-2.48,4.52-3,10-1.53,17.24a1,1,0,0,1-.5,1.07A1,1,0,0,1,478.41,461.82Z"/><path d="M464.65,410a1.18,1.18,0,0,1-.31-.05,1,1,0,0,1-.64-1.26,54.18,54.18,0,0,1,35.5-35c7-2.1,14.36-2.73,21.48-3.34,3.22-.28,6.54-.57,9.77-1,12.65-1.63,21.6-5.57,27.37-12a1,1,0,0,1,1.63.19c2.29,4.21,2.95,8.58,1.9,12.27a23.53,23.53,0,0,0,15.47-8.55,1,1,0,0,1,1-.36,1,1,0,0,1,.77.68,33.06,33.06,0,0,1-1.87,24.3,32.58,32.58,0,0,1-9.33,11.35,1,1,0,0,1-1.22-1.58A30.6,30.6,0,0,0,574.88,385a31,31,0,0,0,2.26-21.06c-4.47,4.76-11.17,7.89-17.23,7.94h0a1,1,0,0,1-.84-.45,1,1,0,0,1-.08-.95c1.34-3.05,1.09-6.9-.66-10.73-6.11,6.21-15.16,10-27.61,11.62-3.28.42-6.62.71-9.86,1-7,.6-14.27,1.22-21.07,3.27a52.16,52.16,0,0,0-34.18,33.69A1,1,0,0,1,464.65,410Z"/><path d="M497.28,424.45h-2.39a1,1,0,0,1,0-2h2.39a1,1,0,0,1,0,2Z"/><path d="M477.33,424.45H463.45a8.24,8.24,0,1,1,0-16.48h34.24a1,1,0,1,1,0,2H463.45a6.24,6.24,0,0,0,0,12.48h13.88a1,1,0,0,1,0,2Z"/><path d="M538.39,468a6.41,6.41,0,0,1-2.81-.88,28.74,28.74,0,0,0-14.67-3c-2.38.16-5,.32-6.33-1.27a4.4,4.4,0,0,1-.54-4,5,5,0,0,1,.74-1.66h0c1.39-2.1,4.13-3.53,6.13-4.57l.2-.1a1,1,0,0,1,.77-.07l14.8,4.73c.72.23,1.37.41,1.94.56,3.25.88,4.88,1.57,3.53,6.61-.52,1.94-1.63,3.23-3,3.55A3.69,3.69,0,0,1,538.39,468Zm-15.69-5.92a30.64,30.64,0,0,1,13.69,3.21,4,4,0,0,0,2.28.68c1-.22,1.43-1.68,1.55-2.12.89-3.34.72-3.39-2.12-4.16-.6-.16-1.28-.34-2-.59l-14.41-4.6c-1.7.89-4.14,2.21-5.21,3.82h0a3.11,3.11,0,0,0-.47,1,2.82,2.82,0,0,0,.13,2.23c.7.82,2.85.69,4.58.57Q521.69,462.08,522.7,462.08Zm-7.09-4.32h0Z"/><path d="M504.86,498.33a34.19,34.19,0,0,1-9.75-1.45,32.18,32.18,0,0,1-18.7-15,1,1,0,0,1-.13-.49c0-.36,0-.36,3.47-6.05,1.5-2.47,3.25-5.33,4.62-7.63a1,1,0,1,1,1.72,1c-1.38,2.31-3.13,5.18-4.64,7.65-1.23,2-2.5,4.11-3,5A30.21,30.21,0,0,0,495.69,495a29.39,29.39,0,0,0,21.84-1.6,65.28,65.28,0,0,0,1.45-9.7,1,1,0,0,1,2,.2c-1,10.49-1.84,10.91-2.27,11.14A29.8,29.8,0,0,1,504.86,498.33Zm12.61-4.82Z"/><path d="M472.22,594.46a1,1,0,0,1-.69-.29C454.8,578,447.71,549.84,445,534.52c-2.18-12.2-3.73-27.46,3.71-37.25a1,1,0,1,1,1.59,1.22c-7,9.16-5.44,23.88-3.33,35.68C449.59,549,456.39,576.1,472.2,592a101.42,101.42,0,0,1,41.34-26.12c.8-3.65-11.39-30.37-15.44-39.24-1.26-2.76-2.18-4.76-2.47-5.5a1,1,0,0,1,1.85-.75c.28.7,1.19,2.68,2.44,5.42,10.22,22.41,16.75,37.95,15.41,41a1.54,1.54,0,0,1-.93.87A99.47,99.47,0,0,0,473,594.14a1,1,0,0,1-.7.32Z"/><path d="M514.27,578.16a1.06,1.06,0,0,1-.42-.09,1,1,0,0,1-.53-.58l-3.22-9.33a1,1,0,1,1,1.9-.66l2.88,8.35c9.93-3.7,19.56-3.44,29.74-3.16l3.56.09c1,0,2.09.06,3.22.1,8.1.26,19.19.63,25.81-3,1.77-1,2.78-2.57,3.85-4.27a16.17,16.17,0,0,1,3.12-4c1.75-1.49,6.65-2.41,9.89-1.86a1,1,0,0,1-.34,2c-3-.52-7.16.48-8.25,1.4a14.48,14.48,0,0,0-2.73,3.5c-1.16,1.83-2.36,3.74-4.58,5-7.1,3.89-18.51,3.52-26.84,3.25-1.12,0-2.19-.08-3.19-.1l-3.58-.09c-10.74-.29-20-.55-29.92,3.4A.94.94,0,0,1,514.27,578.16Z"/><path d="M512.93,618.7c-1.43,0-2.87-.06-4.31-.19-12.33-1.16-23-8.71-26.66-18.79-.06-.17-.13-.34-.18-.52l-4.16-11.58a1,1,0,1,1,1.88-.68l4.17,11.62c.06.18.11.33.17.47,3.36,9.38,13.4,16.4,25,17.48,11.39,1.08,22.56-2.55,32-6.24,5.17-2,10.29-4.47,15.25-6.84,7.41-3.54,15.08-7.2,23.16-9.57,4.38-1.29,11-3.24,15.59-2.09.43.11.86.24,1.29.37a9.51,9.51,0,0,0,3.22.6c1.79-.1,3.4-1.39,4.61-2.51a30.62,30.62,0,0,0,5.61-7c.79-1.36,1.82-3.38,1.61-5.35-.48-4.25-6.94-4.56-11.66-4.78-1.15-.05-2.23-.1-3.1-.21a12.92,12.92,0,0,1-3.61-.82,4.5,4.5,0,0,1-2.54-2.9,1,1,0,0,1-.06-.33,1,1,0,0,1,.22-.62l5-6.31a1,1,0,0,1,1.56,1.24L592.3,569a2.65,2.65,0,0,0,1.28,1.21,11.29,11.29,0,0,0,3,.67c.79.09,1.84.14,3,.2,5.13.24,12.89.6,13.55,6.55.29,2.56-.93,5-1.87,6.58a32.33,32.33,0,0,1-6,7.46c-1.46,1.34-3.43,2.89-5.85,3a11.34,11.34,0,0,1-3.92-.68c-.4-.12-.8-.25-1.21-.35-4-1-10.6.91-14.53,2.07-7.93,2.32-15.52,6-22.86,9.46-5,2.38-10.14,4.84-15.39,6.89C533.05,615.44,523.19,618.7,512.93,618.7Zm78.24-49.86h0Z"/><path d="M401.57,612.58a1,1,0,0,1-1-.78,37,37,0,0,1-.53-13.8,1,1,0,0,1,.28-.55c10-10.09,17-19.1,21.5-27.55s6.73-18.12,8.92-27.58c.65-2.81,1.33-5.71,2-8.49,3.11-12.09,7-24.74,14.24-35.41,6.5-9.55,18.58-18.07,33.15-23.37a1,1,0,1,1,.68,1.88c-14.18,5.16-25.91,13.4-32.17,22.61-7.08,10.42-10.89,22.88-14,34.79-.71,2.75-1.38,5.64-2,8.44-2.22,9.58-4.52,19.49-9.11,28.07S412,588.49,402,598.62a35,35,0,0,0,.54,12.74,1,1,0,0,1-.75,1.19A.83.83,0,0,1,401.57,612.58Z"/><path d="M538.08,574.55l-.17,0a1,1,0,0,1-.81-1.15c.41-2.36.71-4.29.94-6.08.53-4.13,1-8.42,1.35-12.75a1,1,0,0,1,1.08-.92,1,1,0,0,1,.92,1.08c-.37,4.37-.83,8.69-1.37,12.85-.23,1.82-.53,3.78-1,6.16A1,1,0,0,1,538.08,574.55Z"/><path d="M464.24,655c-15.34,0-29.86-4.39-41-12.58-8.14-6-14.3-12.58-18.3-19.63a1,1,0,0,1,1.74-1c3.86,6.8,9.83,13.19,17.74,19,13.49,9.9,32.07,14.06,51,11.42,19.72-2.75,53.35-13.67,54.33-37.18a.72.72,0,0,1,0-.13,1,1,0,0,1,1-1,1,1,0,0,1,1,1,.91.91,0,0,1,0,.17c-1,24.91-35.72,36.33-56,39.16A83,83,0,0,1,464.24,655Z"/><path d="M545.19,559.81a1,1,0,0,1-.66-.25l-1.11-1c-1.23-1.07-2.47-2.14-3.69-3.22a1,1,0,1,1,1.32-1.5l3.68,3.21.69.59a78.59,78.59,0,0,0,29.1-18.15c-4.64-7.38-7.86-15.6-11-23.57-.88-2.23-1.75-4.47-2.66-6.68-3.91-9.58-9.07-20.38-17.72-27.93-.5-.44-1.06-.9-1.82-1.48a1,1,0,0,1,1.22-1.58c.79.6,1.38,1.09,1.92,1.56,9,7.82,14.25,18.88,18.26,28.67.9,2.23,1.78,4.47,2.66,6.71,3.17,8.12,6.46,16.51,11.22,23.89a1,1,0,0,1-.12,1.23,80.24,80.24,0,0,1-31,19.41A1.12,1.12,0,0,1,545.19,559.81Z"/><path d="M558,575a1,1,0,0,1-.87-.51c-.74-1.32-1.46-2.74-2.33-4.62a41.79,41.79,0,0,0-4.63-7.06c-1.09-1.44-2.2-2.92-3.18-4.43a1,1,0,1,1,1.68-1.08c.94,1.44,2,2.9,3.09,4.31a43.35,43.35,0,0,1,4.86,7.42c.84,1.83,1.54,3.21,2.25,4.48a1,1,0,0,1-.38,1.36A1,1,0,0,1,558,575Z"/><path d="M584.92,563.34a1,1,0,0,1-1-.77,39.18,39.18,0,0,0-11.63-19.43,1,1,0,1,1,1.32-1.5,41.22,41.22,0,0,1,12.25,20.47,1,1,0,0,1-.74,1.2Z"/><path d="M591.18,569.86a1,1,0,0,1-.78-1.63q2.22-2.75,4.4-5.54l.6-.76a1,1,0,1,1,1.58,1.22l-.6.77c-1.47,1.87-2.94,3.72-4.42,5.57A1,1,0,0,1,591.18,569.86Z"/><path d="M606.26,573.79a1,1,0,0,1-.79-1.62l1.23-1.57a1,1,0,1,1,1.58,1.24l-1.23,1.57A1,1,0,0,1,606.26,573.79Z"/><path d="M567.82,622.17a1,1,0,0,1-.41-.09,47.37,47.37,0,0,1-12.13-7.86,1,1,0,0,1-.14-1.34c3.19-4.41,6.58-8.9,10.36-13.73l.08-.09a1,1,0,0,1,1.42,0,1,1,0,0,1,0,1.36c-3.54,4.53-6.74,8.75-9.75,12.9a45.49,45.49,0,0,0,10.23,6.62l2.4-3,1.05-1.31a1,1,0,0,1,1.41-.15,1,1,0,0,1,.15,1.41l-1,1.3-2.89,3.6A1,1,0,0,1,567.82,622.17Z"/><path d="M615.46,562a1,1,0,0,1-.61-.21l-11.26-8.64a1,1,0,0,1-.38-.66,1,1,0,0,1,.2-.75l4.23-5.37q16.46-20.93,32.88-41.87c13.35-17,28.75-36.93,42.63-57.42,7.27-10.72,13.94-21.75,19-30.16,4.77-8,18.16-9.9,27.81-10.65a1,1,0,0,1,1,.51,1,1,0,0,1-.06,1.07c-37,51.95-75.56,103.68-114.55,153.76A1,1,0,0,1,615.46,562Zm-9.85-9.82,9.67,7.42c38.32-49.25,76.21-100.09,112.64-151.15-8.95.83-20.14,2.85-24.1,9.49-5,8.44-11.72,19.5-19,30.26-13.92,20.54-29.34,40.47-42.71,57.54q-16.43,21-32.89,41.87Z"/><path d="M573,617.33a9.48,9.48,0,0,1-6.45-2.12,3.71,3.71,0,0,1-1.4-2.34c-.17-1.93,1.69-3.12,3.35-3.55l.35-.09a7.18,7.18,0,0,0,1.8-.59c-2.9-2.71-3.16-7.44-1.61-10.83a1,1,0,1,1,1.82.84c-1.35,3-1,7.14,1.83,9.06A1,1,0,0,1,573,609c-.77,1.46-2.39,1.86-3.69,2.18l-.34.08c-.93.24-1.9.83-1.84,1.43,0,.28.26.61.72,1,3.31,2.91,9.24,1.38,14.61-.49a18.17,18.17,0,0,0,9.06-6.46,12.13,12.13,0,0,0,1.26-2.39,10.29,10.29,0,0,0,0-8,7.52,7.52,0,0,0-2.57-3.11,1,1,0,0,1,1.14-1.64,9.54,9.54,0,0,1,3.25,3.93,12.34,12.34,0,0,1,0,9.55,14.66,14.66,0,0,1-1.46,2.77,20.06,20.06,0,0,1-10.06,7.22C580.7,615.94,576.73,617.33,573,617.33Z"/><path d="M619.46,578.93a10.45,10.45,0,0,1-6.42-2.19L588.12,557.6a10.54,10.54,0,0,1,6.43-18.9,10.45,10.45,0,0,1,6.42,2.19l7.64,5.86a1,1,0,1,1-1.22,1.58l-7.64-5.86a8.54,8.54,0,0,0-12,1.57,8.57,8.57,0,0,0,1.57,12l24.92,19.14a8.54,8.54,0,0,0,10.41-13.55L618.61,557a1,1,0,0,1,1.22-1.58l6.06,4.65a10.54,10.54,0,0,1-6.43,18.9Z"/><path d="M619.32,565a1,1,0,0,1-.61-.21l-3.86-3a1,1,0,0,1,1.22-1.58l3.86,3a1,1,0,0,1-.61,1.79Z"/><path d="M604.2,553.37a1,1,0,0,1-.61-.21L599.43,550a1,1,0,0,1,1.22-1.58l4.16,3.19A1,1,0,0,1,605,553,1,1,0,0,1,604.2,553.37Z"/><path d="M486.93,722.62l-.24,0a1,1,0,0,1-.73-1.21A102,102,0,0,0,488.23,708c.23-2.09.44-4.18.65-6.28.74-7.42,1.5-15.1,3.63-22.42a1,1,0,0,1,.75-.7,1,1,0,0,1,1,.32c10.28,11.8,25.36,16.75,39.95,21.53,11.9,3.9,24.21,7.94,34.11,15.66a1,1,0,1,1-1.22,1.58c-9.64-7.51-21.78-11.49-33.52-15.34-14.27-4.68-29-9.52-39.59-20.75-1.72,6.62-2.41,13.58-3.08,20.32-.21,2.1-.42,4.21-.66,6.3a100.58,100.58,0,0,1-2.31,13.64A1,1,0,0,1,486.93,722.62Z"/><path d="M596.16,671.9a1,1,0,0,1-.87-.49,42,42,0,0,0-10-11.28c-6.81-5.43-14.95-9.19-22.83-12.82l-3.37-1.56c-8.8-4.11-17.57-8.62-26.05-13l-7.18-3.68a1,1,0,0,1,.9-1.78L534,631c8.47,4.36,17.23,8.86,26,12.95,1.12.53,2.25,1,3.37,1.56,8,3.69,16.24,7.49,23.23,13.08A43.88,43.88,0,0,1,597,670.33a.94.94,0,0,1,.18.57A1,1,0,0,1,596.16,671.9Z"/><path d="M421.42,721.61a1,1,0,0,1-.94-.67c-1.31-3.68-3.81-7.26-6.24-10.73-1.37-2-2.66-3.8-3.75-5.67-6.51-11.11-11-21.37-13.69-31.36-4.86-18-3.68-36.61,3.24-51a1,1,0,1,1,1.8.86c-6.71,14-7.85,32.1-3.1,49.65,2.65,9.82,7.06,19.92,13.47,30.88,1.05,1.79,2.32,3.6,3.67,5.52,2.5,3.58,5.09,7.27,6.48,11.22a1,1,0,0,1-.61,1.27A1,1,0,0,1,421.42,721.61Z"/><path d="M455.75,811.81h-77a1,1,0,0,1-.47-.12c-6.74-3.58-10.09-11.82-7.64-18.76,1.73-4.87,5.18-8.69,8.51-12.39l1.67-1.86a105,105,0,0,0,19.46-32.36c.49-1.3,1-2.61,1.42-3.92,1.58-4.42,3.22-9,5.78-13,3.89-6.12,9.54-9.8,15.13-9.85,3.52,0,6.85,1.33,10,2.66a35,35,0,0,0,6.78,2.3c5.75,1.08,11.75-1,16.33-3,1.13-.49,2.25-1,3.38-1.51,4.2-1.91,8.54-3.88,13.19-4.69,4.89-.85,9.41.14,12.73,2.78a13,13,0,0,1,4.81,9.66h0a17.61,17.61,0,0,1-.37,4.63c-2.11,10.24-8.94,19.84-20.9,29.36l-2.64,2.14a110.06,110.06,0,0,1-12,8.9c-.71.42-1.51.87-2.37,1.34-6.77,3.75-12.13,7.33-9.17,13.26,1.38,2.75,3.77,4.29,6.3,5.93,3.43,2.21,7,4.49,8.23,9.84a16.32,16.32,0,0,1-.16,8A1,1,0,0,1,455.75,811.81Zm-76.78-2h76a14.17,14.17,0,0,0,0-6.25c-1.08-4.56-4.14-6.54-7.37-8.62-2.65-1.71-5.39-3.48-7-6.71-4.07-8.13,4.39-12.81,10-15.91.84-.46,1.62-.9,2.3-1.31a107.83,107.83,0,0,0,11.81-8.73c.89-.73,1.78-1.45,2.66-2.15,11.57-9.22,18.17-18.45,20.18-28.2a16,16,0,0,0,.34-4.13h0a10.88,10.88,0,0,0-4.07-8.2c-2.86-2.28-6.82-3.12-11.14-2.36s-8.62,2.68-12.71,4.53c-1.13.52-2.26,1-3.4,1.53-4.85,2.09-11.21,4.35-17.5,3.16a36.33,36.33,0,0,1-7.18-2.42c-3.13-1.3-6.08-2.53-9.24-2.5-4.91,0-9.94,3.38-13.47,8.93-2.43,3.83-4,8.29-5.57,12.6-.48,1.32-.95,2.65-1.44,3.95a107,107,0,0,1-19.83,33c-.55.63-1.12,1.26-1.68,1.88-3.21,3.56-6.52,7.23-8.12,11.72C370.15,800.23,373.92,807,379,809.81Z"/><path d="M710.22,811.81H623.93a1,1,0,0,1-.76-.35,15.54,15.54,0,0,1-3.1-6,41.16,41.16,0,0,1-1.13-7.4c-.15-1.63-.31-3.32-.59-4.93-1.51-8.53-6.87-16.79-16.38-25.24-2.87-2.55-5.92-5-8.88-7.35a131.4,131.4,0,0,1-14.89-13.2,42.53,42.53,0,0,1-11.58-27.31c-.4-7.26,2.66-13.44,5.62-19.43,1.1-2.22,2.24-4.53,3.2-6.88.63-1.52,1.22-3.14,1.79-4.71l.52-1.42c2.25-6.13,4.7-11.9,10-15.25,7.19-4.56,16.42-2.3,22.37,2,6.46,4.63,10.68,11.74,14.12,18,11.54,21.13,20.09,43.35,26.25,60.36a102.24,102.24,0,0,1,2.85,9.92c1.32,5.28,2.69,10.73,5.33,15.39,4.14,7.28,14,10.31,21.87,10a65.58,65.58,0,0,0,7.45-.84c5.48-.83,11.15-1.68,16.34.64a16.39,16.39,0,0,1,9.2,16,17.39,17.39,0,0,1-2.44,7.47A1,1,0,0,1,710.22,811.81Zm-85.82-2h85.24a15.07,15.07,0,0,0,1.88-6.12,14.34,14.34,0,0,0-8-14c-4.65-2.08-9.78-1.3-15.22-.48a68.25,68.25,0,0,1-7.69.86c-8.5.26-19.12-3.05-23.67-11.06-2.77-4.89-4.18-10.48-5.53-15.88a99.9,99.9,0,0,0-2.79-9.73c-6.14-16.94-14.65-39.07-26.13-60.08-3.33-6.11-7.4-13-13.52-17.38-5.41-3.87-13.73-6-20.13-1.91-4.77,3-7.07,8.47-9.2,14.26h0l-.51,1.41c-.58,1.59-1.18,3.23-1.81,4.79-1,2.41-2.15,4.75-3.27,7-3,6-5.78,11.7-5.41,18.43A40,40,0,0,0,579.68,746a128.92,128.92,0,0,0,14.66,13c3,2.37,6,4.83,8.95,7.41,9.87,8.77,15.43,17.4,17,26.4.31,1.69.46,3.41.62,5.08A39.91,39.91,0,0,0,622,805,14.23,14.23,0,0,0,624.4,809.81ZM578.69,688Z"/><path d="M513.61,562.22A1,1,0,0,1,513,562a1,1,0,0,1-.13-1.41c11-13.32,18.37-26.33,22.49-39.76,2.8-9.09,6.65-26.24,1.12-39a1,1,0,0,1,1.84-.8c5.49,12.65,2.46,28.92-1,40.34-4.21,13.7-11.69,26.93-22.87,40.46A1,1,0,0,1,513.61,562.22Z"/><path d="M508.46,548.59a1,1,0,0,1-.62-.21,1,1,0,0,1-.17-1.41c9.21-11.78,15.5-23.31,19.21-35.27,2.84-9.13,3.5-16.88,2-23.67a27.57,27.57,0,0,0-1.2-4.06,1,1,0,1,1,1.86-.72,30.07,30.07,0,0,1,1.3,4.36c1.53,7.14.85,15.21-2.09,24.69-3.79,12.19-10.18,23.93-19.54,35.91A1,1,0,0,1,508.46,548.59Z"/><path d="M395.63,623.71c-3.17,0-6.32-.13-9.46-.37a1.06,1.06,0,0,1-.51-.19,72.48,72.48,0,0,1-11.45-10.66,1,1,0,0,1-.14-1.12,1,1,0,0,1,1-.54c30.19,3.1,62.47-5.68,90.87-24.7a1,1,0,1,1,1.12,1.66c-28,18.74-59.71,27.67-89.62,25.27a66.93,66.93,0,0,0,9.18,8.3c31.55,2.42,64.7-8,93.38-29.23a1,1,0,1,1,1.2,1.6C454.88,613.24,424.84,623.71,395.63,623.71Z"/><path d="M394.9,649.11a1,1,0,0,1-.33-.06,83.59,83.59,0,0,1-13.93-6.42C336.17,617,323.46,555.42,352.3,505.46c26.66-46.17,79.76-67.13,123.52-48.74a1,1,0,1,1-.78,1.84c-42.83-18-94.85,2.6-121,47.9-28.29,49-15.91,109.31,27.6,134.43a82.77,82.77,0,0,0,13.59,6.28,1,1,0,0,1-.33,1.94Z"/><path d="M398.41,629.74a1,1,0,0,1-.38-.07,65.66,65.66,0,0,1-7.72-3.79c-17.33-10-29-27.34-33-48.8s.37-44.34,12.07-64.62,29.44-35.46,49.94-42.77,41.41-5.84,58.74,4.17c.68.4,1.57.93,2.45,1.51a1,1,0,0,1-1.11,1.66c-.83-.55-1.69-1.06-2.34-1.43-16.81-9.72-37.08-11.14-57.07-4s-37.4,22-48.87,41.88-15.68,42.33-11.84,63.26,15.2,37.72,32,47.42a60.2,60.2,0,0,0,7.48,3.67,1,1,0,0,1,.55,1.31A1,1,0,0,1,398.41,629.74Z"/><path d="M333.27,813.06h-91.4a1,1,0,0,1-.8-.39A78.07,78.07,0,0,1,226.63,781c-4.43-22.25,3-46.1,20.45-65.44a1,1,0,0,1,1.71.91c-6.37,25.41,2.05,52.78,21,68.94-1-11.85,3.59-23.34,13-32.59a1,1,0,0,1,1.11-.2,1,1,0,0,1,.59,1,49.86,49.86,0,0,0,17.29,41.23,22.93,22.93,0,0,1,10.52-21.9,1,1,0,0,1,1-.06,1,1,0,0,1,.56.83c1.05,14.24,8.56,28.31,20.1,37.63a1,1,0,0,1-.63,1.78Zm-90.9-2h88.18A56.79,56.79,0,0,1,312,775.54a20.88,20.88,0,0,0-7.84,21.4,1,1,0,0,1-1.58,1c-12.83-9.53-20.42-25.39-20.2-41.88-8.29,9.1-11.94,20.19-10.3,31.48a1,1,0,0,1-1.61.93C250.56,772.88,241,745.7,246,719.84c-15.16,18.3-21.48,40.23-17.4,60.72A76,76,0,0,0,242.37,811.06Z"/><path d="M546.89,813.06H508.74a1,1,0,0,1-.95-.67,1,1,0,0,1,.33-1.12,31.36,31.36,0,0,0,12-22.09,1,1,0,0,1,.77-.9,1,1,0,0,1,1.09.46c1.58,2.66,2.57,4.47,3.52,6.23.81,1.47,1.64,3,2.82,5a39.13,39.13,0,0,0,13.93-23.36,1,1,0,0,1,.69-.77,1,1,0,0,1,1,.25c8,8,7.63,20.5,6.66,27.22a30.72,30.72,0,0,1-2.85,9.16A1,1,0,0,1,546.89,813.06Zm-35.44-2h34.81a28.55,28.55,0,0,0,2.4-8h0c.86-6,1.29-16.7-4.82-24.12a40.82,40.82,0,0,1-15.17,23.34,1,1,0,0,1-.8.18,1,1,0,0,1-.66-.47c-1.52-2.58-2.49-4.35-3.42-6.06-.63-1.15-1.24-2.27-2-3.6A33.69,33.69,0,0,1,511.45,811.06Z"/><path d="M844.22,813.06H751.4a1,1,0,0,1-.63-1.78A37.25,37.25,0,0,0,764.86,783a1,1,0,0,1,.69-.94,1,1,0,0,1,1.11.36,52,52,0,0,0,6.18,6.76,59.58,59.58,0,0,1,5.71,6.13c10.47-10,14.28-27.48,9.27-43a1,1,0,0,1,1.48-1.16c13.4,8.31,22.06,21.74,24.48,37.94,16-10.15,26.05-33.76,22.05-52.42a1,1,0,0,1,1.67-.94c16.75,15.85,22.74,36.3,16.87,57.6A60,60,0,0,1,845,812.65,1,1,0,0,1,844.22,813.06Zm-90.12-2h89.61a58.18,58.18,0,0,0,8.74-18.26h0c5.39-19.58.38-38.44-14.12-53.42,2.68,19.64-8,42.5-24.83,52.23a1,1,0,0,1-1,0,1,1,0,0,1-.54-.78c-1.91-15.32-9.52-28.2-21.53-36.53,4.14,16-.36,33.45-11.4,43.25a1,1,0,0,1-.76.24.94.94,0,0,1-.7-.4,52,52,0,0,0-6.18-6.76,65.86,65.86,0,0,1-4.71-4.91A39.46,39.46,0,0,1,754.1,811.06Z"/><path d="M416.44,386.58H311.83a9.93,9.93,0,1,1,0-19.85H416.44a9.93,9.93,0,1,1,0,19.85ZM311.83,368.73a7.93,7.93,0,1,0,0,15.85H416.44a7.93,7.93,0,1,0,0-15.85Z"/><path d="M334.93,386.58a1,1,0,0,1-.57-.18,1,1,0,0,1-.25-1.39l12.32-17.85a1,1,0,0,1,1.64,1.14l-12.32,17.85A1,1,0,0,1,334.93,386.58Z"/><path d="M329.05,360.65H306.37a1,1,0,0,1,0-2h22.68a1,1,0,1,1,0,2Z"/><path d="M320.62,351.88H306.37a1,1,0,0,1,0-2h14.25a1,1,0,0,1,0,2Z"/><path d="M354.31,505a1,1,0,0,1-.61-.21l-26.54-20.41-.09-.08-6-4.62a1,1,0,1,1,1.22-1.58l6.1,4.69.09.08,26.45,20.34a1,1,0,0,1,.18,1.4A1,1,0,0,1,354.31,505Z"/><path d="M321.67,479.92a1,1,0,0,1-1-.87l-1.58-12.12a1,1,0,0,1,.86-1.12,1,1,0,0,1,1.12.86l1.58,12.12a1,1,0,0,1-.86,1.12Z"/><path d="M327.77,484.62a1,1,0,0,1-1-.87l-1.67-12.82a1,1,0,0,1,2-.26l1.67,12.82a1,1,0,0,1-.87,1.12Z"/><path d="M333.82,489.27a1,1,0,0,1-1-.87l-1.67-12.82a1,1,0,0,1,.86-1.12,1,1,0,0,1,1.12.86l1.67,12.82a1,1,0,0,1-.86,1.12Z"/><path d="M309.55,481.5a1,1,0,0,1-.13-2l12.12-1.57a1,1,0,1,1,.26,2l-12.12,1.58Z"/><path d="M315,486.29a1,1,0,0,1-.13-2l12.82-1.66a1,1,0,1,1,.25,2l-12.81,1.67Z"/><path d="M321,490.94a1,1,0,0,1-.13-2l12.82-1.67a1,1,0,1,1,.26,2l-12.82,1.67Z"/><path d="M339.27,545.55a.93.93,0,0,1-.45-.11L281.76,517a1,1,0,1,1,.9-1.78l57.06,28.44a1,1,0,0,1-.45,1.89Z"/><path d="M282.21,517.11a1,1,0,0,1-.95-.68l-4.76-14.22a1,1,0,0,1,1.9-.63l4.76,14.22a1,1,0,0,1-.64,1.26A.84.84,0,0,1,282.21,517.11Z"/><path d="M290.67,521.33a1,1,0,0,1-.95-.68l-5-15a1,1,0,1,1,1.89-.64l5,15a1,1,0,0,1-.63,1.27A.93.93,0,0,1,290.67,521.33Z"/><path d="M299,525.51a1,1,0,0,1-.94-.69l-5-15a1,1,0,0,1,1.9-.63l5,15a1,1,0,0,1-.63,1.27A1.13,1.13,0,0,1,299,525.51Z"/><path d="M268,521.87a1,1,0,0,1-.95-.68,1,1,0,0,1,.63-1.27l14.22-4.75a1,1,0,1,1,.63,1.89l-14.21,4.76A1.19,1.19,0,0,1,268,521.87Z"/><path d="M275.63,526.37a1,1,0,0,1-.32-2l15-5a1,1,0,0,1,.64,1.9l-15,5A1,1,0,0,1,275.63,526.37Z"/><path d="M284,530.54a1,1,0,0,1-.94-.68,1,1,0,0,1,.63-1.27l15-5a1,1,0,0,1,1.26.63,1,1,0,0,1-.63,1.27l-15,5A1.13,1.13,0,0,1,284,530.54Z"/><path d="M597.4,813.06a1,1,0,0,1-.8-.41L564.9,769.8a1,1,0,1,1,1.6-1.18l31.7,42.84a1,1,0,0,1-.21,1.4A.92.92,0,0,1,597.4,813.06Z"/><path d="M565.7,770.21h-.15a1,1,0,0,1-.84-1.14l1.77-11.84a1,1,0,1,1,2,.29l-1.77,11.84A1,1,0,0,1,565.7,770.21Z"/><path d="M570.19,776.28H570a1,1,0,0,1-.84-1.14l1.88-12.53a1,1,0,0,1,2,.3l-1.88,12.53A1,1,0,0,1,570.19,776.28Z"/><path d="M574.64,782.29h-.15a1,1,0,0,1-.84-1.14l1.87-12.53a1,1,0,0,1,2,.3l-1.87,12.52A1,1,0,0,1,574.64,782.29Z"/><path d="M565.7,770.21h-.15l-11.84-1.78a1,1,0,1,1,.3-2l11.84,1.77a1,1,0,0,1-.15,2Z"/><path d="M570.19,776.28H570l-12.52-1.88a1,1,0,0,1-.85-1.14,1,1,0,0,1,1.14-.84l12.53,1.88a1,1,0,0,1-.15,2Z"/><path d="M574.64,782.29h-.15L562,780.4a1,1,0,0,1-.84-1.13,1,1,0,0,1,1.14-.85l12.53,1.88a1,1,0,0,1-.15,2Z"/><path d="M477.82,813.06a1,1,0,0,1-.6-.2,1,1,0,0,1-.2-1.4l47.14-62.6.06-.09,5.57-7.39.06-.09,5.68-7.54a1,1,0,0,1,1.6,1.2l-5.62,7.46-.06.09-5.57,7.39-.06.09-47.2,62.68A1,1,0,0,1,477.82,813.06Z"/><path d="M536.33,735.35a1,1,0,0,1-.14-2l14.85-2.1a1,1,0,0,1,.28,2l-14.85,2.09Z"/><path d="M530.64,742.9a1,1,0,0,1-.13-2l15.7-2.21a1,1,0,1,1,.28,2l-15.7,2.21Z"/><path d="M525,750.38a1,1,0,0,1-1-.86,1,1,0,0,1,.85-1.13l15.7-2.22a1,1,0,0,1,1.13.85,1,1,0,0,1-.85,1.13l-15.7,2.22Z"/><path d="M536.33,735.35a1,1,0,0,1-1-.86l-2.09-14.85a1,1,0,0,1,2-.28l2.09,14.85a1,1,0,0,1-.85,1.13Z"/><path d="M530.64,742.9a1,1,0,0,1-1-.86l-2.22-15.7a1,1,0,0,1,2-.28l2.22,15.7a1,1,0,0,1-.85,1.13Z"/><path d="M525,750.38a1,1,0,0,1-1-.86l-2.22-15.71a1,1,0,0,1,.85-1.13,1,1,0,0,1,1.13.85L526,749.24a1,1,0,0,1-.85,1.13Z"/><path d="M725.22,813.06a1.07,1.07,0,0,1-.46-.11,1,1,0,0,1-.43-1.35L758.71,745a.2.2,0,0,0,0-.08l8.62-16.71a1,1,0,0,1,1.78.92l-8.58,16.64,0,.08-34.42,66.71A1,1,0,0,1,725.22,813.06Z"/><path d="M768.26,729.63a1,1,0,0,1-.3-2l14.28-4.56a1,1,0,0,1,1.25.65,1,1,0,0,1-.64,1.25l-14.29,4.56A.79.79,0,0,1,768.26,729.63Z"/><path d="M763.93,738a1,1,0,0,1-.31-1.95l15.11-4.82a1,1,0,0,1,1.26.64,1,1,0,0,1-.65,1.26L764.23,738A1,1,0,0,1,763.93,738Z"/><path d="M759.64,746.35a1,1,0,0,1-.31-2l15.11-4.83a1,1,0,0,1,1.26.65,1,1,0,0,1-.65,1.26l-15.11,4.82A.79.79,0,0,1,759.64,746.35Z"/><path d="M768.26,729.63a1,1,0,0,1-1-.69l-4.56-14.28a1,1,0,0,1,.65-1.26,1,1,0,0,1,1.25.65l4.56,14.28a1,1,0,0,1-.65,1.25A.79.79,0,0,1,768.26,729.63Z"/><path d="M763.93,738a1,1,0,0,1-1-.69l-4.82-15.11a1,1,0,1,1,1.9-.61l4.83,15.11a1,1,0,0,1-.65,1.26A1,1,0,0,1,763.93,738Z"/><path d="M759.64,746.35a1,1,0,0,1-1-.69l-4.82-15.11a1,1,0,0,1,.65-1.26,1,1,0,0,1,1.25.65l4.83,15.11a1,1,0,0,1-.65,1.25A.79.79,0,0,1,759.64,746.35Z"/><path d="M354.69,813.06a1,1,0,0,1-.89-.54l-34.42-66.71,0-.09-8.58-16.63a1,1,0,0,1,1.78-.92l8.62,16.71,0,.09,34.38,66.63a1,1,0,0,1-.43,1.35A1.07,1.07,0,0,1,354.69,813.06Z"/><path d="M311.65,729.63a.79.79,0,0,1-.3,0L297.06,725a1,1,0,0,1,.61-1.9L312,727.68a1,1,0,0,1-.3,2Z"/><path d="M316,738a1,1,0,0,1-.3,0l-15.11-4.83a1,1,0,1,1,.61-1.9l15.11,4.82A1,1,0,0,1,316,738Z"/><path d="M320.27,746.35a.79.79,0,0,1-.3-.05l-15.11-4.82a1,1,0,0,1,.61-1.91l15.11,4.83a1,1,0,0,1-.31,2Z"/><path d="M311.65,729.63a.79.79,0,0,1-.3,0,1,1,0,0,1-.65-1.25l4.56-14.28a1,1,0,1,1,1.9.61l-4.56,14.28A1,1,0,0,1,311.65,729.63Z"/><path d="M316,738a1,1,0,0,1-.3,0,1,1,0,0,1-.65-1.26l4.83-15.11a1,1,0,1,1,1.9.61l-4.82,15.11A1,1,0,0,1,316,738Z"/><path d="M320.27,746.35a.79.79,0,0,1-.3-.05,1,1,0,0,1-.65-1.25l4.83-15.11a1,1,0,0,1,1.25-.65,1,1,0,0,1,.65,1.26l-4.82,15.11A1,1,0,0,1,320.27,746.35Z"/><path d="M874.73,814.06H164.37a2,2,0,0,1,0-4H874.73a2,2,0,0,1,0,4Z"/><path d="M606.9,582.46a1,1,0,0,1-1-.92,1,1,0,0,1,.92-1.08l4.31-.33a1,1,0,0,1,.16,2l-4.32.34Z"/><path d="M607.55,587.77h-.11l-3-.33a1,1,0,0,1,.22-2l3,.33a1,1,0,0,1-.11,2Z"/><path d="M603.56,592.08a.84.84,0,0,1-.27,0l-2.33-.65a1,1,0,0,1,.55-1.93l2.32.66a1,1,0,0,1-.27,2Z"/><path d="M571.74,610.05a1,1,0,0,1,0-2L579,608a1,1,0,0,1,1,1,1,1,0,0,1-1,1l-7.29.08Z"/><path d="M582,603l-.19,0a38.07,38.07,0,0,0-12.6-.33,1,1,0,0,1-1.13-.85,1,1,0,0,1,.85-1.13,40.16,40.16,0,0,1,13.26.34,1,1,0,0,1-.19,2Z"/><path d="M584,597l-.2,0-5-1a1,1,0,0,1-.78-1.18,1,1,0,0,1,1.17-.78l5,1a1,1,0,0,1-.2,2Z"/><path d="M490.9,437.3h-.08a1,1,0,0,1-.91-1.08,6.4,6.4,0,0,0-4.93-6.54,1,1,0,1,1,.39-2,8.35,8.35,0,0,1,6.53,8.66A1,1,0,0,1,490.9,437.3Z"/><path d="M383.45,626.86a1,1,0,0,1-.71-.29,1,1,0,0,1,0-1.41l2.71-2.74a1,1,0,1,1,1.42,1.41l-2.7,2.73A1,1,0,0,1,383.45,626.86Z"/><path d="M366,610.48a1,1,0,0,1-.56-1.84l3.27-2.17a1,1,0,0,1,1.38.27,1,1,0,0,1-.27,1.39l-3.27,2.18A1,1,0,0,1,366,610.48Z"/><path d="M355.09,588.16a1,1,0,0,1-.22-2l4.9-1.09a1,1,0,0,1,.43,2l-4.89,1.09Z"/><path d="M352.37,562.62a1,1,0,0,1-.06-2l4.57-.27a1,1,0,1,1,.12,2l-4.57.28Z"/><path d="M361.08,535.36l-.25,0-4.35-1.09a1,1,0,1,1,.48-1.94l4.36,1.09a1,1,0,0,1-.24,2Z"/><path d="M371.3,511.25a.94.94,0,0,1-.58-.19l-2.54-1.8a1,1,0,0,1,1.17-1.63l2.53,1.81a1,1,0,0,1,.23,1.39A1,1,0,0,1,371.3,511.25Z"/><path d="M389,489.73a1,1,0,0,1-.66-.24l-2.71-2.35a1,1,0,1,1,1.31-1.51l2.71,2.35a1,1,0,0,1,.1,1.41A1,1,0,0,1,389,489.73Z"/><path d="M413.79,474a1,1,0,0,1-.89-.53l-1.62-3.07a1,1,0,1,1,1.76-.94l1.63,3.08a1,1,0,0,1-.42,1.35A.92.92,0,0,1,413.79,474Z"/><path d="M441.9,466.77a1,1,0,0,1-1-.94l-.22-3.43a1,1,0,1,1,2-.13l.22,3.43a1,1,0,0,1-.94,1.06Z"/><path d="M463.68,469.66l-.25,0a1,1,0,0,1-.73-1.21l.72-2.89a1,1,0,0,1,1.21-.73,1,1,0,0,1,.73,1.21l-.71,2.89A1,1,0,0,1,463.68,469.66Z"/><path d="M444.55,792.33a1,1,0,0,1-.58-.18,32.06,32.06,0,0,0-28.13-4.32,1,1,0,1,1-.61-1.9,34.14,34.14,0,0,1,29.91,4.59,1,1,0,0,1,.23,1.4A1,1,0,0,1,444.55,792.33Z"/><path d="M492.6,684.07l-.22,0a1,1,0,0,1-.76-1.19,50.47,50.47,0,0,1,7.88-18,1,1,0,0,1,1.4-.25,1,1,0,0,1,.24,1.4,48.5,48.5,0,0,0-7.57,17.25A1,1,0,0,1,492.6,684.07Z"/><path d="M540.46,555.83h-.09a1,1,0,0,1-.91-1.08l2.1-24.53a1,1,0,0,1,2,.17l-2.1,24.53A1,1,0,0,1,540.46,555.83Z"/><path d="M449.29,377.66H425.37a1,1,0,0,1,0-2h23.92a1,1,0,0,1,0,2Z"/><path d="M461.49,389.86a1,1,0,0,1-.71-.29l-12.2-12.21A1,1,0,1,1,450,376l12.21,12.2a1,1,0,0,1,0,1.42A1,1,0,0,1,461.49,389.86Z"/><path d="M306.4,801.33a1,1,0,0,1-.69-.27l-5.3-4.94a1,1,0,0,1,1.37-1.46l5.3,4.94a1,1,0,0,1,.05,1.41A1,1,0,0,1,306.4,801.33Z"/><path d="M278.15,795.74a1,1,0,0,1-.61-.21,62.45,62.45,0,0,1-9.39-8.93,1,1,0,0,1,.12-1.41,1,1,0,0,1,1.41.12,60.35,60.35,0,0,0,9.08,8.64,1,1,0,0,1-.61,1.79Z"/></svg>